<?xml version="1.0" encoding="UTF-8"?>
<svg width="90px" height="80px" viewBox="0 0 90 80" version="1.1" xmlns="http://www.w3.org/2000/svg" xmlns:xlink="http://www.w3.org/1999/xlink">
    <!-- Generator: Sketch 49.1 (51147) - http://www.bohemiancoding.com/sketch -->
    <title>Rectangle 5 Copy 2</title>
    <desc>Created with Sketch.</desc>
    <defs></defs>
    <g id="ui" stroke="none" stroke-width="1" fill="none" fill-rule="evenodd">
        <g id="array_ui_phones" transform="translate(-16.000000, -4503.000000)" fill="#FFFFFF" fill-rule="nonzero">
            <g id="This-Approach-to-Fun" transform="translate(-2.000000, 3766.000000)">
                <g id="3" transform="translate(18.000000, 737.000000)">
                    <path d="M44,54 C44,54 55,48.6 55,40.5 L55,29.7 L44,27 L33,29.7 L33,40.5 C33,48.6 44,54 44,54 Z M45.1898176,56.4237025 C44.4393801,56.7920991 43.5606199,56.7920991 42.8101824,56.4237025 C42.3943185,56.2195511 41.7193793,55.8527173 40.8691062,55.3309588 C39.4650719,54.4693923 38.0613676,53.47021 36.7405645,52.3355201 C32.7648319,48.9200044 30.3000001,44.9874772 30.3000001,40.5 L30.3000001,29.7 C30.3000001,28.4567449 31.1489628,27.3742004 32.3563777,27.0778349 L43.3563777,24.3778349 C43.779184,24.2740551 44.220816,24.2740551 44.6436223,24.3778349 L55.6436223,27.0778349 C56.8510372,27.3742004 57.6999999,28.4567449 57.6999999,29.7 L57.6999999,40.5 C57.6999999,44.9874772 55.2351681,48.9200044 51.2594355,52.3355201 C49.9386324,53.47021 48.5349281,54.4693923 47.1308938,55.3309588 C46.2806207,55.8527173 45.6056815,56.2195511 45.1898176,56.4237025 Z M14.6756747,3 C13.6769189,3 12.8312585,3.73681283 12.6945101,4.7261626 L3.01908087,74.7261626 C3.00653874,74.8169027 3.00024545,74.9083972 3.00024545,75 C3.00024545,76.1045695 3.89567595,77 5.00024545,77 L75.3243253,77 C76.3230811,77 77.1687415,76.2631872 77.3054899,75.2738374 L86.9809191,5.2738374 C86.9934613,5.18309732 86.9997546,5.09160277 86.9997546,5 C86.9997546,3.8954305 86.1043241,3 84.9997546,3 L14.6756747,3 Z M14.6756747,8.8817842e-16 L84.9997546,-1.77635684e-15 C87.7611783,5.07428879e-15 89.9997546,2.23857625 89.9997546,5 C89.9997546,5.22900692 89.9840213,5.45774329 89.952666,5.68459349 L80.2772367,75.6845935 C79.9353659,78.1579679 77.8212147,80 75.3243253,80 L5.00024545,80 C2.2388217,80 0.000245448057,77.7614237 0.000245448057,75 C0.000245448057,74.7709931 0.0159786768,74.5422567 0.047334006,74.3154065 L9.72276327,4.31540651 C10.0646341,1.84203207 12.1787853,-2.20586411e-15 14.6756747,8.8817842e-16 Z" id="Rectangle-5-Copy-2"></path>
                </g>
            </g>
        </g>
    </g>
</svg>