<?xml version="1.0" encoding="UTF-8"?>
<svg width="90px" height="80px" viewBox="0 0 90 80" version="1.1" xmlns="http://www.w3.org/2000/svg" xmlns:xlink="http://www.w3.org/1999/xlink">
    <!-- Generator: Sketch 49.1 (51147) - http://www.bohemiancoding.com/sketch -->
    <title>Rectangle 5 Copy 5</title>
    <desc>Created with Sketch.</desc>
    <defs></defs>
    <g id="ui" stroke="none" stroke-width="1" fill="none" fill-rule="evenodd">
        <g id="array_ui_phones" transform="translate(-16.000000, -3993.000000)" fill="#FFFFFF" fill-rule="nonzero">
            <g id="This-Approach-to-Fun" transform="translate(-2.000000, 3766.000000)">
                <g id="1" transform="translate(18.000000, 227.000000)">
                    <path d="M58.3786797,32.5 L53,32.5 C52.1715729,32.5 51.5,31.8284271 51.5,31 C51.5,30.1715729 52.1715729,29.5 53,29.5 L62,29.5 C62.8284271,29.5 63.5,30.1715729 63.5,31 L63.5,40 C63.5,40.8284271 62.8284271,41.5 62,41.5 C61.1715729,41.5 60.5,40.8284271 60.5,40 L60.5,34.6213203 L47.8106602,47.3106602 C47.2248737,47.8964466 46.2751263,47.8964466 45.6893398,47.3106602 L39.25,40.8713203 L29.0606602,51.0606602 C28.4748737,51.6464466 27.5251263,51.6464466 26.9393398,51.0606602 C26.3535534,50.4748737 26.3535534,49.5251263 26.9393398,48.9393398 L38.1893398,37.6893398 C38.7751263,37.1035534 39.7248737,37.1035534 40.3106602,37.6893398 L46.75,44.1286797 L58.3786797,32.5 Z M14.6756747,3 C13.6769189,3 12.8312585,3.73681283 12.6945101,4.7261626 L3.01908087,74.7261626 C3.00653874,74.8169027 3.00024545,74.9083972 3.00024545,75 C3.00024545,76.1045695 3.89567595,77 5.00024545,77 L75.3243253,77 C76.3230811,77 77.1687415,76.2631872 77.3054899,75.2738374 L86.9809191,5.2738374 C86.9934613,5.18309732 86.9997546,5.09160277 86.9997546,5 C86.9997546,3.8954305 86.1043241,3 84.9997546,3 L14.6756747,3 Z M14.6756747,8.8817842e-16 L84.9997546,-1.77635684e-15 C87.7611783,5.07428879e-15 89.9997546,2.23857625 89.9997546,5 C89.9997546,5.22900692 89.9840213,5.45774329 89.952666,5.68459349 L80.2772367,75.6845935 C79.9353659,78.1579679 77.8212147,80 75.3243253,80 L5.00024545,80 C2.2388217,80 0.000245448057,77.7614237 0.000245448057,75 C0.000245448057,74.7709931 0.0159786768,74.5422567 0.047334006,74.3154065 L9.72276327,4.31540651 C10.0646341,1.84203207 12.1787853,-2.20586411e-15 14.6756747,8.8817842e-16 Z" id="Rectangle-5-Copy-5"></path>
                </g>
            </g>
        </g>
    </g>
</svg>