<?xml version="1.0" encoding="UTF-8"?>
<svg width="32px" height="32px" viewBox="0 0 32 32" version="1.1" xmlns="http://www.w3.org/2000/svg" xmlns:xlink="http://www.w3.org/1999/xlink">
    <!-- Generator: Sketch 49.1 (51147) - http://www.bohemiancoding.com/sketch -->
    <title>g+</title>
    <desc>Created with Sketch.</desc>
    <defs></defs>
    <g id="g+" stroke="none" stroke-width="1" fill="none" fill-rule="evenodd">
        <path d="M24,16.571 L21.714,16.571 L21.714,18.857 L20.572,18.857 L20.572,16.571 L18.286,16.571 L18.286,15.428 L20.572,15.428 L20.572,13.142 L21.714,13.142 L21.714,15.428 L24,15.428 L24,16.571 Z M15.758,9.608 C15.91,9.76 16.059,9.947 16.205,10.169 C16.345,10.379 16.469,10.626 16.577,10.912 C16.666,11.197 16.71,11.53 16.71,11.911 C16.698,12.609 16.539,13.167 16.231,13.586 C16.08,13.789 15.921,13.976 15.752,14.148 C15.565,14.319 15.367,14.494 15.156,14.671 C15.035,14.792 14.924,14.928 14.821,15.081 C14.701,15.239 14.641,15.423 14.641,15.633 C14.641,15.836 14.702,16.004 14.826,16.137 C14.931,16.264 15.033,16.375 15.132,16.47 L15.818,17.013 C16.244,17.349 16.618,17.72 16.94,18.126 C17.243,18.539 17.4,19.078 17.413,19.745 C17.413,20.69 16.98,21.528 16.115,22.257 C15.217,23.012 13.922,23.403 12.23,23.428 C10.814,23.415 9.756,23.124 9.058,22.554 C8.353,22.022 8,21.385 8,20.644 C8,20.283 8.115,19.881 8.344,19.438 C8.567,18.994 8.969,18.605 9.553,18.269 C10.208,17.908 10.896,17.668 11.617,17.547 C12.33,17.446 12.923,17.389 13.395,17.376 C13.249,17.191 13.119,16.994 13.005,16.783 C12.872,16.579 12.806,16.333 12.806,16.046 C12.806,15.874 12.831,15.73 12.882,15.615 C12.926,15.494 12.967,15.383 13.005,15.281 C12.776,15.306 12.559,15.319 12.356,15.319 C11.279,15.306 10.459,14.979 9.894,14.338 C9.303,13.742 9.008,13.047 9.008,12.254 C9.008,11.296 9.427,10.427 10.264,9.646 C10.838,9.19 11.436,8.891 12.056,8.752 C12.669,8.631 13.244,8.571 13.781,8.571 L17.825,8.571 L16.576,9.274 L15.329,9.274 C15.456,9.351 15.599,9.462 15.758,9.608 L15.758,9.608 Z M2,32 L30,32 C31.1045695,32 32,31.1045695 32,30 L32,2 C32,0.8954305 31.1045695,-2.02906125e-16 30,0 L2,0 C0.8954305,2.02906125e-16 -1.3527075e-16,0.8954305 0,2 L0,30 C1.3527075e-16,31.1045695 0.8954305,32 2,32 Z" fill="#FFFFFF"></path>
    </g>
</svg>
