<?xml version="1.0" encoding="UTF-8"?>
<svg width="90px" height="80px" viewBox="0 0 90 80" version="1.1" xmlns="http://www.w3.org/2000/svg" xmlns:xlink="http://www.w3.org/1999/xlink">
    <!-- Generator: Sketch 49.1 (51147) - http://www.bohemiancoding.com/sketch -->
    <title>icn</title>
    <desc>Created with Sketch.</desc>
    <defs></defs>
    <g id="ui" stroke="none" stroke-width="1" fill="none" fill-rule="evenodd">
        <g id="array_ui_phones" transform="translate(-16.000000, -4730.000000)" fill="#FFFFFF" fill-rule="nonzero">
            <g id="This-Approach-to-Fun" transform="translate(-2.000000, 3766.000000)">
                <g id="4" transform="translate(17.000000, 964.000000)">
                    <g id="icn" transform="translate(1.000000, 0.000000)">
                        <path d="M14.6756747,3 C13.6769189,3 12.8312585,3.73681283 12.6945101,4.7261626 L3.01908087,74.7261626 C3.00653874,74.8169027 3.00024545,74.9083972 3.00024545,75 C3.00024545,76.1045695 3.89567595,77 5.00024545,77 L75.3243253,77 C76.3230811,77 77.1687415,76.2631872 77.3054899,75.2738374 L86.9809191,5.2738374 C86.9934613,5.18309732 86.9997546,5.09160277 86.9997546,5 C86.9997546,3.8954305 86.1043241,3 84.9997546,3 L14.6756747,3 Z M14.6756747,8.8817842e-16 L84.9997546,-1.77635684e-15 C87.7611783,5.07428879e-15 89.9997546,2.23857625 89.9997546,5 C89.9997546,5.22900692 89.9840213,5.45774329 89.952666,5.68459349 L80.2772367,75.6845935 C79.9353659,78.1579679 77.8212147,80 75.3243253,80 L5.00024545,80 C2.2388217,80 0.000245448057,77.7614237 0.000245448057,75 C0.000245448057,74.7709931 0.0159786768,74.5422567 0.047334006,74.3154065 L9.72276327,4.31540651 C10.0646341,1.84203207 12.1787853,-2.20586411e-15 14.6756747,8.8817842e-16 Z" id="Rectangle-5-Copy-3"></path>
                        <path d="M56.6,44.0356445 L58.9999999,44.0356445 L58.9999999,48.2941176 C58.9999999,52.2900908 53.5343306,54.3999999 47,54.3999999 C40.4656694,54.3999999 35.0000001,52.2900908 35.0000001,48.2941176 L35.0000001,44.0356445 L37.4,44.0356445 L37.4,48.2941176 C37.4,50.34082 41.6980664,52 47,52 C52.3019336,52 56.6,50.34082 56.6,48.2941176 L56.6,44.0356445 Z M47,47.4117647 C52.3019336,47.4117647 56.6,45.7525847 56.6,43.7058824 C56.6,42.0713167 53.8586246,40.6839189 50.0538776,40.1914478 C49.0945551,40.067277 48.269469,41.6059644 47.6704102,41.9385986 C46.0567627,42.8345947 44.0727539,43.4213867 42.3074951,43.2720947 C40.0231216,43.0789 38.447412,41.7862685 37.782426,42.6668766 C37.5334853,42.9965365 37.4,43.3451918 37.4,43.7058824 C37.4,45.7525847 41.6980664,47.4117647 47,47.4117647 Z M47,49.8117646 C40.4656694,49.8117646 35.0000001,47.7018555 35.0000001,43.7058824 C35.0000001,41.2591462 37.4894248,43.2026367 41.1652832,43.2026367 C43.3043213,43.2026367 47,42.7061768 48.9206543,41.5080566 C49.9574126,40.8613182 50.2767982,37.7383836 51.7362049,38.0113906 C55.9753714,38.8043991 58.9999999,40.7332794 58.9999999,43.7058824 C58.9999999,47.7018555 53.5343306,49.8117646 47,49.8117646 Z" id="Oval-5-Copy"></path>
                        <path d="M49.6,34.0356445 L51.9999999,34.0356445 L51.9999999,38.2941176 C51.9999999,42.2900908 46.5343306,44.3999999 40,44.3999999 C33.4656694,44.3999999 28.0000001,42.2900908 28.0000001,38.2941176 L28.0000001,34.0356445 L30.4,34.0356445 L30.4,38.2941176 C30.4,40.34082 34.6980664,42 40,42 C45.3019336,42 49.6,40.34082 49.6,38.2941176 L49.6,34.0356445 Z M40,37.4117647 C45.3019336,37.4117647 49.6,35.7525847 49.6,33.7058824 C49.6,31.65918 45.3019336,30 40,30 C34.6980664,30 30.4,31.65918 30.4,33.7058824 C30.4,35.7525847 34.6980664,37.4117647 40,37.4117647 Z M40,39.8117646 C33.4656694,39.8117646 28.0000001,37.7018555 28.0000001,33.7058824 C28.0000001,29.7099092 33.4656694,27.6000001 40,27.6000001 C46.5343306,27.6000001 51.9999999,29.7099092 51.9999999,33.7058824 C51.9999999,37.7018555 46.5343306,39.8117646 40,39.8117646 Z" id="Oval-5"></path>
                    </g>
                </g>
            </g>
        </g>
    </g>
</svg>