<?xml version="1.0" encoding="UTF-8"?>
<svg width="90px" height="80px" viewBox="0 0 90 80" version="1.1" xmlns="http://www.w3.org/2000/svg" xmlns:xlink="http://www.w3.org/1999/xlink">
    <!-- Generator: Sketch 49.1 (51147) - http://www.bohemiancoding.com/sketch -->
    <title>Rectangle 5 Copy 4</title>
    <desc>Created with Sketch.</desc>
    <defs></defs>
    <g id="ui" stroke="none" stroke-width="1" fill="none" fill-rule="evenodd">
        <g id="array_ui_phones" transform="translate(-16.000000, -4191.000000)" fill="#FFFFFF" fill-rule="nonzero">
            <g id="This-Approach-to-Fun" transform="translate(-2.000000, 3766.000000)">
                <g id="2" transform="translate(17.000000, 425.000000)">
                    <path d="M43,29 L43,53 L46,53 L46,29 L43,29 Z M43,26 L46,26 C47.6568542,26 49,27.3431458 49,29 L49,53 C49,54.6568542 47.6568542,56 46,56 L43,56 C41.3431458,56 40,54.6568542 40,53 L40,29 C40,27.3431458 41.3431458,26 43,26 Z M54,36 L54,53 L57,53 L57,36 L54,36 Z M54,33 L57,33 C58.6568542,33 60,34.3431458 60,36 L60,53 C60,54.6568542 58.6568542,56 57,56 L54,56 C52.3431458,56 51,54.6568542 51,53 L51,36 C51,34.3431458 52.3431458,33 54,33 Z M32,43 L32,53 L35,53 L35,43 L32,43 Z M32,40 L35,40 C36.6568542,40 38,41.3431458 38,43 L38,53 C38,54.6568542 36.6568542,56 35,56 L32,56 C30.3431458,56 29,54.6568542 29,53 L29,43 C29,41.3431458 30.3431458,40 32,40 Z M15.6756747,3 C14.6769189,3 13.8312585,3.73681283 13.6945101,4.7261626 L4.01908087,74.7261626 C4.00653874,74.8169027 4.00024545,74.9083972 4.00024545,75 C4.00024545,76.1045695 4.89567595,77 6.00024545,77 L76.3243253,77 C77.3230811,77 78.1687415,76.2631872 78.3054899,75.2738374 L87.9809191,5.2738374 C87.9934613,5.18309732 87.9997546,5.09160277 87.9997546,5 C87.9997546,3.8954305 87.1043241,3 85.9997546,3 L15.6756747,3 Z M15.6756747,8.8817842e-16 L85.9997546,-1.77635684e-15 C88.7611783,5.07428879e-15 90.9997546,2.23857625 90.9997546,5 C90.9997546,5.22900692 90.9840213,5.45774329 90.952666,5.68459349 L81.2772367,75.6845935 C80.9353659,78.1579679 78.8212147,80 76.3243253,80 L6.00024545,80 C3.2388217,80 1.00024545,77.7614237 1.00024545,75 C1.00024545,74.7709931 1.01597868,74.5422567 1.04733401,74.3154065 L10.7227633,4.31540651 C11.0646341,1.84203207 13.1787853,-2.20586411e-15 15.6756747,8.8817842e-16 Z" id="Rectangle-5-Copy-4"></path>
                </g>
            </g>
        </g>
    </g>
</svg>