<?xml version="1.0" encoding="UTF-8"?><svg xmlns="http://www.w3.org/2000/svg" xmlns:xlink="http://www.w3.org/1999/xlink"><symbol viewBox="0 0 90 80" id="icon__bar-chart" xmlns="http://www.w3.org/2000/svg"><path d="M42 29v24h3V29h-3zm0-3h3a3 3 0 0 1 3 3v24a3 3 0 0 1-3 3h-3a3 3 0 0 1-3-3V29a3 3 0 0 1 3-3zm11 10v17h3V36h-3zm0-3h3a3 3 0 0 1 3 3v17a3 3 0 0 1-3 3h-3a3 3 0 0 1-3-3V36a3 3 0 0 1 3-3zM31 43v10h3V43h-3zm0-3h3a3 3 0 0 1 3 3v10a3 3 0 0 1-3 3h-3a3 3 0 0 1-3-3V43a3 3 0 0 1 3-3zM14.676 3a2 2 0 0 0-1.981 1.726l-9.676 70A2 2 0 0 0 5 77h70.324a2 2 0 0 0 1.981-1.726l9.676-70A2 2 0 0 0 85 3H14.676zm0-3H85a5 5 0 0 1 4.953 5.685l-9.676 70A5 5 0 0 1 75.324 80H5a5 5 0 0 1-4.953-5.685l9.676-70A5 5 0 0 1 14.676 0z" fill-rule="nonzero"/></symbol><symbol viewBox="0 0 32 19" id="icon__burger" xmlns="http://www.w3.org/2000/svg"><defs><linearGradient x1="100%" y1="0%" x2="0%" y2="100%" id="ba"><stop stop-color="#00B5FF" offset="0%"/><stop stop-color="#00FFDB" offset="100%"/></linearGradient></defs><path d="M275 21h32v3h-32v-3zm0 8h32v3h-32v-3zm0 8h32v3h-32v-3z" transform="translate(-275 -21)" fill-rule="evenodd"/></symbol><symbol viewBox="0 0 90 80" id="icon__coin" xmlns="http://www.w3.org/2000/svg"><g fill-rule="nonzero"><path d="M14.676 3a2 2 0 0 0-1.981 1.726l-9.676 70A2 2 0 0 0 5 77h70.324a2 2 0 0 0 1.981-1.726l9.676-70A2 2 0 0 0 85 3H14.676zm0-3H85a5 5 0 0 1 4.953 5.685l-9.676 70A5 5 0 0 1 75.324 80H5a5 5 0 0 1-4.953-5.685l9.676-70A5 5 0 0 1 14.676 0z"/><path d="M56.6 44.036H59v4.258c0 3.996-5.466 6.106-12 6.106s-12-2.11-12-6.106v-4.258h2.4v4.258C37.4 50.341 41.698 52 47 52s9.6-1.66 9.6-3.706v-4.258zM47 47.412c5.302 0 9.6-1.66 9.6-3.706 0-1.635-2.741-3.022-6.546-3.515-.96-.124-1.785 1.415-2.384 1.748-1.613.896-3.597 1.482-5.363 1.333-2.284-.193-3.86-1.486-4.525-.605-.249.33-.382.678-.382 1.039 0 2.047 4.298 3.706 9.6 3.706zm0 2.4c-6.534 0-12-2.11-12-6.106 0-2.447 2.49-.503 6.165-.503 2.14 0 5.835-.497 7.756-1.695 1.036-.647 1.356-3.77 2.815-3.497 4.24.793 7.264 2.722 7.264 5.695 0 3.996-5.466 6.106-12 6.106z"/><path d="M49.6 34.036H52v4.258c0 3.996-5.466 6.106-12 6.106s-12-2.11-12-6.106v-4.258h2.4v4.258C30.4 40.341 34.698 42 40 42s9.6-1.66 9.6-3.706v-4.258zM40 37.412c5.302 0 9.6-1.66 9.6-3.706C49.6 31.659 45.302 30 40 30s-9.6 1.66-9.6 3.706c0 2.047 4.298 3.706 9.6 3.706zm0 2.4c-6.534 0-12-2.11-12-6.106S33.466 27.6 40 27.6s12 2.11 12 6.106-5.466 6.106-12 6.106z"/></g></symbol><symbol viewBox="0 0 90 80" id="icon__escolation" xmlns="http://www.w3.org/2000/svg"><path d="M58.379 32.5H53a1.5 1.5 0 0 1 0-3h9a1.5 1.5 0 0 1 1.5 1.5v9a1.5 1.5 0 0 1-3 0v-5.379l-12.69 12.69a1.5 1.5 0 0 1-2.12 0l-6.44-6.44-10.19 10.19a1.5 1.5 0 0 1-2.12-2.122l11.25-11.25a1.5 1.5 0 0 1 2.12 0l6.44 6.44L58.379 32.5zM14.676 3a2 2 0 0 0-1.981 1.726l-9.676 70A2 2 0 0 0 5 77h70.324a2 2 0 0 0 1.981-1.726l9.676-70A2 2 0 0 0 85 3H14.676zm0-3H85a5 5 0 0 1 4.953 5.685l-9.676 70A5 5 0 0 1 75.324 80H5a5 5 0 0 1-4.953-5.685l9.676-70A5 5 0 0 1 14.676 0z" fill-rule="nonzero"/></symbol><symbol viewBox="0 0 32 32" id="icon__fb" xmlns="http://www.w3.org/2000/svg"><path d="M20.155 10.656l-1.506.001c-1.181 0-1.41.561-1.41 1.384v1.816h2.817l-.367 2.845h-2.45V24h-2.937v-7.298h-2.456v-2.845h2.456V11.76c0-2.435 1.487-3.76 3.658-3.76 1.04 0 1.934.077 2.195.112v2.544zM2 32h28a2 2 0 0 0 2-2V2a2 2 0 0 0-2-2H2a2 2 0 0 0-2 2v28a2 2 0 0 0 2 2z" fill-rule="evenodd" opacity=".754"/></symbol><symbol viewBox="0 0 32 32" id="icon__ggl" xmlns="http://www.w3.org/2000/svg"><path d="M24 16.571h-2.286v2.286h-1.142v-2.286h-2.286v-1.143h2.286v-2.286h1.142v2.286H24v1.143zm-8.242-6.963a3.677 3.677 0 0 1 .819 1.304c.089.285.133.618.133.999-.012.698-.171 1.256-.479 1.675-.151.203-.31.39-.479.562-.187.171-.385.346-.596.523a2.739 2.739 0 0 0-.335.41.887.887 0 0 0-.18.552.71.71 0 0 0 .185.504c.105.127.207.238.306.333l.686.543c.426.336.8.707 1.122 1.113.303.413.46.952.473 1.619 0 .945-.433 1.783-1.298 2.512-.898.755-2.193 1.146-3.885 1.171-1.416-.013-2.474-.304-3.172-.874C8.353 22.022 8 21.385 8 20.644c0-.361.115-.763.344-1.206.223-.444.625-.833 1.209-1.169a6.464 6.464 0 0 1 2.064-.722 16.316 16.316 0 0 1 1.778-.171 4.1 4.1 0 0 1-.39-.593 1.32 1.32 0 0 1-.199-.737c0-.172.025-.316.076-.431l.123-.334a6.01 6.01 0 0 1-.649.038c-1.077-.013-1.897-.34-2.462-.981-.591-.596-.886-1.291-.886-2.084 0-.958.419-1.827 1.256-2.608.574-.456 1.172-.755 1.792-.894a8.93 8.93 0 0 1 1.725-.181h4.044l-1.249.703h-1.247c.127.077.27.188.429.334zM2 32h28a2 2 0 0 0 2-2V2a2 2 0 0 0-2-2H2a2 2 0 0 0-2 2v28a2 2 0 0 0 2 2z" fill-rule="evenodd" opacity=".754"/></symbol><symbol viewBox="0 0 32 32" id="icon__git" xmlns="http://www.w3.org/2000/svg"><path d="M18.274 22.385s-1.082.131-2.274.131-2.288-.121-2.288-.121C10.927 22.078 8 21.002 8 16.197c0-1.369.488-2.488 1.29-3.365-.128-.317-.559-1.592.123-3.319 0 0 1.053-.337 3.449 1.286 1-.278 2.073-.418 3.139-.422 1.065.004 2.138.144 3.14.422 2.394-1.623 3.445-1.286 3.445-1.286.684 1.727.254 3.002.125 3.319.803.877 1.289 1.996 1.289 3.365 0 4.817-2.932 5.878-5.726 6.188zM2 32h28a2 2 0 0 0 2-2V2a2 2 0 0 0-2-2H2a2 2 0 0 0-2 2v28a2 2 0 0 0 2 2z" fill-rule="evenodd" opacity=".754"/></symbol><symbol viewBox="0 0 32 32" id="icon__in" xmlns="http://www.w3.org/2000/svg"><path d="M24 23.985h-3.315v-5.188c0-1.237-.022-2.828-1.723-2.828-1.725 0-1.988 1.348-1.988 2.74v5.276h-3.312V13.317h3.178v1.459h.046c.442-.839 1.524-1.724 3.137-1.724 3.357 0 3.977 2.209 3.977 5.082v5.851zM9.924 11.86a1.923 1.923 0 1 1-.003-3.845 1.923 1.923 0 0 1 .003 3.845zm1.658 12.125H8.263V13.317h3.319v10.668zM2 32h28a2 2 0 0 0 2-2V2a2 2 0 0 0-2-2H2a2 2 0 0 0-2 2v28a2 2 0 0 0 2 2z" fill-rule="evenodd" opacity=".754"/></symbol><symbol viewBox="0 0 90 80" id="icon__shield" xmlns="http://www.w3.org/2000/svg"><path d="M44 54s11-5.4 11-13.5V29.7L44 27l-11 2.7v10.8C33 48.6 44 54 44 54zm1.19 2.424a2.7 2.7 0 0 1-2.38 0 25.153 25.153 0 0 1-1.94-1.093 32.172 32.172 0 0 1-4.13-2.995C32.766 48.92 30.3 44.987 30.3 40.5V29.7a2.7 2.7 0 0 1 2.056-2.622l11-2.7a2.7 2.7 0 0 1 1.288 0l11 2.7A2.7 2.7 0 0 1 57.7 29.7v10.8c0 4.487-2.465 8.42-6.44 11.836a32.172 32.172 0 0 1-4.13 2.995c-.85.522-1.524.889-1.94 1.093zM14.676 3a2 2 0 0 0-1.981 1.726l-9.676 70A2 2 0 0 0 5 77h70.324a2 2 0 0 0 1.981-1.726l9.676-70A2 2 0 0 0 85 3H14.676zm0-3H85a5 5 0 0 1 4.953 5.685l-9.676 70A5 5 0 0 1 75.324 80H5a5 5 0 0 1-4.953-5.685l9.676-70A5 5 0 0 1 14.676 0z" fill-rule="nonzero"/></symbol><symbol viewBox="0 0 32 32" id="icon__tw" xmlns="http://www.w3.org/2000/svg"><path d="M22.362 12.737c.006.141.01.282.01.425 0 4.337-3.302 9.339-9.34 9.339A9.294 9.294 0 0 1 8 21.027c.257.03.518.045.783.045a6.584 6.584 0 0 0 4.077-1.405 3.285 3.285 0 0 1-3.067-2.279 3.312 3.312 0 0 0 1.483-.057 3.283 3.283 0 0 1-2.633-3.218v-.042c.442.246.949.394 1.487.411a3.282 3.282 0 0 1-1.016-4.383 9.32 9.32 0 0 0 6.766 3.43 3.283 3.283 0 0 1 5.593-2.994 6.568 6.568 0 0 0 2.085-.796 3.299 3.299 0 0 1-1.443 1.816A6.587 6.587 0 0 0 24 11.038a6.682 6.682 0 0 1-1.638 1.699zM2 32h28a2 2 0 0 0 2-2V2a2 2 0 0 0-2-2H2a2 2 0 0 0-2 2v28a2 2 0 0 0 2 2z" fill-rule="evenodd" opacity=".754"/></symbol></svg>