<?xml version="1.0" encoding="UTF-8"?><svg xmlns="http://www.w3.org/2000/svg" xmlns:xlink="http://www.w3.org/1999/xlink"><symbol viewBox="0 0 32 19" id="icon__burger" xmlns="http://www.w3.org/2000/svg"><defs><linearGradient x1="100%" y1="0%" x2="0%" y2="100%" id="aa"><stop stop-color="#00B5FF" offset="0%"/><stop stop-color="#00FFDB" offset="100%"/></linearGradient></defs><path d="M275 21h32v3h-32v-3zm0 8h32v3h-32v-3zm0 8h32v3h-32v-3z" transform="translate(-275 -21)" fill-rule="evenodd"/></symbol><symbol viewBox="0 0 32 32" id="icon__fb" xmlns="http://www.w3.org/2000/svg"><path d="M20.155 10.656l-1.506.001c-1.181 0-1.41.561-1.41 1.384v1.816h2.817l-.367 2.845h-2.45V24h-2.937v-7.298h-2.456v-2.845h2.456V11.76c0-2.435 1.487-3.76 3.658-3.76 1.04 0 1.934.077 2.195.112v2.544zM2 32h28a2 2 0 0 0 2-2V2a2 2 0 0 0-2-2H2a2 2 0 0 0-2 2v28a2 2 0 0 0 2 2z" fill-rule="evenodd" opacity=".754"/></symbol><symbol viewBox="0 0 32 32" id="icon__ggl" xmlns="http://www.w3.org/2000/svg"><path d="M24 16.571h-2.286v2.286h-1.142v-2.286h-2.286v-1.143h2.286v-2.286h1.142v2.286H24v1.143zm-8.242-6.963a3.677 3.677 0 0 1 .819 1.304c.089.285.133.618.133.999-.012.698-.171 1.256-.479 1.675-.151.203-.31.39-.479.562-.187.171-.385.346-.596.523a2.739 2.739 0 0 0-.335.41.887.887 0 0 0-.18.552.71.71 0 0 0 .185.504c.105.127.207.238.306.333l.686.543c.426.336.8.707 1.122 1.113.303.413.46.952.473 1.619 0 .945-.433 1.783-1.298 2.512-.898.755-2.193 1.146-3.885 1.171-1.416-.013-2.474-.304-3.172-.874C8.353 22.022 8 21.385 8 20.644c0-.361.115-.763.344-1.206.223-.444.625-.833 1.209-1.169a6.464 6.464 0 0 1 2.064-.722 16.316 16.316 0 0 1 1.778-.171 4.1 4.1 0 0 1-.39-.593 1.32 1.32 0 0 1-.199-.737c0-.172.025-.316.076-.431l.123-.334a6.01 6.01 0 0 1-.649.038c-1.077-.013-1.897-.34-2.462-.981-.591-.596-.886-1.291-.886-2.084 0-.958.419-1.827 1.256-2.608.574-.456 1.172-.755 1.792-.894a8.93 8.93 0 0 1 1.725-.181h4.044l-1.249.703h-1.247c.127.077.27.188.429.334zM2 32h28a2 2 0 0 0 2-2V2a2 2 0 0 0-2-2H2a2 2 0 0 0-2 2v28a2 2 0 0 0 2 2z" fill-rule="evenodd" opacity=".754"/></symbol><symbol viewBox="0 0 32 32" id="icon__git" xmlns="http://www.w3.org/2000/svg"><path d="M18.274 22.385s-1.082.131-2.274.131-2.288-.121-2.288-.121C10.927 22.078 8 21.002 8 16.197c0-1.369.488-2.488 1.29-3.365-.128-.317-.559-1.592.123-3.319 0 0 1.053-.337 3.449 1.286 1-.278 2.073-.418 3.139-.422 1.065.004 2.138.144 3.14.422 2.394-1.623 3.445-1.286 3.445-1.286.684 1.727.254 3.002.125 3.319.803.877 1.289 1.996 1.289 3.365 0 4.817-2.932 5.878-5.726 6.188zM2 32h28a2 2 0 0 0 2-2V2a2 2 0 0 0-2-2H2a2 2 0 0 0-2 2v28a2 2 0 0 0 2 2z" fill-rule="evenodd" opacity=".754"/></symbol><symbol viewBox="0 0 32 32" id="icon__in" xmlns="http://www.w3.org/2000/svg"><path d="M24 23.985h-3.315v-5.188c0-1.237-.022-2.828-1.723-2.828-1.725 0-1.988 1.348-1.988 2.74v5.276h-3.312V13.317h3.178v1.459h.046c.442-.839 1.524-1.724 3.137-1.724 3.357 0 3.977 2.209 3.977 5.082v5.851zM9.924 11.86a1.923 1.923 0 1 1-.003-3.845 1.923 1.923 0 0 1 .003 3.845zm1.658 12.125H8.263V13.317h3.319v10.668zM2 32h28a2 2 0 0 0 2-2V2a2 2 0 0 0-2-2H2a2 2 0 0 0-2 2v28a2 2 0 0 0 2 2z" fill-rule="evenodd" opacity=".754"/></symbol><symbol viewBox="0 0 32 32" id="icon__tw" xmlns="http://www.w3.org/2000/svg"><path d="M22.362 12.737c.006.141.01.282.01.425 0 4.337-3.302 9.339-9.34 9.339A9.294 9.294 0 0 1 8 21.027c.257.03.518.045.783.045a6.584 6.584 0 0 0 4.077-1.405 3.285 3.285 0 0 1-3.067-2.279 3.312 3.312 0 0 0 1.483-.057 3.283 3.283 0 0 1-2.633-3.218v-.042c.442.246.949.394 1.487.411a3.282 3.282 0 0 1-1.016-4.383 9.32 9.32 0 0 0 6.766 3.43 3.283 3.283 0 0 1 5.593-2.994 6.568 6.568 0 0 0 2.085-.796 3.299 3.299 0 0 1-1.443 1.816A6.587 6.587 0 0 0 24 11.038a6.682 6.682 0 0 1-1.638 1.699zM2 32h28a2 2 0 0 0 2-2V2a2 2 0 0 0-2-2H2a2 2 0 0 0-2 2v28a2 2 0 0 0 2 2z" fill-rule="evenodd" opacity=".754"/></symbol></svg>