<?xml version="1.0" encoding="UTF-8"?>
<svg width="534px" height="373px" viewBox="0 0 534 373" version="1.1" xmlns="http://www.w3.org/2000/svg" xmlns:xlink="http://www.w3.org/1999/xlink">
    <!-- Generator: sketchtool 50.2 (55047) - http://www.bohemiancoding.com/sketch -->
    <title>C2E94221-720E-4629-81A5-AAD25CE189A1</title>
    <desc>Created with sketchtool.</desc>
    <defs></defs>
    <g id="Symbols" stroke="none" stroke-width="1" fill="none" fill-rule="evenodd">
        <g id="laptop_img" transform="translate(2.000000, 0.000000)">
            <g id="laptop">
                <g id="Layer_2">
                    <rect id="Rectangle-path" fill="#EAEAEB" fill-rule="nonzero" x="147.632024" y="0.0243278689" width="384.319391" height="300.043716" rx="13.3650011"></rect>
                    <path d="M500.691355,44.6213661 L500.691355,342.378262 C500.691355,342.893202 500.671111,343.400033 500.630624,343.902809 L17.6564079,343.902809 C17.6159209,343.400033 17.5956773,342.893202 17.5956773,342.378262 L17.5956773,44.6213661 C17.6356405,34.3758511 25.9203805,26.0807696 36.150898,26.0429836 L482.140183,26.0429836 C492.369119,26.0829908 500.651406,34.3774261 500.691355,44.6213661 Z" id="Shape" stroke="#003CE8" stroke-width="3.24000026" stroke-linecap="round" stroke-linejoin="round"></path>
                    <path d="M517.983379,349.891519 C516.084536,361.763519 508.671355,370.687792 499.918052,370.687792 L18.3730289,370.687792 C9.6035312,370.687792 2.20249619,361.767574 0.307701674,349.891519 C0.0745908335,348.392746 0.507866809,346.866855 1.49357112,345.71518 C2.47927543,344.563505 3.91874038,343.901327 5.43336377,343.902809 L512.853668,343.902809 C514.368998,343.90014 515.80958,344.561809 516.796194,345.713637 C517.782808,346.865466 518.2166,348.392045 517.983379,349.891519 Z" id="Shape" stroke="#003CE8" stroke-width="3.24000026" fill="#EAEAEB" fill-rule="nonzero" stroke-linecap="round" stroke-linejoin="round"></path>
                    <path d="M472.658113,61.6508743 L472.658141,343.902809 L45.6288912,343.902809 L45.6289193,61.6508743 C45.6250895,60.1163914 46.0125027,58.6063343 46.7544597,57.2637486 C48.2236214,54.5336668 51.0628404,52.8235947 54.1595434,52.8036393 L464.12344,52.8036393 C467.219881,52.8282328 470.058128,54.5367854 471.532572,57.2637486 C472.274529,58.6063343 472.661942,60.1163914 472.658113,61.6508743 Z" id="Shape" stroke="#003CE8" stroke-width="3.24000026" fill="#FFFFFF" fill-rule="nonzero" stroke-linecap="round" stroke-linejoin="round"></path>
                    <path d="M45.661309,87.8357705 L472.224901,87.8357705" id="Shape" stroke="#003CE8" stroke-width="3.24000026" stroke-linecap="round" stroke-linejoin="round"></path>
                    <path d="M89.0189041,88.1804153 L89.0189041,343.902809" id="Shape" stroke="#003CE8" stroke-width="3.24000026" stroke-linecap="round" stroke-linejoin="round"></path>
                    <path d="M211.488219,112.60965 L211.488219,184.972896 L104.966758,184.972896 L104.966758,112.60965 C104.966758,108.242979 108.50146,104.703093 112.861735,104.703093 L203.593242,104.703093 C207.953517,104.703093 211.488219,108.242979 211.488219,112.60965 Z" id="Shape" stroke="#003CE8" stroke-width="3.24000026" fill="#00FCDD" fill-rule="nonzero" stroke-linecap="round" stroke-linejoin="round"></path>
                    <path d="M211.488219,184.972896 L211.488219,284.121126 C211.488219,288.487797 207.953517,292.027683 203.593242,292.027683 L112.861735,292.027683 C108.50146,292.027683 104.966758,288.487797 104.966758,284.121126 L104.966758,184.972896 L211.488219,184.972896 Z" id="Shape" stroke="#003CE8" stroke-width="3.24000026" stroke-linecap="round" stroke-linejoin="round"></path>
                    <rect id="Rectangle-path" stroke="#003CE8" stroke-width="3.24000026" fill="#FFFFFF" fill-rule="nonzero" stroke-linecap="round" stroke-linejoin="round" x="224.840852" y="137.140251" width="112.149163" height="88.3912568" rx="4.86000039"></rect>
                    <rect id="Rectangle-path" stroke="#003CE8" stroke-width="3.24000026" fill="#FFFFFF" fill-rule="nonzero" stroke-linecap="round" stroke-linejoin="round" x="344.95382" y="137.140251" width="112.149163" height="88.3912568" rx="4.86000039"></rect>
                    <rect id="Rectangle-path" stroke="#003CE8" stroke-width="3.24000026" fill="#FFFFFF" fill-rule="nonzero" stroke-linecap="round" stroke-linejoin="round" x="224.840852" y="233.596197" width="112.149163" height="88.3912568" rx="4.86000039"></rect>
                    <rect id="Rectangle-path" stroke="#003CE8" stroke-width="3.24000026" fill="#FFFFFF" fill-rule="nonzero" stroke-linecap="round" stroke-linejoin="round" x="344.95382" y="233.596197" width="112.149163" height="88.3912568" rx="4.86000039"></rect>
                    <rect id="Rectangle-path" stroke="#003CE8" stroke-width="3.24000026" fill="#00FCDD" fill-rule="nonzero" stroke-linecap="round" stroke-linejoin="round" x="399.947397" y="110.379596" width="55.6697108" height="13.7857923" rx="6.88500055"></rect>
                    <rect id="Rectangle-path" stroke="#003CE8" stroke-width="3.24000026" stroke-linecap="round" stroke-linejoin="round" x="54.6696804" y="106.730415" width="24.3610654" height="24.3967978" rx="4.86000039"></rect>
                    <rect id="Rectangle-path" stroke="#003CE8" stroke-width="3.24000026" stroke-linecap="round" stroke-linejoin="round" x="54.6696804" y="146.737596" width="24.3610654" height="24.3967978" rx="4.86000039"></rect>
                    <rect id="Rectangle-path" fill="#00FCDD" fill-rule="nonzero" x="57.70621" y="152.953366" width="15.4539117" height="15.4765792" rx="1.99260016"></rect>
                    <rect id="Rectangle-path" fill="#EAEAEB" fill-rule="nonzero" x="60.7427397" y="109.974131" width="15.4539117" height="15.4765792" rx="1.99260016"></rect>
                    <rect id="Rectangle-path" fill="#EAEAEB" fill-rule="nonzero" x="57.70621" y="192.417224" width="15.4539117" height="15.4765792" rx="1.99260016"></rect>
                    <rect id="Rectangle-path" stroke="#003CE8" stroke-width="3.24000026" stroke-linecap="round" stroke-linejoin="round" x="54.6696804" y="186.740721" width="24.3610654" height="24.3967978" rx="4.86000039"></rect>
                    <path d="M225.820639,207.691071 L336.990015,207.691071" id="Shape" stroke="#003CE8" stroke-width="3.24000026" stroke-linecap="round" stroke-linejoin="round"></path>
                    <path d="M225.820639,306.016208 L336.990015,306.016208" id="Shape" stroke="#003CE8" stroke-width="3.24000026" stroke-linecap="round" stroke-linejoin="round"></path>
                    <path d="M457.102983,305.789148 L345.443714,305.789148" id="Shape" stroke="#003CE8" stroke-width="3.24000026" stroke-linecap="round" stroke-linejoin="round"></path>
                    <path d="M104.966758,205.35965 L211.488219,205.35965" id="Shape" stroke="#003CE8" stroke-width="3.24000026" stroke-linecap="round" stroke-linejoin="round"></path>
                    <path d="M115.493394,229.890251 L164.863318,229.890251" id="Shape" stroke="#003CE8" stroke-width="3.24000026" stroke-linecap="round" stroke-linejoin="round" stroke-dasharray="6.885000359416011"></path>
                    <path d="M115.493394,247.236022 L164.863318,247.236022" id="Shape" stroke="#003CE8" stroke-width="3.24000026" stroke-linecap="round" stroke-linejoin="round" stroke-dasharray="6.885000359416011"></path>
                    <path d="M115.493394,264.585847 L164.863318,264.585847" id="Shape" stroke="#003CE8" stroke-width="3.24000026" stroke-linecap="round" stroke-linejoin="round" stroke-dasharray="6.885000359416011"></path>
                    <ellipse id="Oval" stroke="#003CE8" stroke-width="3.24000026" stroke-linecap="round" stroke-linejoin="round" cx="447.248432" cy="70.4616175" rx="5.75726027" ry="5.76570492"></ellipse>
                    <path d="M457.102983,79.633224 L451.382161,74.4716612" id="Shape" stroke="#003CE8" stroke-width="3.24000026" stroke-linecap="round" stroke-linejoin="round"></path>
                    <path d="M300.009132,144.004765 C300.005208,160.960613 291.145278,176.679121 276.651592,185.44366 C262.157905,194.208199 244.142278,194.741723 229.156773,186.850197 L229.156773,145.363071 C229.156773,142.675889 231.331974,140.497497 234.015221,140.497497 L299.887671,140.497497 C299.948402,141.657126 300.009132,142.824863 300.009132,144.004765 Z" id="Shape" fill="#00FCDD" fill-rule="nonzero"></path>
                    <path d="M453.560365,250.577049 L453.560365,302.367027 L400.332024,302.367027 C389.11188,287.281014 390.795419,266.203044 404.267476,253.095036 C417.739533,239.987028 438.826443,238.909863 453.560365,250.577049 Z" id="Shape" fill="#00FCDD" fill-rule="nonzero"></path>
                    <path d="M379.578356,174.240251 L379.578356,204.85282 L353.261766,204.85282 C350.578519,204.85282 348.403318,202.674428 348.403318,199.987246 L348.403318,171.738536 L377.088402,171.738536 C378.464874,171.743004 379.578363,172.861753 379.578356,174.240251 Z" id="Shape" fill="#EAEAEB" fill-rule="nonzero"></path>
                    <path d="M333.827976,239.722765 L333.827976,270.335333 L307.511385,270.335333 C304.828139,270.335333 302.652938,268.156942 302.652938,265.46976 L302.652938,237.221049 L331.338021,237.221049 C332.714494,237.225518 333.827983,238.344266 333.827976,239.722765 Z" id="Shape" fill="#EAEAEB" fill-rule="nonzero"></path>
                    <path d="M345.443714,207.691071 L456.61309,207.691071" id="Shape" stroke="#003CE8" stroke-width="3.24000026" stroke-linecap="round" stroke-linejoin="round"></path>
                    <polygon id="Shape" stroke="#003CE8" stroke-width="3.24000026" fill="#FFFFFF" fill-rule="nonzero" stroke-linecap="round" stroke-linejoin="round" points="75.9861187 78.8547322 60.1070928 78.8547322 60.1070928 68.6613552 68.0466058 63.447082 75.9861187 68.6613552"></polygon>
                    <rect id="Rectangle-path" stroke="#003CE8" stroke-width="3.24000026" fill="#FFFFFF" fill-rule="nonzero" stroke-linecap="round" stroke-linejoin="round" x="107.270472" y="315.139158" width="59.8965601" height="15.8131148" rx="4.86000039"></rect>
                    <path d="M249.683714,349.603639 L503.942466,349.603639" id="Shape" stroke="#003CE8" stroke-width="3.24000026" stroke-linecap="round" stroke-linejoin="round" stroke-dasharray="6.885000359416011"></path>
                    <path d="M12.5631355,350.142907 L205.010289,350.142907" id="Shape" stroke="#003CE8" stroke-width="3.24000026" stroke-linecap="round" stroke-linejoin="round" stroke-dasharray="6.885000359416011"></path>
                    <path d="M239.49312,157.07694 L319.38624,157.07694" id="Shape" stroke="#FFFFFF" stroke-width="3.24000026" fill="#FFFFFF" fill-rule="nonzero" stroke-linecap="round" stroke-linejoin="round"></path>
                    <path d="M241.460791,169.171945 L321.353912,169.171945" id="Shape" stroke="#FFFFFF" stroke-width="3.24000026" fill="#FFFFFF" fill-rule="nonzero" stroke-linecap="round" stroke-linejoin="round"></path>
                    <path d="M393.635464,251.436634 L443.147093,276.19835" id="Shape" stroke="#FFFFFF" stroke-width="3.24000026" fill="#FFFFFF" fill-rule="nonzero" stroke-linecap="round" stroke-linejoin="round"></path>
                    <path d="M373.3393,259.387792 L422.850928,284.149508" id="Shape" stroke="#FFFFFF" stroke-width="3.24000026" fill="#FFFFFF" fill-rule="nonzero" stroke-linecap="round" stroke-linejoin="round"></path>
                </g>
                <g id="Layer_3" transform="translate(46.560122, 52.710383)" fill-rule="nonzero" stroke="#003CE8" stroke-linecap="round" stroke-linejoin="round" stroke-width="3.24000026">
                    <ellipse id="Oval" fill="#FFFFFF" cx="112.084384" cy="81.2672459" rx="15.4336682" ry="15.456306"></ellipse>
                    <path d="M139.97997,132.157093 L83.9175342,132.157093 C82.5486182,132.161289 81.2520198,131.542078 80.3935992,130.474182 C79.5351787,129.406287 79.2080227,128.005508 79.5044444,126.667104 C83.3628615,109.771399 96.4320852,97.3358033 111.950776,97.3358033 C127.469467,97.3358033 140.538691,109.771399 144.397108,126.667104 C144.69207,128.006004 144.363801,129.406601 143.504797,130.474243 C142.645793,131.541885 141.349055,132.160983 139.97997,132.157093 Z" id="Shape" fill="#FFFFFF"></path>
                    <path d="M424.972451,4.55336612 L0.1943379,4.55336612 C1.66349965,1.82328424 4.50271862,0.113212164 7.59942161,0.0932568306 L417.563318,0.0932568306 C420.659759,0.117850304 423.498006,1.82640292 424.972451,4.55336612 Z" id="Shape" fill="#003CE8"></path>
                </g>
            </g>
        </g>
    </g>
</svg>