<?xml version="1.0" encoding="UTF-8"?>
<svg width="175px" height="151px" viewBox="0 0 175 151" version="1.1" xmlns="http://www.w3.org/2000/svg" xmlns:xlink="http://www.w3.org/1999/xlink">
    <!-- Generator: sketchtool 50.2 (55047) - http://www.bohemiancoding.com/sketch -->
    <title>2C11515D-A45A-49B3-8C8D-3CDC6F78838D</title>
    <desc>Created with sketchtool.</desc>
    <defs></defs>
    <g id="Symbols" stroke="none" stroke-width="1" fill="none" fill-rule="evenodd">
        <g id="img_6" transform="translate(1.000000, 0.000000)">
            <g id="6">
                <ellipse id="Oval" fill="#EAEAEB" fill-rule="nonzero" cx="84.6102075" cy="95.1809135" rx="44.5829876" ry="44.234375"></ellipse>
                <path d="M84.7907054,148.727788 C114.497208,148.727788 138.579087,124.834216 138.579087,95.36 C138.579087,65.8857843 114.497208,41.9922115 84.7907054,41.9922115 C55.0842024,41.9922115 31.0023237,65.8857843 31.0023237,95.36 C31.0023237,124.834216 55.0842024,148.727788 84.7907054,148.727788 Z" id="Oval" stroke="#EAEAEB" stroke-width="2.87999997" stroke-linecap="round" stroke-linejoin="round" stroke-dasharray="6.120000009536739"></path>
                <path d="M85.4946473,36.5837981 C85.3319252,36.2730088 85.0083148,36.0779852 84.655332,36.0779852 C84.3023491,36.0779852 83.9787387,36.2730088 83.8160166,36.5837981 L79.260249,45.3697837 C79.1231977,45.6389281 79.1231977,45.9566729 79.260249,46.2258173 L83.8160166,55.0118029 C83.9787387,55.3225922 84.3023491,55.5176158 84.655332,55.5176158 C85.0083148,55.5176158 85.3319252,55.3225922 85.4946473,55.0118029 L90.0540249,46.2258173 C90.1910761,45.9566729 90.1910761,45.6389281 90.0540249,45.3697837 L85.4946473,36.5837981 Z" id="Shape" stroke="#003CE8" stroke-width="2.87999997" fill="#00FCDD" fill-rule="nonzero"></path>
                <path d="M40.9333195,114.307356 C40.7705974,113.996566 40.446987,113.801543 40.0940041,113.801543 C39.7410213,113.801543 39.4174109,113.996566 39.2546888,114.307356 L34.6989212,123.093341 C34.5582971,123.36163 34.5582971,123.681086 34.6989212,123.949375 L39.2546888,132.735361 C39.4174109,133.04615 39.7410213,133.241173 40.0940041,133.241173 C40.446987,133.241173 40.7705974,133.04615 40.9333195,132.735361 L45.4854772,123.949375 C45.6261012,123.681086 45.6261012,123.36163 45.4854772,123.093341 L40.9333195,114.307356 Z" id="Shape" stroke="#003CE8" stroke-width="2.87999997" fill="#00FCDD" fill-rule="nonzero"></path>
                <path d="M134.485394,114.307356 C134.322672,113.996566 133.999062,113.801543 133.646079,113.801543 C133.293096,113.801543 132.969486,113.996566 132.806763,114.307356 L128.250996,123.093341 C128.110372,123.36163 128.110372,123.681086 128.250996,123.949375 L132.806763,132.735361 C132.969486,133.04615 133.293096,133.241173 133.646079,133.241173 C133.999062,133.241173 134.322672,133.04615 134.485394,132.735361 L139.041162,123.949375 C139.181786,123.681086 139.181786,123.36163 139.041162,123.093341 L134.485394,114.307356 Z" id="Shape" stroke="#003CE8" stroke-width="2.87999997" fill="#00FCDD" fill-rule="nonzero"></path>
                <ellipse id="Oval" fill="#00FCDD" fill-rule="nonzero" cx="45.9836515" cy="53.6328365" rx="8.12240664" ry="8.05889423"></ellipse>
                <ellipse id="Oval" fill="#EAEAEB" fill-rule="nonzero" cx="137.857095" cy="84.2566346" rx="5.05394191" ry="5.01442308"></ellipse>
                <ellipse id="Oval" stroke="#003CE8" stroke-width="2.87999997" fill="#00FCDD" fill-rule="nonzero" stroke-linecap="round" stroke-linejoin="round" cx="84.7907054" cy="95.36" rx="26.3526971" ry="26.1466346"></ellipse>
                <ellipse id="Oval" stroke="#003CE8" stroke-width="2.87999997" fill="#00FCDD" fill-rule="nonzero" stroke-linecap="round" stroke-linejoin="round" cx="84.7907054" cy="95.36" rx="26.3526971" ry="26.1466346"></ellipse>
                <path d="M84.6390871,90.1163462 C85.265793,90.1177956 85.8316021,89.7443445 86.0724449,89.1702867 C86.3132878,88.5962289 86.1816825,87.9347394 85.7390508,87.4945426 C85.296419,87.0543458 84.6300252,86.9222263 84.0508827,87.1598456 C83.4717403,87.3974648 83.0940266,87.9579766 83.0940249,88.5797837 C83.0940226,89.4270069 83.7851892,90.1143713 84.6390871,90.1163462 Z" id="Shape" fill="#003CE8" fill-rule="nonzero"></path>
                <path d="M78.8053942,86.6313221 C79.5809532,86.6313221 80.209668,86.0075235 80.209668,85.2380288 C80.209668,84.4685342 79.5809532,83.8447356 78.8053942,83.8447356 C78.0298352,83.8447356 77.4011203,84.4685342 77.4011203,85.2380288 C77.4011203,85.6075532 77.5490702,85.9619428 77.8124226,86.223236 C78.0757751,86.4845291 78.4329576,86.6313221 78.8053942,86.6313221 Z" id="Shape" fill="#003CE8" fill-rule="nonzero"></path>
                <path d="M90.48,86.6313221 C91.255559,86.6313221 91.8842739,86.0075235 91.8842739,85.2380288 C91.8842739,84.4685342 91.255559,83.8447356 90.48,83.8447356 C89.704441,83.8447356 89.0757261,84.4685342 89.0757261,85.2380288 C89.0757261,86.0075235 89.704441,86.6313221 90.48,86.6313221 Z" id="Shape" fill="#003CE8" fill-rule="nonzero"></path>
                <ellipse id="Oval" fill="#003CE8" fill-rule="nonzero" cx="84.6463071" cy="81.896274" rx="1.27070539" ry="1.26076923"></ellipse>
                <path d="M79.6248548,90.4601923 L79.5887552,90.4387019 C78.5991574,89.8959158 77.3535437,90.2470998 76.7994949,91.2250962 C76.245446,92.2030925 76.5905794,93.441419 77.5723403,93.9980385 C78.5541012,94.5546581 79.8045967,94.2209898 80.3725323,93.2508667 C80.9404678,92.2807435 80.6130223,91.0376973 79.6392946,90.4673558 L79.6248548,90.4601923 Z" id="Shape" fill="#003CE8" fill-rule="nonzero"></path>
                <path d="M78.0653527,97.3012981 C77.5231356,97.6127223 77.223448,98.2176051 77.3060841,98.8337887 C77.3887202,99.4499723 77.8373991,99.9560554 78.4428268,100.115967 C79.0482545,100.275879 79.691149,100.058113 80.0716212,99.56425 C80.4520935,99.0703872 80.4951824,98.397729 80.1807884,97.8600481 C79.976177,97.5063067 79.6376349,97.2483063 79.2403993,97.1433844 C78.8431637,97.0384626 78.4201444,97.0953118 78.0653527,97.3012981 Z" id="Shape" fill="#003CE8" fill-rule="nonzero"></path>
                <ellipse id="Oval" fill="#003CE8" fill-rule="nonzero" transform="translate(78.841712, 105.314330) rotate(-36.190000) translate(-78.841712, -105.314330) " cx="78.841712" cy="105.31433" rx="1.40427386" ry="1.39329327"></ellipse>
                <path d="M73.603444,87.1936538 C73.4023998,87.1044298 73.1847207,87.0580619 72.9644813,87.0575481 C72.1428756,87.0525153 71.4504841,87.6647079 71.3612463,88.4750822 C71.2720086,89.2854565 71.8148267,90.0315505 72.6181436,90.2026655 C73.4214606,90.3737804 74.2250999,89.9144961 74.4789735,89.1391909 C74.732847,88.3638857 74.3547308,87.5236637 73.603444,87.1936538 Z" id="Shape" fill="#003CE8" fill-rule="nonzero"></path>
                <path d="M72.300249,94.0741587 C71.8078158,94.3551706 71.5345285,94.9028668 71.6078577,95.461783 C71.681187,96.0206992 72.0866865,96.4807266 72.6352174,96.6272927 C73.1837484,96.7738587 73.767248,96.5780893 74.1135519,96.131298 C74.4598559,95.6845067 74.500741,95.0747132 74.2171369,94.5863462 C73.8288517,93.9216554 72.9724514,93.6928274 72.300249,94.0741587 Z" id="Shape" fill="#003CE8" fill-rule="nonzero"></path>
                <path d="M72.3688382,100.875865 C71.9228435,101.129995 71.6752236,101.625806 71.741579,102.131829 C71.8079344,102.637853 72.1751785,103.054292 72.6718645,103.186733 C73.1685506,103.319173 73.6967218,103.141496 74.0098032,102.736648 C74.3228845,102.331801 74.3591299,101.779627 74.1016183,101.337909 C73.751005,100.73649 72.9760793,100.529857 72.3688382,100.875865 Z" id="Shape" fill="#003CE8" fill-rule="nonzero"></path>
                <path d="M85.5993361,93.6586779 C84.8697769,93.228575 83.9404624,93.3353835 83.3293235,93.9195762 C82.7181846,94.5037689 82.5760142,95.4212016 82.9820476,96.1605654 C83.3880811,96.8999291 84.2421332,97.2787928 85.0682188,97.0860058 C85.8943044,96.8932188 86.4885943,96.1763496 86.5198755,95.3349279 C86.5559435,94.6487019 86.2000552,94.0006496 85.5993361,93.6586779 Z" id="Shape" fill="#003CE8" fill-rule="nonzero"></path>
                <path d="M91.3572199,90.4458654 C90.7385825,90.0859399 89.9591924,90.1479121 89.4062234,90.6009963 C88.8532544,91.0540806 88.6445601,91.8017116 88.8838127,92.4724922 C89.1230652,93.1432729 89.759273,93.5942406 90.47639,93.6013702 C90.7950971,93.6016049 91.1071401,93.5108377 91.3752697,93.3399038 L91.4149793,93.3184135 C91.9161098,93.0053082 92.2143926,92.4538249 92.2003315,91.8664068 C92.1862703,91.2789886 91.8619368,90.7421769 91.34639,90.4530288 L91.3572199,90.4458654 Z" id="Shape" fill="#003CE8" fill-rule="nonzero"></path>
                <path d="M97.1078838,87.2366346 C96.5691563,86.927364 95.8956602,86.9707771 95.4017926,87.346608 C94.907925,87.7224389 94.6910781,88.3565726 94.852479,88.952987 C95.0138799,89.5494014 95.5216998,89.9904818 96.1388815,90.0703258 C96.7560632,90.1501697 97.3608966,89.8530319 97.6710373,89.3176202 C97.874861,88.9676543 97.9300344,88.5516276 97.8243936,88.1612599 C97.7187529,87.7708922 97.4609723,87.4382374 97.1078838,87.2366346 Z" id="Shape" fill="#003CE8" fill-rule="nonzero"></path>
                <path d="M85.519917,100.478293 C84.7114402,100.016561 83.6787888,100.292347 83.2131535,101.094351 C83.0520134,101.367358 82.9742583,101.680924 82.9893361,101.996947 L82.9893361,102.054255 C83.0482664,102.850544 83.6650898,103.495072 84.4635305,103.594662 C85.2619712,103.694252 86.0203897,103.221259 86.276134,102.46422 C86.5318782,101.707181 86.2139561,100.876241 85.5163071,100.478293 L85.519917,100.478293 Z" id="Shape" fill="#003CE8" fill-rule="nonzero"></path>
                <path d="M91.2850207,97.2583173 C90.7425728,96.9475269 90.0648451,96.9915551 89.567873,97.3698709 C89.0709008,97.7481867 88.8525592,98.3862838 89.0146642,98.9866071 C89.1767692,99.5869304 89.6873957,100.031251 90.3084301,100.112375 C90.9294645,100.193499 91.538599,99.8954491 91.8517842,99.3572115 C92.2772618,98.6220512 92.0239473,97.6839521 91.2850207,97.2583173 Z" id="Shape" fill="#003CE8" fill-rule="nonzero"></path>
                <path d="M97.0465145,94.0383413 C96.5542986,93.7569549 95.9396993,93.7975203 95.4893868,94.1411164 C95.0390744,94.4847124 94.8417621,95.0636494 94.9894833,95.6078912 C95.1372044,96.1521329 95.6008573,96.5544617 96.1641783,96.6272175 C96.7274993,96.6999733 97.279512,96.428823 97.5627386,95.9402404 C97.9492023,95.2735676 97.7181449,94.4222941 97.0465145,94.0383413 Z" id="Shape" fill="#003CE8" fill-rule="nonzero"></path>
                <path d="M85.4404979,107.30149 C84.9364666,107.011423 84.3103276,107.029678 83.8243328,107.34861 C83.338338,107.667542 83.0763789,108.232097 83.1481743,108.805817 C83.1700901,109.022711 83.2377367,109.232606 83.346722,109.421875 C83.682946,109.963585 84.3220457,110.242211 84.9516099,110.121552 C85.5811741,110.000893 86.0697083,109.50615 86.1784022,108.879169 C86.2870961,108.252188 85.9932472,107.623923 85.4404979,107.30149 Z" id="Shape" fill="#003CE8" fill-rule="nonzero"></path>
                <ellipse id="Oval" fill="#003CE8" fill-rule="nonzero" transform="translate(90.509335, 105.275113) rotate(-53.810000) translate(-90.509335, -105.275113) " cx="90.5093346" cy="105.275113" rx="1.40427386" ry="1.39329327"></ellipse>
                <ellipse id="Oval" fill="#003CE8" fill-rule="nonzero" transform="translate(96.349106, 101.929352) rotate(-2.020000) translate(-96.349106, -101.929352) " cx="96.3491059" cy="101.929352" rx="1.27070539" ry="1.26076923"></ellipse>
                <path d="M102.728589,32.6797115 L75.8452282,32.6797115 C75.1891293,32.680593 74.5679895,32.3863603 74.1561626,31.8796045 C73.7443356,31.3728486 73.5862141,30.7081949 73.7261826,30.0722115 C75.5780913,22.0455529 81.8449793,16.1356971 89.2851037,16.1356971 C96.7252282,16.1356971 103.002946,22.0455529 104.847635,30.0722115 C104.987603,30.7081949 104.829482,31.3728486 104.417655,31.8796045 C104.005828,32.3863603 103.384688,32.680593 102.728589,32.6797115 Z" id="Shape" fill="#EAEAEB" fill-rule="nonzero"></path>
                <ellipse id="Oval" fill="#EAEAEB" fill-rule="nonzero" cx="88.5811618" cy="7.42850962" rx="7.40041494" ry="7.34254808"></ellipse>
                <ellipse id="Oval" stroke="#003CE8" stroke-width="2.87999997" stroke-linecap="round" stroke-linejoin="round" cx="84.9712033" cy="8.86120192" rx="7.40041494" ry="7.34254808"></ellipse>
                <path d="M98.3497095,33.0378846 L71.4771784,33.0378846 C70.8223155,33.0410843 70.201152,32.7501479 69.7874566,32.2464641 C69.3737612,31.7427803 69.211955,31.0804328 69.3473029,30.4447115 C71.1992116,22.4180529 77.4660996,16.5081971 84.9062241,16.5081971 C92.3463485,16.5081971 98.6240664,22.4180529 100.468755,30.4447115 C100.603702,31.0785869 100.443234,31.7390376 100.032005,32.2422772 C99.6207759,32.7455168 99.0026772,33.037834 98.3497095,33.0378846 Z" id="Shape" stroke="#003CE8" stroke-width="2.87999997" stroke-linecap="round" stroke-linejoin="round"></path>
                <path d="M33.7783817,146.220577 L6.89502075,146.220577 C6.24205314,146.220526 5.62395438,145.928209 5.21272552,145.42497 C4.80149666,144.92173 4.64102846,144.261279 4.7759751,143.627404 C6.62788382,135.600745 12.8947718,129.690889 20.3348963,129.690889 C27.7750207,129.690889 34.0527386,135.600745 35.8974274,143.627404 C36.032374,144.261279 35.8719058,144.92173 35.460677,145.42497 C35.0494481,145.928209 34.4313494,146.220526 33.7783817,146.220577 Z" id="Shape" fill="#EAEAEB" fill-rule="nonzero"></path>
                <ellipse id="Oval" fill="#EAEAEB" fill-rule="nonzero" cx="19.6309544" cy="120.611202" rx="7.40041494" ry="7.34254808"></ellipse>
                <ellipse id="Oval" stroke="#003CE8" stroke-width="2.87999997" stroke-linecap="round" stroke-linejoin="round" cx="16.0209959" cy="122.402067" rx="7.40041494" ry="7.34254808"></ellipse>
                <path d="M29.3995021,146.220577 L2.52697095,146.220577 C1.87210808,146.223777 1.25094449,145.93284 0.837249094,145.429156 C0.4235537,144.925473 0.261747527,144.263125 0.397095436,143.627404 C2.24900415,135.600745 8.51589212,129.690889 15.9560166,129.690889 C23.3961411,129.690889 29.6738589,135.600745 31.5185477,143.627404 C31.6534944,144.261279 31.4930262,144.92173 31.0817973,145.42497 C30.6705684,145.928209 30.0524697,146.220526 29.3995021,146.220577 Z" id="Shape" stroke="#003CE8" stroke-width="2.87999997" stroke-linecap="round" stroke-linejoin="round"></path>
                <path d="M171.664357,146.220577 L144.777386,146.220577 C144.12192,146.220373 143.501803,145.925681 143.090799,145.419074 C142.679794,144.912467 142.522117,144.248447 142.66195,143.613077 C144.513859,135.586418 150.777137,129.676562 158.220871,129.676562 C165.664606,129.676562 171.938714,135.586418 173.779793,143.613077 C173.919625,144.248447 173.761948,144.912467 173.350944,145.419074 C172.93994,145.925681 172.319823,146.220373 171.664357,146.220577 Z" id="Shape" fill="#EAEAEB" fill-rule="nonzero"></path>
                <ellipse id="Oval" fill="#EAEAEB" fill-rule="nonzero" cx="157.531369" cy="120.611202" rx="7.40041494" ry="7.34254808"></ellipse>
                <ellipse id="Oval" stroke="#003CE8" stroke-width="2.87999997" stroke-linecap="round" stroke-linejoin="round" cx="153.921411" cy="122.402067" rx="7.40041494" ry="7.34254808"></ellipse>
                <path d="M167.285477,146.220577 L140.398506,146.220577 C139.74304,146.220373 139.122923,145.925681 138.711919,145.419074 C138.300915,144.912467 138.143238,144.248447 138.283071,143.613077 C140.134979,135.586418 146.398257,129.676562 153.841992,129.676562 C161.285726,129.676562 167.559834,135.586418 169.400913,143.613077 C169.540746,144.248447 169.383069,144.912467 168.972064,145.419074 C168.56106,145.925681 167.940944,146.220373 167.285477,146.220577 Z" id="Shape" stroke="#003CE8" stroke-width="2.87999997" stroke-linecap="round" stroke-linejoin="round"></path>
                <path d="M91.5377178,63.8407692 L85.0650622,60.1730769 C84.8086329,60.044156 84.505641,60.044156 84.2492116,60.1730769 L77.776556,63.830024 L91.5377178,63.8407692 Z" id="Shape" stroke="#003CE8" stroke-width="2.87999997" fill="#003CE8" fill-rule="nonzero" stroke-linecap="round" stroke-linejoin="round"></path>
                <path d="M61.2104564,116.366851 L54.3695851,113.436995 C54.1215515,113.298763 53.94342,113.063544 53.8786307,112.788702 L52.9364315,105.456899 L61.2104564,116.366851 Z" id="Shape" stroke="#003CE8" stroke-width="2.87999997" fill="#003CE8" fill-rule="nonzero" stroke-linecap="round" stroke-linejoin="round"></path>
                <path d="M117.038465,105.33512 L116.367012,112.699159 C116.315815,112.977514 116.144318,113.21966 115.897718,113.361779 L109.172365,116.542356 L117.038465,105.33512 Z" id="Shape" stroke="#003CE8" stroke-width="2.87999997" fill="#003CE8" fill-rule="nonzero" stroke-linecap="round" stroke-linejoin="round"></path>
                <path d="M84.6751867,72.9240385 C96.8369094,72.9240385 106.695934,82.7059709 106.695934,94.7725962" id="Shape" stroke="#FFFFFF" stroke-width="2.87999997" stroke-linecap="round" stroke-linejoin="round"></path>
            </g>
        </g>
    </g>
</svg>