<?xml version="1.0" encoding="UTF-8"?>
<svg width="156px" height="163px" viewBox="0 0 156 163" version="1.1" xmlns="http://www.w3.org/2000/svg" xmlns:xlink="http://www.w3.org/1999/xlink">
    <!-- Generator: sketchtool 50.2 (55047) - http://www.bohemiancoding.com/sketch -->
    <title>0018E871-773D-45C7-B5B8-7F69D76C7603</title>
    <desc>Created with sketchtool.</desc>
    <defs></defs>
    <g id="Symbols" stroke="none" stroke-width="1" fill="none" fill-rule="evenodd">
        <g id="img_3" transform="translate(0.000000, 2.000000)">
            <g id="3">
                <rect id="Rectangle-path" fill="#00FCDD" fill-rule="nonzero" x="78.8574596" y="73.2315884" width="28.8221709" height="76.3579418" rx="3.55679996"></rect>
                <rect id="Rectangle-path" fill="#EAEAEB" fill-rule="nonzero" x="39.5872517" y="53.7819239" width="29.5427252" height="94.3668904" rx="3.55679996"></rect>
                <rect id="Rectangle-path" fill="#EAEAEB" fill-rule="nonzero" x="0.31704388" y="31.8110067" width="29.5427252" height="115.977629" rx="3.55679996"></rect>
                <ellipse id="Oval" fill="#00FCDD" fill-rule="nonzero" cx="147.850531" cy="114.83226" rx="8.10623557" ry="8.10402685"></ellipse>
                <path d="M104.743372,1.28223714 C104.414138,0.646094582 103.757507,0.24663052 103.041062,0.24663052 C102.324618,0.24663052 101.667987,0.646094582 101.338753,1.28223714 L92.0904388,19.2479642 C91.8094567,19.7976455 91.8094567,20.4487527 92.0904388,20.998434 L101.338753,38.9641611 C101.667987,39.6003036 102.324618,39.9997677 103.041062,39.9997677 C103.757507,39.9997677 104.414138,39.6003036 104.743372,38.9641611 L113.991686,20.998434 C114.276262,20.449623 114.276262,19.7967752 113.991686,19.2479642 L104.743372,1.28223714 Z" id="Shape" fill="#00FCDD" fill-rule="nonzero"></path>
                <path d="M98.9284988,1.28223714 C98.599265,0.646094582 97.942634,0.24663052 97.2261894,0.24663052 C96.5097448,0.24663052 95.8531137,0.646094582 95.5238799,1.28223714 L86.2791686,19.2479642 C85.9945929,19.7967752 85.9945929,20.449623 86.2791686,20.998434 L95.5238799,38.9641611 C95.8531137,39.6003036 96.5097448,39.9997677 97.2261894,39.9997677 C97.942634,39.9997677 98.599265,39.6003036 98.9284988,38.9641611 L108.176813,20.998434 C108.461389,20.449623 108.461389,19.7967752 108.176813,19.2479642 L98.9284988,1.28223714 Z" id="Shape" stroke="#003CE8" stroke-width="2.87999997" stroke-linecap="round" stroke-linejoin="round"></path>
                <rect id="Rectangle-path" fill="#003CE8" fill-rule="nonzero" x="6.4417552" y="155.712573" width="144.110855" height="5.04250559" rx="2.15999997"></rect>
                <path d="M98.7987991,63.7120582 L114.568129,51.1454139 C115.289026,50.5735164 115.568698,49.608022 115.26504,48.7395071 C114.961383,47.8709922 114.140983,47.2899041 113.220693,47.2914989 L81.6748268,47.2914989 C80.75718,47.2960125 79.9423911,47.8792582 79.6424939,48.7462921 C79.3425967,49.613326 79.6229583,50.5751654 80.3418014,51.1454139 L96.1183372,63.7048546 C96.9023123,64.327624 98.0114862,64.3306048 98.7987991,63.7120582 Z" id="Shape" fill="#003CE8" fill-rule="nonzero"></path>
                <rect id="Rectangle-path" stroke="#003CE8" stroke-width="2.87999997" x="6.4417552" y="32.5313647" width="29.5427252" height="115.977629" rx="3.55679996"></rect>
                <rect id="Rectangle-path" stroke="#003CE8" stroke-width="2.87999997" x="44.6311316" y="54.1421029" width="29.5427252" height="94.3668904" rx="3.55679996"></rect>
                <rect id="Rectangle-path" stroke="#003CE8" stroke-width="2.87999997" x="82.8205081" y="72.1510515" width="29.5427252" height="76.3579418" rx="3.55679996"></rect>
                <path d="M124.566684,84.7573154 L146.99581,84.7573154 C148.960176,84.7573154 150.55261,86.349749 150.55261,88.3141154 L150.55261,144.952193 C150.55261,146.91656 148.960176,148.508993 146.99581,148.508993 L124.566684,148.508993 C122.602318,148.508993 121.009885,146.91656 121.009885,144.952193 L121.009885,88.3141154 C121.009885,86.349749 122.602318,84.7573154 124.566684,84.7573154 Z" id="Rectangle-path" stroke="#003CE8" stroke-width="2.87999997" stroke-linecap="round" stroke-linejoin="round" stroke-dasharray="6.962399870491026"></path>
            </g>
        </g>
    </g>
</svg>