<?xml version="1.0" encoding="UTF-8"?>
<svg width="137px" height="159px" viewBox="0 0 137 159" version="1.1" xmlns="http://www.w3.org/2000/svg" xmlns:xlink="http://www.w3.org/1999/xlink">
    <!-- Generator: sketchtool 50.2 (55047) - http://www.bohemiancoding.com/sketch -->
    <title>71DF8800-4BFF-4357-8C7A-D269B1D7661C</title>
    <desc>Created with sketchtool.</desc>
    <defs></defs>
    <g id="Symbols" stroke="none" stroke-width="1" fill="none" fill-rule="evenodd">
        <g id="img_2" transform="translate(2.000000, 2.000000)">
            <g id="2">
                <path d="M125.431903,113.278207 L131.488847,113.480322 C132.431545,113.518929 133.270413,114.092586 133.651897,114.959515 C134.033381,115.826444 133.891129,116.835857 133.285094,117.562322 C122.403432,130.595126 111.730134,142.664276 102.059142,149.767172 C98.6461321,152.263204 94.5538503,153.648755 90.333244,153.737287 C77.7846649,154.018805 63.6949062,151.326345 48.8147989,147.125241 L48.4555496,147.027793 C42.8197882,145.677416 36.9605268,148.134378 33.9526542,153.109287 C32.5584689,155.384955 30.0884976,156.770525 27.4286863,156.769011 L2.54348525,156.769011 C1.70293632,156.768949 0.920559637,156.337873 0.468677581,155.625829 C0.0167955245,154.913785 -0.0420788433,154.019276 0.312546917,153.253655 C9.62428954,133.211793 19.4605362,110.953885 48.3549598,111.834529 L73.9730295,112.300115 L92.5210724,112.639379 C93.6767463,112.655167 94.7429808,113.267388 95.3430914,114.259753 C95.9432021,115.252119 95.9927013,116.484918 95.4741019,117.522621 L95.4741019,117.547885 C94.9767746,118.555363 94.0522282,119.282515 92.9593566,119.525724 L72.2737802,124.102184 C71.9126928,124.182408 71.657397,124.506465 71.6626174,124.877959 C71.6678377,125.249453 71.9321374,125.566141 72.2953351,125.636092 L90.049437,129.072046 C92.9849334,129.63938 96.0187855,128.850887 98.3121716,126.924575 L108.974692,117.977379 C112.861277,114.721212 117.80558,113.01748 122.863271,113.191586 L125.446273,113.278207" id="Shape" fill="#00FCDD" fill-rule="nonzero"></path>
                <ellipse id="Oval" fill="#EAEAEB" fill-rule="nonzero" cx="111.17689" cy="69.2315862" rx="7.00536193" ry="7.03793103"></ellipse>
                <ellipse id="Oval" fill="#00FCDD" fill-rule="nonzero" cx="36.6326542" cy="18.5223908" rx="5.38873995" ry="5.4137931"></ellipse>
                <path d="M101.516676,44.6385287 C101.520541,48.375343 100.827194,52.0797781 99.4725469,55.559954 C99.3971046,55.7584598 99.3180697,55.9533563 99.2354424,56.1482529 C96.3516533,63.0771664 90.9889963,68.6694939 84.2044504,71.8229885 C83.3901519,72.2031571 82.5519035,72.5448276 81.6897051,72.848 C78.4785159,73.9986825 75.0939458,74.5847316 71.6846113,74.5804138 C71.03437,74.5804138 70.3877212,74.5587586 69.7482574,74.5190575 C68.3197404,74.0358575 66.9301696,73.443419 65.5917426,72.7469425 C53.2669269,66.3551462 46.9565602,52.2695729 50.366756,38.7627586 C50.3765584,38.7125863 50.3897617,38.6631455 50.4062735,38.6147816 C50.6838085,37.5313318 51.0232631,36.4648511 51.4229491,35.4206437 C55.8451827,23.8268507 66.9278913,16.1752949 79.2863271,16.1836322 C79.9401609,16.1836322 80.5904021,16.2052874 81.2334584,16.2485977 C84.0290791,17.1951817 86.6686309,18.5551536 89.0650938,20.2836782 C89.4243432,20.5327126 89.7512601,20.7889655 90.0853619,21.056046 C96.143994,25.8153739 100.134811,32.7451191 101.222091,40.3941149 C101.293941,40.8994023 101.351421,41.4082989 101.398123,41.9208046 C101.479553,42.8158851 101.519071,43.7217931 101.516676,44.6385287 Z" id="Shape" fill="#EAEAEB" fill-rule="nonzero"></path>
                <path d="M101.516676,44.6385287 C101.520541,48.375343 100.827194,52.0797781 99.4725469,55.559954 C99.3971046,55.7584598 99.3180697,55.9533563 99.2354424,56.1482529 C96.3516533,63.0771664 90.9889963,68.6694939 84.2044504,71.8229885 C83.3901519,72.2031571 82.5519035,72.5448276 81.6897051,72.848 C78.4785159,73.9986825 75.0939458,74.5847316 71.6846113,74.5804138 C71.03437,74.5804138 70.3877212,74.5587586 69.7482574,74.5190575 C65.6487278,74.2588523 61.6480227,73.1440176 58.0008043,71.2455172 C45.6871944,64.8430565 39.3809981,50.7667922 42.7758177,37.2613333 C42.7758177,37.2108046 42.8009651,37.1638851 42.8153351,37.1133563 C45.2784735,27.5514939 52.2747562,19.8239137 61.5170251,16.4568427 C70.759294,13.0897716 81.059622,14.515986 89.0507239,20.2692414 C89.4099732,20.5182759 89.7368901,20.7745287 90.070992,21.0416092 C96.129624,25.8009371 100.120441,32.7306824 101.207721,40.3796782 C101.279571,40.8849655 101.337051,41.3938621 101.383753,41.9063678 C101.474763,42.8110728 101.519071,43.7217931 101.516676,44.6385287 Z" id="Shape" stroke="#003CE8" stroke-width="2.87999997"></path>
                <path d="M68.9435389,59.2557701 C64.9917962,60.1508506 62.5057909,57.1443908 60.0844504,58.7757471 C57.6631099,60.4071034 59.2725469,63.9477241 57.2679357,66.6546207 C56.4611551,67.6640663 55.3990051,68.4369572 54.1927614,68.8923218 C44.3171473,61.6853296 39.8018177,49.1654236 42.7901877,37.2757701 C42.7901877,37.2252414 42.8153351,37.1783218 42.8297051,37.1277931 C43.5736685,36.9232103 44.3668963,37.0056055 45.0534584,37.3587816 C45.7396247,37.7666207 45.7719571,38.2935632 46.4329759,38.5028966 C47.8699732,38.954046 49.2207507,36.9978621 51.5199464,35.3737241 C52.543807,34.6518851 56.3518499,31.9666437 58.7660054,32.97 C61.5645576,34.1321609 59.9120107,39.1778161 62.8363003,40.967977 C66.0228418,42.9205517 70.1182842,38.2466437 74.0341019,40.3074943 C76.4446649,41.577931 77.1344236,44.5302529 77.3284182,45.3603678 C78.6756032,51.1170345 74.0484718,58.108046 68.9435389,59.2557701 Z" id="Shape" fill="#003CE8" fill-rule="nonzero"></path>
                <path d="M101.218499,40.3941149 C100.366392,40.7606459 99.4509719,40.9556173 98.5241287,40.967977 C97.9026273,40.967977 95.4992493,40.9896322 94.4502413,39.4665517 C93.2647185,37.7377471 94.9855228,35.7346437 93.7317426,34.1105057 C92.9234316,33.0638391 91.935496,33.5727356 90.2613941,32.4863678 C88.6980472,31.4823622 87.5819229,29.9096781 87.1467024,28.0975862 C86.6329759,25.5711494 87.9586059,22.7487586 90.0853619,21.056046 C96.142649,25.8160081 100.13213,32.745669 101.218499,40.3941149 Z" id="Shape" fill="#003CE8" fill-rule="nonzero"></path>
                <path d="M99.4725469,55.559954 C99.3971046,55.7584598 99.3180697,55.9533563 99.2354424,56.1482529 C96.3516533,63.0771664 90.9889963,68.6694939 84.2044504,71.8229885 C83.3901519,72.2031571 82.5519035,72.5448276 81.6897051,72.848 C81.2478284,70.0869655 81.8585523,66.420023 83.7805362,64.4746667 C84.8331367,63.391908 86.029437,63.1103908 86.8341555,61.4682069 C87.9657909,59.1511034 86.5323861,57.8193103 87.4305094,56.1121609 C88.8208043,53.4810575 94.3676139,52.6365057 98.1505094,54.7298391 C98.6090999,54.9766532 99.0507628,55.2539759 99.4725469,55.559954 Z" id="Shape" fill="#003CE8" fill-rule="nonzero"></path>
                <path d="M115.319035,51.4490805 C112.504113,70.6574488 97.546903,85.7742988 78.4445938,88.7170863 C59.3422845,91.6598738 40.5637058,81.7401576 32.1492225,64.2617241" id="Shape" stroke="#003CE8" stroke-width="2.87999997" stroke-linecap="round" stroke-linejoin="round" stroke-dasharray="6.120000009536739"></path>
                <path d="M27.6621984,43.2778621 C27.6861984,42.2528506 27.7473984,41.2326513 27.8457984,40.2172644" id="Shape" stroke="#003CE8" stroke-width="2.87999997" stroke-linecap="round" stroke-linejoin="round"></path>
                <path d="M28.5423592,35.4350805 C31.3624665,21.481931 40.6562466,9.22510345 54.5340483,3.41790805 C74.3646113,-4.87602299 96.9254692,2.78990805 108.493298,20.5724138" id="Shape" stroke="#003CE8" stroke-width="2.87999997" stroke-linecap="round" stroke-linejoin="round" stroke-dasharray="5.857200181293479"></path>
                <path d="M109.739893,22.6332644 C110.250027,23.513908 110.729026,24.4162069 111.17689,25.3401609" id="Shape" stroke="#003CE8" stroke-width="2.87999997" stroke-linecap="round" stroke-linejoin="round"></path>
                <path d="M124.885845,107.47823 L130.942788,107.680345 C131.885486,107.718952 132.724354,108.292609 133.105838,109.159538 C133.487322,110.026467 133.34507,111.03588 132.739035,111.762345 C121.857373,124.795149 111.184075,136.864299 101.513083,143.967195 C98.1000731,146.463227 94.0077913,147.848778 89.787185,147.93731 C77.2386059,148.218828 63.1488472,145.526368 48.2687399,141.325264 L47.9094906,141.227816 C42.2724412,139.881211 36.4144955,142.342604 33.4101877,147.320138 L33.1515282,147.742414 C31.918361,149.759829 29.7312967,150.989623 27.3747989,150.99069 L3.75774799,150.99069 C2.53776,150.980919 1.40608728,150.349774 0.752635905,149.314709 C0.0991845271,148.279644 0.0132740451,146.982141 0.524504021,145.869241 C9.62788204,126.264092 19.6940483,105.197218 47.8232708,106.056207 L73.4413405,106.521793 L91.9893834,106.861057 C93.1450573,106.876845 94.2112918,107.489066 94.8114024,108.481432 C95.4115131,109.473797 95.4610123,110.706596 94.9424129,111.744299 L94.9424129,111.769563 C94.4450856,112.777041 93.5205392,113.504193 92.4276676,113.747402 L71.7420912,118.323862 C71.3810037,118.404086 71.125708,118.728143 71.1309284,119.099637 C71.1361487,119.471131 71.4004484,119.787819 71.7636461,119.85777 L89.517748,123.293724 C92.4532444,123.861058 95.4870965,123.072565 97.7804826,121.146253 L108.443003,112.199057 C112.3271,108.939835 117.270128,107.232247 122.327989,107.402437 L124.910992,107.489057" id="Shape" stroke="#003CE8" stroke-width="2.87999997" fill="#FFFFFF" fill-rule="nonzero"></path>
                <ellipse id="Oval" fill="#EAEAEB" fill-rule="nonzero" cx="109.919517" cy="20.3269885" rx="11.8516354" ry="11.9067356"></ellipse>
                <ellipse id="Oval" stroke="#003CE8" stroke-width="2.87999997" fill="#00FCDD" fill-rule="nonzero" cx="114.230509" cy="26.8235402" rx="11.8516354" ry="11.9067356"></ellipse>
                <ellipse id="Oval" fill="#EAEAEB" fill-rule="nonzero" cx="35.0771046" cy="71.425977" rx="11.8516354" ry="11.9067356"></ellipse>
                <ellipse id="Oval" stroke="#003CE8" stroke-width="2.87999997" fill="#00FCDD" fill-rule="nonzero" cx="27.6514209" cy="66.8856092" rx="11.8516354" ry="11.9067356"></ellipse>
                <path d="M27.5687936,63.9982529 C27.9251087,63.999714 28.2471482,63.7852016 28.3845131,63.4548973 C28.5218779,63.124593 28.4474644,62.7436696 28.1960252,62.4900261 C27.944586,62.2363827 27.5657329,62.1600659 27.2363981,62.2967173 C26.9070633,62.4333686 26.6922282,62.7560253 26.6922252,63.114 C26.6922212,63.6009534 27.0840977,63.9962653 27.5687936,63.9982529 Z" id="Shape" fill="#003CE8" fill-rule="nonzero"></path>
                <path d="M24.2636997,61.9951494 C24.5865981,61.9951461 24.8776325,61.7995371 25.0008621,61.4996904 C25.1240917,61.1998437 25.055197,60.8549341 24.8263586,60.6260674 C24.5975201,60.3972006 24.2538991,60.3295435 23.9559994,60.4546984 C23.6580996,60.5798534 23.4647117,60.8731209 23.4661662,61.1975172 C23.4661641,61.4096893 23.5503041,61.613119 23.6999749,61.7628083 C23.8496456,61.9124975 24.0525117,61.9961095 24.2636997,61.9951494 Z" id="Shape" fill="#003CE8" fill-rule="nonzero"></path>
                <path d="M30.8954424,61.9951494 C31.2186638,61.9966089 31.5108005,61.8019297 31.635164,61.5022007 C31.7595275,61.2024717 31.6915225,60.8569699 31.4629682,60.6273529 C31.2344138,60.397736 30.8905109,60.3294149 30.5921689,60.4543565 C30.293827,60.5792982 30.1000486,60.8727931 30.1015013,61.1975172 C30.1015013,61.6380373 30.4569608,61.9951494 30.8954424,61.9951494 Z" id="Shape" fill="#003CE8" fill-rule="nonzero"></path>
                <ellipse id="Oval" fill="#003CE8" fill-rule="nonzero" cx="27.5723861" cy="59.2774253" rx="1" ry="1"></ellipse>
                <path d="M24.7271314,64.1931494 L24.7055764,64.1931494 C24.1866274,64.2010798 23.771201,64.6280697 23.775148,65.1494766 C23.7790949,65.6708835 24.2009374,66.0914764 24.7199464,66.0914764 C25.2389554,66.0914764 25.6607978,65.6708835 25.6647448,65.1494766 C25.6686917,64.6280697 25.2532654,64.2010798 24.7343164,64.1931494 L24.7271314,64.1931494 Z" id="Shape" fill="#003CE8" fill-rule="nonzero"></path>
                <path d="M23.843378,68.119954 C23.4252058,68.3642389 23.2830468,68.9026676 23.525727,69.3230606 C23.7684072,69.7434537 24.3041826,69.8868839 24.7229051,69.6435523 C25.1416276,69.4002206 25.2850015,68.8621172 25.0432708,68.4411724 C24.799461,68.0205879 24.2631751,67.877021 23.843378,68.119954 Z" id="Shape" fill="#003CE8" fill-rule="nonzero"></path>
                <ellipse id="Oval" fill="#003CE8" fill-rule="nonzero" transform="translate(24.282134, 72.722938) rotate(-36.190000) translate(-24.282134, -72.722938) " cx="24.2821336" cy="72.7229384" rx="1" ry="1"></ellipse>
                <path d="M21.3142627,62.319977 C20.8718131,62.1316098 20.3611416,62.3392519 20.1736461,62.7837586 C19.9861506,63.2282653 20.1928318,63.741311 20.6352815,63.9296782 C20.9779095,64.0663992 21.3691149,63.9711494 21.6114248,63.6920089 C21.8537347,63.4128685 21.8944544,63.0105415 21.7130295,62.6881149 C21.6235315,62.5250706 21.4835238,62.3958168 21.3142627,62.319977 Z" id="Shape" fill="#003CE8" fill-rule="nonzero"></path>
                <path d="M20.5778016,66.2684368 C20.2952266,66.4277938 20.1367201,66.7430819 20.1767662,67.0661436 C20.2168123,67.3892053 20.4474486,67.6558065 20.7602966,67.7406681 C21.0731445,67.8255298 21.4060006,67.7117789 21.6024521,67.4528684 C21.7989035,67.1939579 21.8198899,66.8413668 21.6555496,66.5607816 C21.4341368,66.1865183 20.9566242,66.0569905 20.5778016,66.2684368 Z" id="Shape" fill="#003CE8" fill-rule="nonzero"></path>
                <path d="M20.6137265,70.1735862 C20.2712705,70.3740412 20.1550634,70.8152351 20.3540125,71.1596211 C20.5529617,71.5040071 20.9919172,71.6214988 21.3350447,71.4222061 C21.6781722,71.2229134 21.7958608,70.7821161 21.5980697,70.4370575 C21.5026591,70.2706078 21.3451505,70.1492252 21.1604068,70.0997763 C20.9756631,70.0503275 20.7789208,70.0768906 20.6137265,70.1735862 Z" id="Shape" fill="#003CE8" fill-rule="nonzero"></path>
                <path d="M28.1148525,66.0482759 C27.6283904,65.835183 27.0600753,66.0178277 26.7870362,66.4750086 C26.5139971,66.9321894 26.6210282,67.5219257 27.0371046,67.8528736 C27.3552257,68.0596414 27.7598057,68.0772976 28.0945752,67.8990224 C28.4293447,67.7207472 28.6418972,67.3744487 28.650134,66.9938851 C28.6615651,66.602967 28.4551131,66.2382563 28.1148525,66.0482759 Z" id="Shape" fill="#003CE8" fill-rule="nonzero"></path>
                <path d="M31.380429,64.185931 C31.0297354,63.9693084 30.5811347,63.9986849 30.2613986,64.2592105 C29.9416624,64.519736 29.8204496,64.9546516 29.9590342,65.3441037 C30.0976188,65.7335557 30.4658084,65.9926968 30.8774799,65.9905287 C31.0584662,65.9901296 31.2355304,65.9375151 31.3876139,65.8389425 L31.4091689,65.8389425 C31.5382199,65.7579687 31.6455363,65.6464356 31.7217158,65.5141149 C31.8534819,65.2929346 31.8915527,65.0279383 31.8274195,64.7783517 C31.7632864,64.5287651 31.6022959,64.3153958 31.380429,64.185931 Z" id="Shape" fill="#003CE8" fill-rule="nonzero"></path>
                <path d="M34.6424129,62.3452414 C34.2622284,62.1132939 33.7696987,62.2013612 33.4925185,62.5508495 C33.2153382,62.9003378 33.2398919,63.4023275 33.5498432,63.72283 C33.8597944,64.0433325 34.3585456,64.0824618 34.7142627,63.8141839 C34.8147473,63.7408054 34.8991249,63.6474357 34.9621448,63.5398851 C35.077788,63.3389513 35.1090683,63.1000376 35.0490791,62.8758945 C34.98909,62.6517514 34.8427653,62.4608145 34.6424129,62.3452414 Z" id="Shape" fill="#003CE8" fill-rule="nonzero"></path>
                <path d="M27.7771582,69.8487586 C27.4531205,69.7574416 27.1052087,69.8468881 26.8646649,70.0833563 C26.6708998,70.2721221 26.5652624,70.5341678 26.5736729,70.8051954 L26.5736729,70.8376782 C26.5850843,71.0986248 26.7018339,71.3436356 26.8969973,71.5162069 C27.1255404,71.7240645 27.4409146,71.8063082 27.7412332,71.7363678 C28.1985844,71.6298449 28.5127754,71.207451 28.4848794,70.7366207 C28.4699669,70.3161453 28.1823115,69.9552711 27.7771582,69.8487586 Z" id="Shape" fill="#003CE8" fill-rule="nonzero"></path>
                <path d="M31.337319,68.0982989 C31.0304359,67.9195815 30.6465915,67.944291 30.3649217,68.1608957 C30.0832519,68.3775004 29.9592843,68.7432996 30.050873,69.0875789 C30.1424618,69.4318582 30.4315515,69.6867474 30.7832272,69.7332926 C31.1349029,69.7798378 31.4798363,69.6088633 31.6570509,69.3001609 C31.8985379,68.8794982 31.7555027,68.3418335 31.337319,68.0982989 Z" id="Shape" fill="#003CE8" fill-rule="nonzero"></path>
                <path d="M34.6028954,66.2503908 C34.3246977,66.0875977 33.9761858,66.1097059 33.7205795,66.3063614 C33.4649732,66.5030168 33.3528827,66.8352817 33.4368037,67.1475452 C33.5207246,67.4598087 33.7840408,67.6902426 34.1034322,67.7309268 C34.4228237,67.7716111 34.7350509,67.6144903 34.8938874,67.3331494 C35.1105666,66.95335 34.9804011,66.4690144 34.6028954,66.2503908 Z" id="Shape" fill="#003CE8" fill-rule="nonzero"></path>
                <path d="M28.0214477,73.8585747 C27.7349545,73.693759 27.3804238,73.7054105 27.1052647,73.8886845 C26.8301056,74.0719586 26.6813952,74.3954988 26.7209651,74.7247816 C26.7304785,74.8519943 26.7685538,74.9753889 26.8323324,75.0857011 C27.022754,75.3991713 27.3868077,75.5610191 27.7457915,75.4917987 C28.1047752,75.4225782 28.3833176,75.1368228 28.4446911,74.7748007 C28.5060646,74.4127785 28.3373834,74.0504988 28.0214477,73.8657931 L28.0214477,73.8585747 Z" id="Shape" fill="#003CE8" fill-rule="nonzero"></path>
                <ellipse id="Oval" fill="#003CE8" fill-rule="nonzero" transform="translate(30.896484, 72.698012) rotate(-53.810000) translate(-30.896484, -72.698012) " cx="30.8964843" cy="72.698012" rx="1" ry="1"></ellipse>
                <ellipse id="Oval" fill="#003CE8" fill-rule="nonzero" transform="translate(34.210504, 70.776328) rotate(-2.020000) translate(-34.210504, -70.776328) " cx="34.2105043" cy="70.7763284" rx="1" ry="1"></ellipse>
                <path d="M114.216139,23.9867126 C114.700255,23.9867126 115.092708,23.592435 115.092708,23.106069 C115.092708,22.6197029 114.700255,22.2254253 114.216139,22.2254253 C113.732024,22.2254253 113.339571,22.6197029 113.339571,23.106069 C113.339571,23.592435 113.732024,23.9867126 114.216139,23.9867126 Z" id="Shape" fill="#003CE8" fill-rule="nonzero"></path>
                <path d="M110.911046,21.9872184 C111.233944,21.9872151 111.524978,21.7916061 111.648208,21.4917594 C111.771437,21.1919126 111.702543,20.8470031 111.473704,20.6181363 C111.244866,20.3892695 110.901245,20.3216125 110.603345,20.4467674 C110.305445,20.5719223 110.112058,20.8651899 110.113512,21.1895862 C110.11351,21.4017582 110.19765,21.605188 110.347321,21.7548772 C110.496991,21.9045665 110.699858,21.9881784 110.911046,21.9872184 Z" id="Shape" fill="#003CE8" fill-rule="nonzero"></path>
                <path d="M117.528418,21.9872184 C117.851317,21.9872151 118.142351,21.7916061 118.265581,21.4917594 C118.38881,21.1919126 118.319916,20.8470031 118.091077,20.6181363 C117.862239,20.3892695 117.518618,20.3216125 117.220718,20.4467674 C116.922818,20.5719223 116.72943,20.8651899 116.730885,21.1895862 C116.730883,21.4017582 116.815023,21.605188 116.964693,21.7548772 C117.114364,21.9045665 117.31723,21.9881784 117.528418,21.9872184 Z" id="Shape" fill="#003CE8" fill-rule="nonzero"></path>
                <ellipse id="Oval" fill="#003CE8" fill-rule="nonzero" cx="114.219732" cy="19.2694943" rx="1" ry="1"></ellipse>
                <path d="M111.367292,24.1816092 L111.345737,24.1816092 C110.826788,24.1895396 110.411362,24.6165295 110.415309,25.1379364 C110.419256,25.6593433 110.841098,26.0799362 111.360107,26.0799362 C111.879116,26.0799362 112.300959,25.6593433 112.304906,25.1379364 C112.308853,24.6165295 111.893426,24.1895396 111.374477,24.1816092 L111.367292,24.1816092 Z" id="Shape" fill="#003CE8" fill-rule="nonzero"></path>
                <path d="M110.490724,28.112023 C110.072552,28.3563079 109.930393,28.8947365 110.173073,29.3151296 C110.415753,29.7355226 110.951528,29.8789529 111.370251,29.6356212 C111.788973,29.3922896 111.932347,28.8541862 111.690617,28.4332414 C111.574871,28.2297432 111.382865,28.0812555 111.157436,28.020907 C110.932008,27.9605585 110.691915,27.9933707 110.490724,28.112023 Z" id="Shape" fill="#003CE8" fill-rule="nonzero"></path>
                <ellipse id="Oval" fill="#003CE8" fill-rule="nonzero" transform="translate(110.928289, 32.713111) rotate(-36.190000) translate(-110.928289, -32.713111) " cx="110.928289" cy="32.7131105" rx="1" ry="1"></ellipse>
                <path d="M107.961609,22.312046 C107.848796,22.2603498 107.726351,22.2332866 107.602359,22.2326437 C107.207618,22.2383868 106.865404,22.5085221 106.766461,22.8924813 C106.667517,23.2764404 106.836261,23.6794729 107.178637,23.876936 C107.521014,24.0743991 107.952533,24.0175644 108.232676,23.7381105 C108.512818,23.4586566 108.572452,23.025545 108.378338,22.6801839 C108.284247,22.5141602 108.137542,22.3845609 107.961609,22.312046 Z" id="Shape" fill="#003CE8" fill-rule="nonzero"></path>
                <path d="M107.221555,26.2605057 C106.93898,26.4198628 106.780473,26.7351509 106.82052,27.0582126 C106.860566,27.3812743 107.091202,27.6478754 107.40405,27.7327371 C107.716898,27.8175987 108.049754,27.7038479 108.246205,27.4449374 C108.442657,27.1860269 108.463643,26.8334357 108.299303,26.5528506 C108.079133,26.1769454 107.600126,26.0470122 107.221555,26.2605057 Z" id="Shape" fill="#003CE8" fill-rule="nonzero"></path>
                <path d="M107.261072,30.1656552 C106.916835,30.3649855 106.798616,30.8069319 106.997024,31.1527701 C107.195432,31.4986083 107.635333,31.6173763 107.979571,31.418046 C108.202254,31.2891018 108.339549,31.0506004 108.339738,30.7923828 C108.339927,30.5341652 108.202982,30.2954608 107.980489,30.1661874 C107.757995,30.0369139 107.483755,30.036711 107.261072,30.1656552 Z" id="Shape" fill="#003CE8" fill-rule="nonzero"></path>
                <path d="M114.762198,26.0222989 C114.433111,25.8428253 114.034886,25.8478201 113.710361,26.0354917 C113.385837,26.2231632 113.18153,26.5666111 113.170724,26.9426437 C113.173428,27.4558238 113.5413,27.8935156 114.044431,27.9821753 C114.547563,28.0708349 115.041745,27.7850507 115.21813,27.3034287 C115.394515,26.8218068 115.202546,26.2823908 114.762198,26.0222989 Z" id="Shape" fill="#003CE8" fill-rule="nonzero"></path>
                <path d="M118.024182,24.1816092 C117.616184,23.9261884 117.083694,24.0081864 116.770575,24.374652 C116.457456,24.7411176 116.457456,25.2823307 116.770575,25.6487963 C117.083694,26.0152618 117.616184,26.0972599 118.024182,25.8418391 L118.045737,25.8418391 C118.175703,25.7604452 118.283187,25.6474969 118.358284,25.5134023 C118.492809,25.2930472 118.533198,25.0275016 118.470316,24.7768408 C118.407434,24.5261801 118.246593,24.3115868 118.024182,24.1816092 Z" id="Shape" fill="#003CE8" fill-rule="nonzero"></path>
                <path d="M121.289759,22.3337011 C120.979319,22.155565 120.592144,22.1855962 120.312601,22.4094943 C120.089054,22.5707747 119.955578,22.8295817 119.953351,23.106069 C119.958046,23.5331414 120.265911,23.8958059 120.684936,23.9678763 C121.103962,24.0399466 121.514376,23.8008224 121.660211,23.3996404 C121.806046,22.9984583 121.645617,22.5498913 121.278981,22.3337011 L121.289759,22.3337011 Z" id="Shape" fill="#003CE8" fill-rule="nonzero"></path>
                <path d="M114.356247,29.8372184 C114.032176,29.7496697 113.686128,29.8386371 113.443753,30.0718161 C113.25111,30.261339 113.145681,30.5228681 113.152761,30.7936552 L113.152761,30.8261379 C113.164173,31.0870846 113.280922,31.3320954 113.476086,31.5046667 C113.704389,31.7129455 114.020578,31.79405 114.320322,31.7212184 C114.751691,31.6159596 115.058237,31.2318062 115.066675,30.7859121 C115.075113,30.340018 114.783322,29.9444365 114.356247,29.8227816 L114.356247,29.8372184 Z" id="Shape" fill="#003CE8" fill-rule="nonzero"></path>
                <path d="M117.984665,28.0867586 C117.565668,27.8439041 117.030055,27.9879445 116.787849,28.4086137 C116.545644,28.8292829 116.68841,29.3675493 117.106858,29.6113577 C117.525305,29.8551661 118.061242,29.7123462 118.304397,29.2922299 C118.546206,28.8704811 118.403303,28.3317019 117.984665,28.0867586 Z" id="Shape" fill="#003CE8" fill-rule="nonzero"></path>
                <path d="M121.250241,26.2388506 C120.970955,26.0737462 120.619995,26.0948302 120.362283,26.292195 C120.10457,26.4895597 119.991346,26.8239634 120.075815,27.1382658 C120.160284,27.4525682 120.425651,27.6842768 120.747218,27.7245091 C121.068785,27.7647414 121.382614,27.605498 121.541233,27.3216092 C121.753739,26.9412781 121.624407,26.460044 121.250241,26.2388506 Z" id="Shape" fill="#003CE8" fill-rule="nonzero"></path>
                <path d="M114.672386,33.8506437 C114.472382,33.7344628 114.234574,33.7030371 114.011468,33.7633051 C113.788362,33.8235732 113.598309,33.9705781 113.483271,34.1718621 C113.32849,34.4512457 113.32849,34.7911681 113.483271,35.0705517 C113.673692,35.3840219 114.037746,35.5458697 114.39673,35.4766493 C114.755714,35.4074288 115.034256,35.1216734 115.095629,34.7596512 C115.157003,34.3976291 114.988322,34.0353494 114.672386,33.8506437 Z" id="Shape" fill="#003CE8" fill-rule="nonzero"></path>
                <ellipse id="Oval" fill="#003CE8" fill-rule="nonzero" transform="translate(117.544273, 32.690571) rotate(-53.810000) translate(-117.544273, -32.690571) " cx="117.544273" cy="32.6905712" rx="1" ry="1"></ellipse>
                <ellipse id="Oval" fill="#003CE8" fill-rule="nonzero" transform="translate(121.167758, 30.127398) rotate(-2.290610) translate(-121.167758, -30.127398) " cx="121.167758" cy="30.1273977" rx="1" ry="1"></ellipse>
            </g>
        </g>
    </g>
</svg>