<?xml version="1.0" encoding="UTF-8"?>
<svg width="162px" height="151px" viewBox="0 0 162 151" version="1.1" xmlns="http://www.w3.org/2000/svg" xmlns:xlink="http://www.w3.org/1999/xlink">
    <!-- Generator: sketchtool 50.2 (55047) - http://www.bohemiancoding.com/sketch -->
    <title>4EFF62F8-3D53-4A6D-8D2A-9B3C7F7A328F</title>
    <desc>Created with sketchtool.</desc>
    <defs></defs>
    <g id="Symbols" stroke="none" stroke-width="1" fill="none" fill-rule="evenodd">
        <g id="Img_5" transform="translate(0.000000, 2.000000)">
            <g id="5">
                <ellipse id="Oval" fill="#00FCDD" fill-rule="nonzero" cx="148.599103" cy="65.8071394" rx="8.43049327" ry="8.41706731"></ellipse>
                <ellipse id="Oval" fill="#EAEAEB" fill-rule="nonzero" cx="10.3928251" cy="36.4405288" rx="8.43049327" ry="8.41706731"></ellipse>
                <ellipse id="Oval" fill="#00FCDD" fill-rule="nonzero" cx="32.4556054" cy="11.6370433" rx="8.43049327" ry="8.41706731"></ellipse>
                <ellipse id="Oval" fill="#EAEAEB" fill-rule="nonzero" cx="134.339013" cy="23.6358413" rx="8.43049327" ry="8.41706731"></ellipse>
                <ellipse id="Oval" fill="#EAEAEB" fill-rule="nonzero" cx="63.8457399" cy="52.0210577" rx="19.0134529" ry="18.9831731"></ellipse>
                <ellipse id="Oval" fill="#EAEAEB" fill-rule="nonzero" cx="104.383857" cy="88.5547115" rx="10.4035874" ry="10.3870192"></ellipse>
                <path d="M12.1973094,43.0667308 L12.1973094,70.6460577 C12.1973094,73.8110741 14.7671548,76.3768269 17.9372197,76.3768269 L59.9103139,76.3768269" id="Shape" stroke="#003CE8" stroke-width="2.87999997" stroke-linecap="round" stroke-linejoin="round" stroke-dasharray="6.120000009536739"></path>
                <path d="M142.410762,62.76625 L95.0565022,62.76625" id="Shape" stroke="#003CE8" stroke-width="2.87999997" fill="#FFFFFF" fill-rule="nonzero" stroke-linecap="round" stroke-linejoin="round"></path>
                <path d="M20.8071749,127.595577 L63.4977578,127.595577 C66.6678228,127.595577 69.2376682,125.029824 69.2376682,121.864808 L69.2376682,92.4946154" id="Shape" stroke="#003CE8" stroke-width="2.87999997" stroke-linecap="round" stroke-linejoin="round"></path>
                <path d="M93.9910314,86.0475 L113.721973,86.0475 C116.892038,86.0475 119.461883,88.6132528 119.461883,91.7782692 L119.461883,129.028269" id="Shape" stroke="#003CE8" stroke-width="2.87999997" stroke-linecap="round" stroke-linejoin="round" stroke-dasharray="6.120000009536739"></path>
                <path d="M43.7668161,8.68211538 L57.7578475,8.68211538 C64.0979774,8.68211538 69.2376682,13.8136209 69.2376682,20.1436538 L69.2376682,59.1845192 L89.6860987,59.1845192 L89.6860987,30.5306731 C89.6860987,24.2006402 94.8257894,19.0691346 101.165919,19.0691346 L123.049327,19.0691346" id="Shape" stroke="#003CE8" stroke-width="2.87999997" stroke-linecap="round" stroke-linejoin="round"></path>
                <ellipse id="Oval" stroke="#003CE8" stroke-width="2.87999997" fill="#00FCDD" fill-rule="nonzero" stroke-linecap="round" stroke-linejoin="round" cx="77.8367713" cy="74.5859615" rx="25.8295964" ry="25.7884615"></ellipse>
                <path d="M77.9085202,52.6263702 C89.9943927,52.6263702 99.7919283,62.4083027 99.7919283,74.4749279" id="Shape" stroke="#FFFFFF" stroke-width="2.87999997" stroke-linecap="round" stroke-linejoin="round"></path>
                <path d="M77.890583,69.245601 C78.5043499,69.245601 79.0576814,68.8764655 79.2925598,68.3103218 C79.5274382,67.7441782 79.3976083,67.0925187 78.9636096,66.6592111 C78.5296108,66.2259035 77.8769118,66.0962804 77.3098651,66.3307847 C76.7428184,66.5652891 76.3730942,67.1177394 76.3730942,67.7305288 C76.3730942,68.5672801 77.052497,69.245601 77.890583,69.245601 Z" id="Shape" fill="#003CE8" fill-rule="nonzero"></path>
                <path d="M72.1686099,65.8071394 C72.7264386,65.8085879 73.2300801,65.4740183 73.4442226,64.9597483 C73.6583651,64.4454784 73.5407336,63.8530333 73.1462877,63.4592157 C72.7518419,63.065398 72.1584519,62.9479538 71.6433616,63.1617553 C71.1282713,63.3755568 70.793168,63.8783962 70.7946188,64.4353365 C70.7965903,65.1921456 71.4105937,65.8051711 72.1686099,65.8071394 Z" id="Shape" fill="#003CE8" fill-rule="nonzero"></path>
                <path d="M83.6161435,65.8071394 C84.173648,65.8071375 84.6761886,65.471647 84.8891997,64.9572611 C85.1022107,64.4428752 84.9836919,63.8510178 84.5889631,63.4579439 C84.1942342,63.0648699 83.6011257,62.9480836 83.0864765,63.162096 C82.5718273,63.3761084 82.2371132,63.8787217 82.238565,64.4353365 C82.2385638,64.7997827 82.3838155,65.14925 82.6422652,65.4066162 C82.9007149,65.6639823 83.2511172,65.808091 83.6161435,65.8071394 Z" id="Shape" fill="#003CE8" fill-rule="nonzero"></path>
                <ellipse id="Oval" fill="#003CE8" fill-rule="nonzero" cx="77.8941704" cy="61.1365625" rx="1.24484305" ry="1.24286058"></ellipse>
                <path d="M72.9757848,69.5858654 L72.9363229,69.564375 C72.1970093,69.2103993 71.309569,69.4493457 70.8487656,70.1264571 C70.3879621,70.8035684 70.4923045,71.7153175 71.0942138,72.271197 C71.6961232,72.8270764 72.6146766,72.8599991 73.2549599,72.3486422 C73.8952431,71.8372852 74.0647987,70.9353532 73.6538117,70.2269952 C73.4949977,69.9520499 73.259387,69.7292608 72.9757848,69.5858654 Z" id="Shape" fill="#003CE8" fill-rule="nonzero"></path>
                <path d="M71.4475336,76.3302644 C70.9151116,76.6358244 70.6196383,77.2316509 70.6990248,77.8396442 C70.7784112,78.4476374 71.217005,78.9479209 71.8100941,79.1069892 C72.4031832,79.2660575 73.0338297,79.0525475 73.4076819,78.5661142 C73.781534,78.0796809 73.8248802,77.4162332 73.5174888,76.8854327 C73.0987398,76.162341 72.1728342,75.9140103 71.4475336,76.3302644 Z" id="Shape" fill="#003CE8" fill-rule="nonzero"></path>
                <ellipse id="Oval" fill="#003CE8" fill-rule="nonzero" transform="translate(72.205441, 84.242427) rotate(-36.190000) translate(-72.205441, -84.242427) " cx="72.2054411" cy="84.2424267" rx="1.37757848" ry="1.37538462"></ellipse>
                <path d="M67.0852018,66.3623077 C66.4052895,66.0745803 65.6167143,66.3212395 65.2227732,66.9448587 C64.828832,67.5684778 64.9456378,68.3852473 65.4986407,68.8738756 C66.0516437,69.3625038 66.8778483,69.3789693 67.4499409,68.9127632 C68.0220336,68.4465571 68.1713922,67.635092 67.8026906,66.996274 C67.6387821,66.7128058 67.3869418,66.4902821 67.0852018,66.3623077 Z" id="Shape" fill="#003CE8" fill-rule="nonzero"></path>
                <path d="M65.793722,73.1532692 C65.3107738,73.4313175 65.0432868,73.9725715 65.1161082,74.5244061 C65.1889296,75.0762407 65.5877016,75.5298535 66.1263009,75.6735249 C66.6649002,75.8171963 67.2371342,75.6225994 67.5759179,75.1805605 C67.9147015,74.7385216 67.9532387,74.1361952 67.6735426,73.6547115 C67.491218,73.3389539 67.1905321,73.1086169 66.8378502,73.014539 C66.4851683,72.920461 66.1094861,72.9703768 65.793722,73.1532692 Z" id="Shape" fill="#003CE8" fill-rule="nonzero"></path>
                <path d="M65.8618834,79.8725962 C65.4258384,80.1239393 65.184379,80.612785 65.2500997,81.1111805 C65.3158205,81.609576 65.6757784,82.0193684 66.1621223,82.1494682 C66.6484662,82.279568 67.1654164,82.1043537 67.4719151,81.705529 C67.7784137,81.3067043 67.8140995,80.762813 67.5623318,80.327476 C67.2185657,79.7330622 66.4572638,79.5294096 65.8618834,79.8725962 Z" id="Shape" fill="#003CE8" fill-rule="nonzero"></path>
                <path d="M78.8304933,72.7377885 C78.114495,72.3106966 77.2008475,72.4144109 76.5991569,72.9910824 C75.9974664,73.567754 75.8563473,74.4749477 76.254512,75.2066573 C76.6526766,75.9383669 77.4917801,76.3138636 78.303795,76.1237062 C79.1158098,75.9335488 79.7001722,75.2247053 79.7309417,74.3925481 C79.7689427,73.7152054 79.4203379,73.0745721 78.8304933,72.7377885 Z" id="Shape" fill="#003CE8" fill-rule="nonzero"></path>
                <path d="M84.47713,69.5715385 C83.7714404,69.140222 82.8563885,69.2852061 82.3191172,69.9134616 C81.7818459,70.5417171 81.7818459,71.4667444 82.3191172,72.0949999 C82.8563885,72.7232554 83.7714404,72.8682395 84.47713,72.4369231 L84.5130045,72.4154327 C84.7354773,72.2744284 84.9201787,72.0814154 85.0511211,71.853101 C85.2803985,71.4751367 85.3487413,71.0213171 85.2409231,70.5927497 C85.133105,70.1641822 84.858083,69.7964707 84.47713,69.5715385 Z" id="Shape" fill="#003CE8" fill-rule="nonzero"></path>
                <path d="M90.1201794,66.4052885 C89.4008267,65.9926128 88.4826182,66.2398598 88.0686541,66.957705 C87.65469,67.6755502 87.9015268,68.5925127 88.620154,69.0064464 C89.3387812,69.4203801 90.2574223,69.17474 90.6726457,68.4576202 C91.0846624,67.7381703 90.8379272,66.8215853 90.1201794,66.4052885 Z" id="Shape" fill="#003CE8" fill-rule="nonzero"></path>
                <path d="M78.755157,79.4678606 C78.3747816,79.2475417 77.9221825,79.1875448 77.497403,79.3011318 C77.0726236,79.4147188 76.710645,79.6925357 76.4914798,80.0731731 C76.3328834,80.342748 76.2568095,80.6527846 76.2726457,80.965024 L76.2726457,81.0223317 C76.2836966,81.2858867 76.3588008,81.5428011 76.4914798,81.7709135 C76.8521169,82.3662131 77.5453747,82.6749862 78.2299782,82.5452308 C78.9145817,82.4154755 79.4462756,81.8745329 79.5633193,81.1886968 C79.6803629,80.5028607 79.3580935,79.816646 78.755157,79.4678606 Z" id="Shape" fill="#003CE8" fill-rule="nonzero"></path>
                <path d="M84.4017937,76.2908654 C83.6774167,75.8761301 82.7534792,76.1253014 82.3367672,76.8477702 C81.9200552,77.5702389 82.1679451,78.4931562 82.8908081,78.9105163 C83.6136711,79.3278764 84.5385093,79.0820582 84.9578475,78.3611058 C85.1601978,78.0132126 85.2152888,77.5991336 85.1109212,77.2105631 C85.0065535,76.8219927 84.7513393,76.4909945 84.4017937,76.2908654 Z" id="Shape" fill="#003CE8" fill-rule="nonzero"></path>
                <path d="M90.044843,73.1138702 C89.5620648,72.8357664 88.9590091,72.87552 88.5170446,73.2145831 C88.0750801,73.5536462 87.8813076,74.1251975 88.0261358,74.6625673 C88.170964,75.199937 88.6258508,75.5972225 89.1785588,75.6690614 C89.7312668,75.7409003 90.2728704,75.473135 90.5506726,74.9906971 C90.9294605,74.3328852 90.703119,73.4930693 90.044843,73.1138702 Z" id="Shape" fill="#003CE8" fill-rule="nonzero"></path>
                <path d="M78.6762332,86.1979327 C78.1827749,85.9090587 77.5676919,85.925641 77.0905667,86.2406813 C76.6134416,86.5557216 76.3573978,87.1143344 76.4304933,87.6807692 C76.4492959,87.8955151 76.5154507,88.1034483 76.6242152,88.2896635 C76.9518131,88.8299857 77.5813744,89.1099662 78.2027986,88.9916962 C78.8242229,88.8734262 79.306471,88.381845 79.412004,87.759089 C79.517537,87.1363329 79.2241012,86.5137218 78.6762332,86.1979327 Z" id="Shape" fill="#003CE8" fill-rule="nonzero"></path>
                <ellipse id="Oval" fill="#003CE8" fill-rule="nonzero" transform="translate(83.644187, 84.199763) rotate(-53.810000) translate(-83.644187, -84.199763) " cx="83.6441868" cy="84.199763" rx="1.37757848" ry="1.37538462"></ellipse>
                <ellipse id="Oval" fill="#003CE8" fill-rule="nonzero" transform="translate(89.368969, 80.898274) rotate(-2.020000) translate(-89.368969, -80.898274) " cx="89.3689688" cy="80.8982739" rx="1.24484305" ry="1.24286058"></ellipse>
                <ellipse id="Oval" fill="#00FCDD" fill-rule="nonzero" cx="101.872646" cy="36.9777885" rx="5.38116592" ry="5.37259615"></ellipse>
                <ellipse id="Oval" stroke="#003CE8" stroke-width="2.87999997" stroke-linecap="round" stroke-linejoin="round" cx="132.007175" cy="19.4273077" rx="8.60986547" ry="8.59615385"></ellipse>
                <ellipse id="Oval" stroke="#003CE8" stroke-width="2.87999997" stroke-linecap="round" stroke-linejoin="round" cx="35.1461883" cy="8.68211538" rx="8.60986547" ry="8.59615385"></ellipse>
                <ellipse id="Oval" stroke="#003CE8" stroke-width="2.87999997" stroke-linecap="round" stroke-linejoin="round" cx="13.2627803" cy="33.0378846" rx="8.60986547" ry="8.59615385"></ellipse>
                <ellipse id="Oval" stroke="#003CE8" stroke-width="2.87999997" stroke-linecap="round" stroke-linejoin="round" cx="151.379372" cy="62.0499038" rx="8.60986547" ry="8.59615385"></ellipse>
                <ellipse id="Oval" fill="#00FCDD" fill-rule="nonzero" cx="8.50941704" cy="129.028269" rx="8.43049327" ry="8.41706731"></ellipse>
                <ellipse id="Oval" stroke="#003CE8" stroke-width="2.87999997" stroke-linecap="round" stroke-linejoin="round" cx="11.4690583" cy="126.521058" rx="8.60986547" ry="8.59615385"></ellipse>
                <ellipse id="Oval" fill="#EAEAEB" fill-rule="nonzero" cx="117.029596" cy="140.579351" rx="8.43049327" ry="8.41706731"></ellipse>
                <ellipse id="Oval" stroke="#003CE8" stroke-width="2.87999997" stroke-linecap="round" stroke-linejoin="round" cx="120.16861" cy="137.624423" rx="8.60986547" ry="8.59615385"></ellipse>
            </g>
        </g>
    </g>
</svg>