<?xml version="1.0" encoding="UTF-8"?>
<svg width="317px" height="71px" viewBox="0 0 317 71" version="1.1" xmlns="http://www.w3.org/2000/svg" xmlns:xlink="http://www.w3.org/1999/xlink">
    <!-- Generator: sketchtool 50.2 (55047) - http://www.bohemiancoding.com/sketch -->
    <title>C6448C1D-30E3-4E3F-9921-E9F006B277DC</title>
    <desc>Created with sketchtool.</desc>
    <defs></defs>
    <g id="Symbols" stroke="none" stroke-width="1" fill="none" fill-rule="evenodd">
        <g id="ICOadmin_logo" fill-rule="nonzero">
            <g id="ICOadmin_add_h-light">
                <g id="Group">
                    <path d="M40.0356022,47.9639355 C35.1602688,46.6508172 30.2582151,46.4172043 25.5729785,47.1035376 C25.5264086,47.1753011 25.4760215,47.2447742 25.4286882,47.3157742 C25.2088172,47.6493978 24.9843656,47.9807312 24.7545699,48.3105376 C24.6537957,48.454828 24.5537849,48.5991183 24.4507204,48.7426452 C24.1514516,49.1602473 23.8453118,49.5747957 23.5292473,49.9847634 C23.5025269,50.0191183 23.4780968,50.0542366 23.4513763,50.0885914 C23.1093548,50.5290968 22.7551183,50.9634946 22.3940108,51.3948387 C22.287129,51.5223333 22.1771935,51.6490645 22.0687849,51.7757957 C21.7947097,52.094914 21.5160538,52.4117419 21.2312903,52.7247527 C21.1175376,52.849957 21.0045484,52.9759247 20.8892688,53.1003656 C20.499914,53.5194946 20.1044516,53.9348065 19.6960108,54.3424839 C18.9684516,55.0677527 18.2218065,55.7617204 17.4576022,56.4251505 C15.1657527,58.4131505 12.715871,60.1232581 10.1545269,61.5676882 C10.1552903,61.5684516 10.1560538,61.5692151 10.1568172,61.5699785 C12.1295484,63.4594946 14.3183333,65.1237957 16.6819462,66.5247097 C16.7155376,66.5445591 16.7483656,66.565172 16.781957,66.5850215 C17.0499247,66.7430538 17.3217097,66.8949785 17.5942581,67.0453763 C17.6904516,67.0988172 17.7858817,67.1530215 17.8820753,67.2049355 C18.124086,67.3362473 18.3691505,67.4629785 18.6149785,67.5889462 C18.7462903,67.656129 18.8776022,67.7233118 19.0096774,67.7889677 C19.2348925,67.9011935 19.4623978,68.0096022 19.6906667,68.1172473 C19.8486989,68.1913011 20.0067312,68.2645914 20.1655269,68.3363548 C20.3777634,68.4325484 20.5915269,68.5264516 20.8052903,68.6180645 C20.9854624,68.695172 21.1663978,68.7707527 21.3488602,68.8448065 C21.5496452,68.9272581 21.7511935,69.0089462 21.9542688,69.0875806 C22.1558172,69.1654516 22.358129,69.2402688 22.5612043,69.315086 C22.7505376,69.3845591 22.939871,69.4547957 23.1299677,69.5212151 C23.3551828,69.5998495 23.5826882,69.6731398 23.8094301,69.7471935 C23.9834946,69.8036882 24.1567957,69.8617097 24.3316237,69.915914 C24.5950108,69.9968387 24.8606882,70.0724194 25.127129,70.1472366 C25.2706559,70.1876989 25.4126559,70.2312151 25.5561828,70.2701505 C25.9684409,70.3808495 26.3837527,70.4862043 26.8013548,70.5823978 C27.1235269,70.0205054 27.4670753,69.4746452 27.8312366,68.9463441 C28.2793763,68.2966559 28.7611075,67.6767419 29.2687957,67.0804946 C29.5863871,66.7079355 29.9108495,66.3422473 30.2498172,65.991828 C30.2513441,65.9903011 30.2521075,65.9895376 30.2536344,65.9880108 C30.6926129,65.5337634 31.1483871,65.0986022 31.620957,64.6832903 C32.2324731,64.1450645 32.8737634,63.6434839 33.5364301,63.1732043 C34.4128602,62.551 35.3282258,61.9860538 36.281,61.4898172 C37.1177312,61.0538925 37.9811828,60.6683548 38.8660108,60.3362581 C39.1614624,60.2255591 39.4584409,60.1202043 39.7584731,60.0217204 C40.9578387,59.6254946 42.1938495,59.3254624 43.4542903,59.1269677 C44.0848925,59.0277204 44.7216022,58.9544301 45.3628925,58.9070968 C46.6462366,58.8131935 47.9479032,58.8246452 49.2587312,58.9475591 C49.9137634,59.0093978 50.571086,59.0994839 51.229172,59.2178172 C51.8872581,59.3361505 52.5453441,59.4834946 53.2034301,59.6613763 C53.7263871,59.8026129 54.2401828,59.9606452 54.7440538,60.1347097 C56.2564301,60.6584301 57.6825376,61.3279677 59.020086,62.1143118 C59.252172,61.9013118 59.4674624,61.673043 59.6934409,61.4539355 C55.0219462,55.0799677 48.2494624,50.1763871 40.0356022,47.9639355 Z" id="Shape" fill="#56BFCD"></path>
                    <path d="M0.221397849,44.5444839 C8.09094624,43.6924839 15.7383333,40.2776129 21.7702796,34.260172 C25.3447097,30.6949032 27.9984301,26.5669785 29.7459462,22.1665054 C29.7047204,22.0863441 29.6680753,22.003129 29.6276129,21.9222043 C29.4482043,21.5641505 29.2726129,21.2022796 29.1023656,20.8373548 C29.0290753,20.680086 28.9550215,20.5235806 28.8832581,20.3655484 C28.6672043,19.8891613 28.4580215,19.408957 28.258,18.9226452 C28.2450215,18.8905806 28.2305161,18.8592796 28.2175376,18.8279785 C28.006828,18.311129 27.8075699,17.7866452 27.6151828,17.2583441 C27.5586882,17.1018387 27.5037204,16.9445699 27.4487527,16.7873011 C27.309043,16.3903118 27.1746774,15.9910323 27.0456559,15.5879355 C26.9945054,15.4276129 26.941828,15.2680538 26.8922043,15.1062043 C26.7242473,14.5595806 26.5623978,14.0099032 26.4135269,13.4525914 C25.7424624,10.9362903 25.3095914,8.41388172 25.0920108,5.90521505 C25.0049785,4.90205376 24.9530645,3.90041935 24.9339785,2.90336559 C24.9248172,2.40636559 24.9232903,1.91089247 24.9301613,1.41541935 C24.9301613,1.41541935 24.9293978,1.41541935 24.9293978,1.41541935 C22.2329247,2.19412903 19.6692903,3.2827957 17.2759032,4.63713978 C17.2125376,4.67302151 17.1476452,4.70813978 17.0842796,4.74478495 C16.820129,4.89670968 16.5597957,5.05321505 16.2994624,5.21124731 C16.1986882,5.27232258 16.097914,5.33339785 15.9979032,5.39523656 C15.7642903,5.54105376 15.5329677,5.68992473 15.303172,5.84108602 C15.1794946,5.92201075 15.0558172,6.00293548 14.9329032,6.08615054 C14.7221935,6.2273871 14.5137742,6.37167742 14.3068817,6.51749462 C14.167172,6.61597849 14.0289892,6.71446237 13.8908065,6.81447312 C13.6999462,6.95265591 13.5098495,7.09312903 13.322043,7.23512903 C13.1708817,7.34964516 13.0212473,7.46568817 12.8716129,7.58249462 C12.6983118,7.71762366 12.5257742,7.85351613 12.3555269,7.99169892 C12.1936774,8.12301075 12.0341183,8.25737634 11.8753226,8.39097849 C11.7195806,8.52152688 11.5630753,8.65207527 11.4096237,8.78567742 C11.2363226,8.93683871 11.0653118,9.0918172 10.8950645,9.24603226 C10.759172,9.36894624 10.6225161,9.48956989 10.488914,9.61477419 C10.2934731,9.79723656 10.1018495,9.98427957 9.91022581,10.1713226 C9.80487097,10.2743871 9.69722581,10.3743978 9.59339785,10.4789892 C9.29947312,10.772914 9.00936559,11.0714194 8.72536559,11.3760323 C14.0167742,20.3495161 12.805957,32.085129 5.05550538,39.8157312 C5.02802151,39.8424516 4.99901075,39.8668817 4.97229032,39.8936022 C4.30046237,40.5570323 3.59580645,41.1647312 2.86672043,41.7281505 C2.20252688,42.2419462 1.51543011,42.7114624 0.812301075,43.1458602 C0.542806452,43.3130538 0.27483871,43.484828 0,43.6405699 C0.0679462366,43.9444194 0.145817204,44.2444516 0.221397849,44.5444839 Z" id="Shape" fill="#56BFCD"></path>
                    <path d="M44.684957,1.37495699 C41.4472043,8.64215054 40.5623763,17.0163333 42.7687204,25.2912688 C44.0696237,30.1711828 46.3194839,34.5350108 49.2579677,38.2491505 C49.351871,38.2544946 49.4457742,38.2644194 49.5396774,38.2697634 C49.9351398,38.2934301 50.3306022,38.3224409 50.726828,38.3567957 C50.9024194,38.3720645 51.0780108,38.3865699 51.2536022,38.404129 C51.7765591,38.456043 52.2995161,38.514828 52.8232366,38.5850645 C52.8530108,38.5888817 52.8835484,38.5919355 52.9133226,38.5957527 C53.4652903,38.6713333 54.0172581,38.7614194 54.5699892,38.8583763 C54.7356559,38.8873871 54.902086,38.9194516 55.0677527,38.9507527 C55.4784839,39.0278602 55.8884516,39.1110753 56.2991828,39.1996344 C56.4656129,39.2355161 56.6312796,39.2706344 56.7977097,39.3088065 C57.3534946,39.4363011 57.910043,39.5706667 58.465828,39.7203011 C61.9608602,40.6616237 65.2375484,42.006043 68.276043,43.6772151 C68.708914,43.9154086 69.1364409,44.1597097 69.5593871,44.4108817 L69.5593871,44.4101183 C69.896828,43.0557742 70.1563978,41.6708925 70.3358065,40.2615806 C70.3426774,40.2066129 70.3503118,40.1524086 70.3571828,40.0974409 C70.4381075,39.4393548 70.4991828,38.7743978 70.5434624,38.1056237 C70.5503333,37.9979785 70.5556774,37.8895699 70.5617849,37.7811613 C70.599957,37.1093333 70.6251505,36.4344516 70.6251505,35.7526989 C70.6251505,33.5104731 70.4159677,31.3171075 70.0197419,29.1901613 C69.9403441,28.7649247 69.8533118,28.3419785 69.7594086,27.922086 C69.5708387,27.0823011 69.3532581,26.2532043 69.1074301,25.4363226 C66.8293226,25.4569355 64.5916774,25.1423978 62.4570968,24.5270645 C61.5424946,24.2636774 60.6462151,23.9445591 59.7736022,23.5735269 C59.1918602,23.326172 58.6208065,23.0551505 58.0619677,22.7619892 C52.4712903,19.8296129 48.0776882,14.6489032 46.3156667,8.03903226 C46.1721398,7.50233333 46.0499892,6.96487097 45.9469247,6.4274086 C45.6384946,4.81578495 45.5071828,3.20568817 45.5293226,1.6162043 C45.0834731,1.47725806 44.6338065,1.34747312 44.1803226,1.22608602 C44.1223011,1.2108172 44.0627527,1.19707527 44.0047312,1.18180645 C43.5978172,1.07492473 43.1893763,0.973387097 42.7771183,0.881010753 C42.7511613,0.874903226 42.7252043,0.870322581 42.6992473,0.864215054 C42.5847312,0.839021505 42.4679247,0.818408602 42.3534086,0.793978495 C43.1405161,0.963462366 43.9176989,1.1566129 44.684957,1.37495699 Z" id="Shape" fill="#56BFCD"></path>
                    <path d="M54.7562688,43.8230323 C54.2829355,43.6619462 53.8134194,43.490172 53.3461935,43.3130538 C53.2324409,43.2703011 53.1202151,43.2244946 53.0072258,43.1802151 C52.6201613,43.0298172 52.2346237,42.8740753 51.8521398,42.7122258 C51.6963978,42.6465699 51.5414194,42.580914 51.3864409,42.5129677 C51.0077742,42.3480645 50.6321613,42.1778172 50.2580753,42.0022258 C50.1427957,41.9480215 50.0267527,41.896871 49.9122366,41.8419032 C49.448828,41.6197419 48.99,41.3884194 48.5349892,41.1502258 C48.3807742,41.0693011 48.2288495,40.9853226 48.0761613,40.902871 C47.7600968,40.7326237 47.4463226,40.5593226 47.1348387,40.3814409 C46.9600108,40.2814301 46.7851828,40.1814194 46.6111183,40.0791183 C46.2912366,39.8905484 45.9744086,39.6973978 45.6591075,39.5011935 C45.5224516,39.4164516 45.3842688,39.334 45.2491398,39.2469677 C44.8284839,38.9782366 44.413172,38.701871 44.0024409,38.4193978 C43.9451828,38.3796989 43.8856344,38.3422903 43.8283763,38.3025914 C43.729129,38.3094624 43.6291183,38.3148065 43.529871,38.3224409 L43.5291075,38.3224409 C43.0130215,38.3629032 42.4976989,38.4094731 41.9854301,38.4682581 C41.8701505,38.4812366 41.7563978,38.4987957 41.6411183,38.5125376 C41.2204624,38.5636882 40.8013333,38.6201828 40.3837312,38.6835484 C40.2363871,38.7056882 40.0898065,38.7308817 39.9424624,38.7545484 C39.8882581,38.7637097 39.8332903,38.7721075 39.779086,38.7812688 C39.4385914,38.8377634 39.0996237,38.8980753 38.7614194,38.9629677 C38.6423226,38.985871 38.5232258,39.0087742 38.404129,39.0316774 C38.3247312,39.0477097 38.2453333,39.0614516 38.1666989,39.0774839 C38.0330968,39.1049677 37.9010215,39.1370323 37.7674194,39.166043 C37.4246344,39.2393333 37.081086,39.3110968 36.7405914,39.3927849 C36.739828,39.3927849 36.7390645,39.3927849 36.7383011,39.3935484 C36.5795054,39.4317204 36.4222366,39.4737097 36.2642043,39.514172 C36.2634409,39.514172 36.2634409,39.514172 36.2626774,39.514172 C35.8924086,39.6073118 35.5229032,39.7042688 35.1549247,39.8065699 C35.0617849,39.8325269 34.9694086,39.8607742 34.8762688,39.8874946 C34.7609892,39.921086 34.6449462,39.953914 34.5296667,39.9882688 C34.2166559,40.0806452 33.9059355,40.1768387 33.5959785,40.276086 C33.3944301,40.3402151 33.1921183,40.4035806 32.9913333,40.4715269 C32.6210645,40.5959677 32.2538495,40.7272796 31.8873978,40.8608817 C31.8041828,40.8914194 31.7202043,40.9181398 31.6377527,40.9494409 C31.4682688,41.0128065 31.3003118,41.0807527 31.1315914,41.1456452 C31.1018172,41.1570968 31.0728065,41.1693118 31.0430323,41.1807634 C30.7346022,41.3006237 30.4269355,41.4212473 30.1223226,41.5479785 C29.9200108,41.631957 29.7184624,41.7189892 29.5176774,41.8060215 C29.2206989,41.9342796 28.9252473,42.0671183 28.6313226,42.2022473 L28.6305591,42.2030108 C28.5015376,42.2625591 28.3717527,42.3213441 28.2434946,42.3816559 C28.2114301,42.4473118 28.1763118,42.5114409 28.1442473,42.5770968 C27.9785806,42.9137742 27.8083333,43.2489247 27.6335054,43.5817849 C27.5457097,43.7489785 27.457914,43.916172 27.367828,44.0833656 C27.1502473,44.4849355 26.9265591,44.8834516 26.6952366,45.2796774 C26.6501935,45.3567849 26.6082043,45.4346559 26.5623978,45.5117634 C26.2883226,45.975172 26.0027957,46.434 25.7103978,46.8897742 C25.663828,46.9615376 25.6195484,47.0340645 25.5729785,47.105828 C30.2582151,46.4194946 35.1610323,46.6531075 40.0356022,47.9662258 C48.2494624,50.1786774 55.0227097,55.0814946 59.6942043,61.4562258 C59.9942366,61.1653548 60.3003763,60.879828 60.5897204,60.5782688 C60.6782796,60.4866559 60.7622581,60.3919892 60.8500538,60.2996129 C61.3203333,59.8003226 61.7814516,59.291871 62.2242473,58.7673871 C62.2280645,58.7628065 62.2326452,58.7574624 62.2364624,58.7528817 C62.4899247,58.4513226 62.738043,58.1459462 62.9815806,57.8359892 C62.9999032,57.813086 63.0174624,57.7901828 63.0357849,57.7665161 C63.2342796,57.5130538 63.4274301,57.2550108 63.6198172,56.9962043 C63.6511183,56.9542151 63.6831828,56.9137527 63.7137204,56.8717634 C63.7434946,56.8313011 63.7732688,56.7900753 63.803043,56.7496129 C64.0122258,56.4617957 64.216828,56.1716882 64.4176129,55.877 C64.4573118,55.8182151 64.4970108,55.7594301 64.5367097,55.7006452 C64.5382366,55.6991183 64.539,55.696828 64.5405269,55.6945376 C64.7275699,55.4166452 64.9115591,55.1364624 65.0909677,54.8532258 C65.139828,54.7753548 65.1886882,54.6967204 65.2375484,54.6188495 C65.4062688,54.347828 65.5726989,54.0745161 65.7337849,53.798914 C65.7902796,53.7027204 65.8452473,53.6057634 65.9002151,53.5088065 C66.0506129,53.2461828 66.1994839,52.9827957 66.3430108,52.7163548 C66.4048495,52.6010753 66.4651613,52.4850323 66.5262366,52.3689892 C66.5880753,52.2514194 66.6483871,52.1315591 66.7094624,52.0132258 C66.7796989,51.8780968 66.8506989,51.7429677 66.9186452,51.6063118 C66.985828,51.4704194 67.0507204,51.333 67.1163763,51.1963441 C67.1377527,51.1513011 67.1583656,51.1062581 67.1797419,51.0612151 C67.2728817,50.8642473 67.3675484,50.668043 67.4576344,50.4695484 C67.4744301,50.4329032 67.4896989,50.3954946 67.5057312,50.3588495 C67.559172,50.2374624 67.6126129,50.1153118 67.6652903,49.9931613 C67.7645376,49.7648925 67.8645484,49.5373871 67.9584516,49.306828 C68.0325054,49.1258925 68.1019785,48.9434301 68.1729785,48.7609677 C68.256957,48.5472043 68.3416989,48.3342043 68.4210968,48.1181505 C68.4791183,47.9601183 68.5325591,47.7997957 68.5890538,47.6402366 C68.6066129,47.5883226 68.6256989,47.537172 68.6432581,47.4852581 C68.7104409,47.292871 68.779914,47.1012473 68.8432796,46.9073333 C68.8623656,46.8500753 68.8783978,46.7920538 68.8967204,46.7340323 C68.9585591,46.5416452 69.0173441,46.3477312 69.076129,46.1538172 C64.1351398,46.182828 59.3002688,45.3674731 54.7471075,43.8161613 C54.7509247,43.8176882 54.7532151,43.8199785 54.7562688,43.8230323 Z" id="Shape" fill="#009DCC"></path>
                    <path d="M58.4643011,39.7210645 C57.9085161,39.5714301 57.3527312,39.4370645 56.7961828,39.3095699 C56.6297527,39.2713978 56.4633226,39.2362796 56.2976559,39.2003978 C55.8869247,39.1110753 55.476957,39.0286237 55.0662258,38.9515161 C54.9005591,38.9202151 54.734129,38.8881505 54.5684624,38.8591398 C54.0157312,38.7621828 53.4637634,38.6720968 52.9117957,38.5965161 C52.8812581,38.5926989 52.8514839,38.5896452 52.8217097,38.585828 C52.2979892,38.514828 51.7750323,38.456043 51.2520753,38.4048925 C51.0764839,38.3873333 50.9008925,38.372828 50.7253011,38.3575591 C50.3290753,38.3232043 49.9336129,38.2941935 49.5381505,38.2705269 C49.4457742,38.2651828 49.3526344,38.2590753 49.2602581,38.2544946 C50.8917312,40.3157849 52.7323871,42.1801075 54.7471075,43.8153978 C59.3002688,45.3667097 64.1351398,46.1820645 69.076129,46.1530538 C69.0776559,46.1484731 69.0791828,46.1446559 69.0799462,46.1400753 C69.1081935,46.0469355 69.1379677,45.9553226 69.1654516,45.8621828 C69.2127849,45.7026237 69.2570645,45.5415376 69.3021075,45.3812151 C69.373871,45.1246989 69.4433441,44.8674194 69.5097634,44.6086129 C69.5265591,44.542957 69.541828,44.4773011 69.5578602,44.4116452 C69.134914,44.1604731 68.7066237,43.916172 68.2745161,43.6779785 C65.2360215,42.0068065 61.9585699,40.6623871 58.4643011,39.7210645 Z" id="Shape" fill="#0096B1"></path>
                    <path d="M18.0004086,49.0777957 C17.9981183,49.0785591 17.9950645,49.080086 17.9920108,49.0808495 C18.3744946,48.7464624 18.7638495,48.4204731 19.1577849,48.099828 C19.266957,48.0112688 19.3776559,47.925 19.486828,47.8372043 C19.7967849,47.589086 20.1097957,47.3455484 20.4258602,47.1065914 C20.5655699,47.0012366 20.7045161,46.8958817 20.8449892,46.7920538 C21.1793763,46.5454624 21.5175806,46.3034516 21.8588387,46.0667849 C21.958086,45.9980753 22.0558065,45.9263118 22.1558172,45.8576022 C22.5764731,45.5705484 23.0017097,45.2926559 23.4315269,45.0201075 C23.5903226,44.9193333 23.7506452,44.8231398 23.9102043,44.7246559 C24.204129,44.5437204 24.5003441,44.3658387 24.798086,44.1917742 C24.9759677,44.0879462 25.1546129,43.9841183 25.3340215,43.8825806 C25.6584839,43.6993548 25.986,43.5214731 26.315043,43.3458817 C26.4532258,43.271828 26.5906452,43.1954839 26.7295914,43.122957 C27.1685699,42.8954516 27.612129,42.6771075 28.0587419,42.4641075 C28.1198172,42.4350968 28.1786022,42.4030323 28.2396774,42.3740215 C28.2862473,42.2785914 28.3343441,42.1839247 28.3801505,42.0884946 C28.3801505,42.0877312 28.380914,42.0877312 28.380914,42.0877312 C28.5290215,41.7770108 28.6679677,41.464 28.8084409,41.1517527 C28.8817312,40.9891398 28.9603656,40.8280538 29.0313656,40.6646774 C29.0832796,40.5448172 29.1313763,40.4234301 29.1817634,40.3028065 C29.3405591,39.9271935 29.4955376,39.5500538 29.6436452,39.1706237 C29.6879247,39.0576344 29.729914,38.9438817 29.7734301,38.830129 C29.8024409,38.7537849 29.8314516,38.6782043 29.8604624,38.6018602 C29.9841398,38.2705269 30.104,37.9391935 30.2192796,37.6055699 C30.2475269,37.5246452 30.2757742,37.4437204 30.3032581,37.3627957 C30.3383763,37.2620215 30.3742581,37.1612473 30.4078495,37.0604731 C30.568172,36.5795054 30.7208602,36.0962473 30.8643871,35.6106989 C30.8865269,35.5351183 30.9071398,35.4587742 30.9277527,35.3831935 C30.9506559,35.3037957 30.9720323,35.2236344 30.9949355,35.1434731 C31.0957097,34.7861828 31.1934301,34.428129 31.285043,34.0693118 C31.2896237,34.0509892 31.2934409,34.0334301 31.2980215,34.0151075 C31.3461183,33.8265376 31.3926882,33.6372043 31.4377312,33.447871 C31.5163656,33.118828 31.5911828,32.7890215 31.6621828,32.4584516 C31.6965376,32.2988925 31.7324194,32.1393333 31.7644839,31.9797742 C31.7713548,31.9454194 31.7797527,31.9110645 31.7866237,31.8767097 C31.8851075,31.3881075 31.9767204,30.8979785 32.0584086,30.4063226 C32.0874194,30.2322581 32.111086,30.0574301 32.1378065,29.8826022 C32.1920108,29.5321828 32.2431613,29.1817634 32.2882043,28.8305806 C32.3156882,28.6175806 32.3408817,28.4053441 32.3660753,28.1915806 C32.4050108,27.8526129 32.4386022,27.5128817 32.4699032,27.173914 C32.4699032,27.1731505 32.4699032,27.1723871 32.4699032,27.1723871 C32.479828,27.0616882 32.4905161,26.9517527 32.4996774,26.8418172 C32.4546344,26.7753978 32.4126452,26.7059247 32.3683656,26.6395054 C32.1599462,26.3280215 31.9553441,26.0127204 31.7545591,25.695129 C31.6545484,25.5370968 31.5545376,25.379828 31.4568172,25.2202688 C31.2117527,24.8209892 30.9720323,24.417129 30.7391828,24.0086882 C30.7010108,23.9422688 30.6613118,23.8773763 30.6231398,23.8101935 C30.3582258,23.339914 30.104,22.8627634 29.8551183,22.3810323 C29.8184731,22.3092688 29.7795376,22.2397957 29.7436559,22.1680323 C27.9953763,26.5685054 25.3424194,30.6964301 21.7679892,34.2616989 C15.7383333,40.2776129 8.09094624,43.6932473 0.221397849,44.5444839 C0.252698925,44.6689247 0.280182796,44.7948925 0.313010753,44.9185699 C0.325989247,44.9674301 0.340494624,45.0155269 0.354236559,45.0643871 C0.533645161,45.7316344 0.735193548,46.3897204 0.952010753,47.0409355 C1.01308602,47.2241613 1.07187097,47.4081505 1.136,47.5906129 C1.22455914,47.8425484 1.31846237,48.0914301 1.41160215,48.3410753 C1.51313978,48.6105699 1.61773118,48.8777742 1.72537634,49.1442151 C1.80324731,49.3373656 1.88111828,49.5305161 1.96204301,49.7213763 C2.15977419,50.1847849 2.36284946,50.6459032 2.57890323,51.0993871 C2.57966667,51.1016774 2.58119355,51.1039677 2.58195699,51.1054946 C2.58577419,51.113129 2.58882796,51.1207634 2.59264516,51.1276344 C2.72472043,51.4047634 2.86443011,51.6765484 3.00337634,51.9490968 C3.053,52.0460538 3.09880645,52.1453011 3.14919355,52.2414946 C3.16217204,52.2666882 3.17515054,52.2918817 3.18812903,52.3170753 C3.3705914,52.6659677 3.55992473,53.0102796 3.75307527,53.3523011 C3.76987097,53.3820753 3.78590323,53.411086 3.80346237,53.4408602 C3.80956989,53.4523118 3.81644086,53.4637634 3.82254839,53.4752151 C4.00806452,53.798914 4.19892473,54.1187957 4.39360215,54.4363871 C4.42719355,54.4913548 4.46078495,54.547086 4.49437634,54.6012903 C4.68065591,54.9013226 4.87304301,55.1975376 5.06772043,55.4914624 C5.11352688,55.560172 5.15780645,55.6288817 5.2036129,55.6975914 C5.24712903,55.7624839 5.29369892,55.825086 5.33797849,55.8899785 C5.48226882,56.1006882 5.62808602,56.3113978 5.77619355,56.5190538 C5.83345161,56.5992151 5.88994624,56.6809032 5.94796774,56.7610645 C6.00751613,56.8427527 6.06935484,56.9221505 6.12966667,57.0030753 C6.25792473,57.1763763 6.38694624,57.348914 6.51902151,57.5199247 C6.58849462,57.6100108 6.65567742,57.7016237 6.72591398,57.7909462 C6.91295699,58.0299032 7.10534409,58.2635161 7.29849462,58.4978925 C7.37789247,58.594086 7.455,58.6918065 7.53592473,58.7872366 C7.72678495,59.0139785 7.92298925,59.2353763 8.11919355,59.4567742 C8.20546237,59.5537312 8.28944086,59.6529785 8.37647312,59.7499355 C8.53145161,59.9209462 8.69101075,60.0866129 8.84904301,60.2545699 C11.2905269,55.9869355 14.3992581,52.2292796 18.0004086,49.0777957 Z" id="Shape" fill="#009DCC"></path>
                    <path d="M18.0004086,49.0777957 C14.3992581,52.2292796 11.2905269,55.9869355 8.85133333,60.253043 C8.90019355,60.304957 8.94829032,60.356871 8.99715054,60.4087849 C9.0208172,60.4332151 9.04372043,60.4584086 9.06662366,60.4828387 C9.20098925,60.6233118 9.33764516,60.7622581 9.47506452,60.9004409 C9.6392043,61.0661075 9.80487097,61.2310108 9.97206452,61.3936237 C10.0323763,61.4516452 10.0934516,61.5089032 10.1537634,61.5669247 C12.7143441,60.1224946 15.1649892,58.4131505 17.4568387,56.4243871 C18.221043,55.760957 18.9676882,55.0669892 19.6952473,54.3417204 C20.1036882,53.934043 20.4991505,53.5187312 20.8885054,53.0996022 C21.0037849,52.9751613 21.1167742,52.8491935 21.2305269,52.7239892 C21.5152903,52.4109785 21.7939462,52.0941505 22.0680215,51.7750323 C22.1764301,51.6483011 22.2863656,51.5223333 22.3932473,51.3940753 C22.7543548,50.9634946 23.1085914,50.5290968 23.4506129,50.087828 C23.4773333,50.0534731 23.5025269,50.0183548 23.5284839,49.984 C23.8445484,49.5747957 24.1499247,49.1594839 24.449957,48.7418817 C24.5530215,48.5983548 24.6530323,48.4540645 24.7538065,48.3097742 C24.9836022,47.9807312 25.2080538,47.6493978 25.4279247,47.3150108 C25.4744946,47.2447742 25.5210645,47.1737742 25.566871,47.1035376 C22.9635376,47.4867849 20.4266237,48.1494516 18.0004086,49.0777957 Z" id="Shape" fill="#0096B1"></path>
                    <path d="M28.0610323,42.4633441 C27.6144194,42.6763441 27.1708602,42.8946882 26.7318817,43.1221935 C26.5929355,43.1947204 26.4562796,43.2710645 26.3173333,43.3451183 C25.9882903,43.5199462 25.6607742,43.6985914 25.3363118,43.8818172 C25.1569032,43.9833548 24.9782581,44.0871828 24.8003763,44.1910108 C24.5026344,44.3650753 24.2064194,44.542957 23.9124946,44.7238925 C23.7529355,44.8223763 23.5918495,44.9193333 23.4338172,45.0193441 C23.004,45.2918925 22.578,45.5697849 22.1581075,45.8568387 C22.0580968,45.9247849 21.9603763,45.9965484 21.861129,46.0660215 C21.519871,46.3034516 21.1816667,46.5446989 20.8472796,46.7912903 C20.7068065,46.8951183 20.5670968,47.0004731 20.4281505,47.105828 C20.112086,47.3447849 19.7990753,47.589086 19.4891183,47.8364409 C19.3791828,47.9242366 19.2692473,48.0105054 19.1600753,48.0990645 C18.7684301,48.4181828 18.3828925,48.7449355 18.0026989,49.0777957 C20.428914,48.1494516 22.965828,47.4867849 25.5699247,47.1043011 C25.6172581,47.0317742 25.6661183,46.9600108 25.7126882,46.8874839 C26.005086,46.4317097 26.2906129,45.9728817 26.5646882,45.5094731 C26.6104946,45.4323656 26.6524839,45.3544946 26.6975269,45.2773871 C26.928086,44.8811613 27.1525376,44.4826452 27.3701183,44.0810753 C27.4602043,43.9146452 27.548,43.7474516 27.6357957,43.5794946 C27.8106237,43.2466344 27.980871,42.9114839 28.1465376,42.5748065 C28.1786022,42.5106774 28.2099032,42.4465484 28.2412043,42.3816559 C28.1793656,42.4091398 28.1198172,42.4358602 28.0610323,42.4633441 Z" id="Shape" fill="#009693"></path>
                    <path d="M31.8225054,14.6275269 C31.8232688,14.6229462 31.8240323,14.6176022 31.8247957,14.6130215 C31.9194624,15.0924624 32.0042043,15.5734301 32.0828387,16.0551613 C32.098871,16.1536452 32.1118495,16.2528925 32.1278817,16.3513763 C32.1950645,16.781957 32.2561398,17.2125376 32.3103441,17.6446452 C32.330957,17.8095484 32.3508065,17.9752151 32.3698925,18.1401183 C32.4156989,18.5432151 32.4561613,18.9463118 32.4912796,19.350172 C32.5034946,19.4875914 32.518,19.6242473 32.5286882,19.7616667 C32.5683871,20.2762258 32.5989247,20.7915484 32.6210645,21.3076344 C32.6279355,21.4694839 32.6302258,21.6305699 32.6355699,21.7924194 C32.6470215,22.1619247 32.6546559,22.5314301 32.6569462,22.9016989 C32.6577097,23.1017204 32.6584731,23.3017419 32.6569462,23.5017634 C32.6538925,23.8666882 32.6454946,24.2316129 32.634043,24.5965376 C32.6286989,24.7660215 32.6256452,24.9347419 32.6187742,25.1042258 C32.5966344,25.6042796 32.5660968,26.1035699 32.5263978,26.6020968 C32.5202903,26.6814946 32.5149462,26.7608925 32.5080753,26.8410538 C32.5645699,26.9250323 32.6203011,27.0097742 32.6775591,27.0929892 C32.9737742,27.5243333 33.2745699,27.9503333 33.5845269,28.3686989 C33.6288065,28.4274839 33.6738495,28.4862688 33.7188925,28.5442903 C33.7456129,28.580172 33.7738602,28.6160538 33.8013441,28.6519355 C34.0532796,28.9863226 34.3090323,29.3168925 34.5693656,29.6428817 C34.6281505,29.7169355 34.6884624,29.7894624 34.7480108,29.8619892 C34.815957,29.9452043 34.8831398,30.0291828 34.9518495,30.1116344 C35.1747742,30.3834194 35.4015161,30.6513871 35.6313118,30.9170645 C35.7588065,31.0644086 35.8855376,31.2132796 36.0145591,31.3590968 C36.3504731,31.7385269 36.6917312,32.1126129 37.0398602,32.4783011 C37.0887204,32.5294516 37.1391075,32.5798387 37.1887312,32.6302258 C37.2452258,32.6890108 37.3032473,32.7470323 37.3605054,32.8050538 C37.6246559,33.0768387 37.8903333,33.3455699 38.1613548,33.6104839 C38.3148065,33.7601183 38.4690215,33.9074624 38.6247634,34.0555699 C38.8667742,34.2853656 39.1118387,34.5121075 39.3591935,34.7365591 C39.4683656,34.8358065 39.5767742,34.9342903 39.6867097,35.0327742 C39.7286989,35.0701828 39.7699247,35.1083548 39.811914,35.1457634 C40.1852366,35.4755699 40.5631398,35.7992688 40.9471505,36.1160968 C41.076172,36.2222151 41.2082473,36.3237527 41.3380323,36.4283441 C41.6205054,36.6558495 41.9052688,36.8810645 42.193086,37.1009355 C42.3633333,37.2314839 42.5351075,37.3597419 42.7076452,37.4872366 C42.9763763,37.6864946 43.2481613,37.8826989 43.5214731,38.0758495 C43.6260645,38.1499032 43.7306559,38.223957 43.8360108,38.2972473 C43.9215161,38.2911398 44.0085484,38.2896129 44.0948172,38.2835054 C44.4627957,38.2598387 44.8315376,38.2399892 45.201043,38.2254839 C45.3911398,38.2178495 45.5804731,38.2102151 45.7705699,38.204871 C46.2431398,38.1918925 46.7164731,38.1865484 47.1905699,38.1896022 C47.2615699,38.1903656 47.3318065,38.1880753 47.4028065,38.1888387 C47.9402688,38.1941828 48.4800215,38.2132688 49.0197742,38.2392258 C49.0999355,38.243043 49.1800968,38.2445699 49.2610215,38.2491505 C46.3225376,34.5342473 44.0726774,30.1704194 42.7717742,25.2912688 C40.5661935,17.0163333 41.4510215,8.64215054 44.6880108,1.37495699 C43.9207527,1.1566129 43.1435699,0.962698925 42.3572258,0.793978495 C42.2938602,0.780236559 42.2297312,0.768021505 42.1656022,0.755043011 C41.8350323,0.686333333 41.5036989,0.620677419 41.1700753,0.560365591 C40.7532366,0.486311828 40.334871,0.41683871 39.9134516,0.357290323 C39.8936022,0.354236559 39.8745161,0.351946237 39.8546667,0.349655914 C39.8439785,0.348129032 39.8325269,0.346602151 39.8218387,0.345075269 C39.6806022,0.325225806 39.5378387,0.309956989 39.3958387,0.292397849 C39.1683333,0.263387097 38.9415914,0.232086022 38.7117957,0.207655914 C38.6339247,0.199258065 38.5552903,0.192387097 38.4766559,0.184752688 C38.4506989,0.182462366 38.4247419,0.180172043 38.3987849,0.17711828 C38.0903548,0.146580645 37.7811613,0.117569892 37.4704409,0.0946666667 C37.2711828,0.0801612903 37.0696344,0.071 36.8696129,0.060311828 C36.8054839,0.0564946237 36.7413548,0.0534408602 36.6772258,0.0496236559 C36.5153763,0.0404623656 36.3542903,0.0297741935 36.1916774,0.0236666667 C35.7504086,0.00916129032 35.3114301,0 34.8701613,0 C34.2235269,0 33.583,0.0229032258 32.9447634,0.0572580645 C32.8409355,0.0626021505 32.7363441,0.0679462366 32.6325161,0.0740537634 C31.9965699,0.114516129 31.3644409,0.170247312 30.7376559,0.243537634 C30.6887957,0.24888172 30.6399355,0.255752688 30.5903118,0.261860215 C29.2481828,0.425236559 27.928957,0.661139785 26.6356882,0.96727957 C29.1573333,5.25552688 30.8834731,9.87892473 31.8225054,14.6275269 Z" id="Shape" fill="#009DCC"></path>
                    <path d="M31.8225054,14.6275269 C30.8834731,9.87892473 29.1580968,5.25552688 26.6364516,0.968043011 C26.5707957,0.983311828 26.5043763,0.998580645 26.4387204,1.0146129 C26.4387204,1.0146129 26.4387204,1.0146129 26.4387204,1.0146129 C26.1760968,1.07874194 25.9157634,1.14592473 25.6554301,1.21539785 C25.5996989,1.23066667 25.5439677,1.24593548 25.4874731,1.26044086 C25.3760108,1.29097849 25.2637849,1.31922581 25.153086,1.35052688 C25.0790323,1.37113978 25.0057419,1.39480645 24.9316882,1.4161828 C24.9248172,1.91089247 24.9263441,2.40712903 24.9355054,2.90412903 C24.9545914,3.9011828 25.0072688,4.9028172 25.0935376,5.90597849 C25.3111183,8.41464516 25.7439892,10.9370538 26.4150538,13.4533548 C26.5639247,14.0106667 26.7257742,14.5611075 26.8937312,15.1077312 C26.9433548,15.2688172 26.9952688,15.4291398 27.0471828,15.5894624 C27.1762043,15.9925591 27.3105699,16.3926022 27.4502796,16.788828 C27.5052473,16.9460968 27.5594516,17.1033656 27.6167097,17.259871 C27.8090968,17.788172 28.0083548,18.3126559 28.2190645,18.8295054 C28.232043,18.8615699 28.2465484,18.892871 28.2595269,18.924172 C28.4595484,19.4104839 28.6687312,19.8906882 28.8847849,20.3670753 C28.9565484,20.5251075 29.0306022,20.6816129 29.1038925,20.8388817 C29.2741398,21.2038065 29.4497312,21.564914 29.6291398,21.9237312 C29.6688387,22.003129 29.7085376,22.0832903 29.749,22.1626882 C30.7185699,19.7181505 31.4133011,17.1911613 31.8225054,14.6275269 Z" id="Shape" fill="#0096B1"></path>
                    <path d="M44.0032043,38.4201613 C44.4146989,38.7026344 44.8300108,38.9797634 45.2499032,39.2477312 C45.3850323,39.334 45.5232151,39.4164516 45.659871,39.501957 C45.975172,39.6981613 46.292,39.8920753 46.6118817,40.0798817 C46.7851828,40.1821828 46.9600108,40.2821935 47.1356022,40.3822043 C47.447086,40.560086 47.7608602,40.7333871 48.0769247,40.9036344 C48.2296129,40.986086 48.3815376,41.0700645 48.5357527,41.1509892 C48.9907634,41.3891828 49.4495914,41.6205054 49.913,41.8426667 C50.0275161,41.8976344 50.1435591,41.9487849 50.2588387,42.0029892 C50.6329247,42.1785806 51.0085376,42.348828 51.3872043,42.5137312 C51.5421828,42.580914 51.6971613,42.6473333 51.8529032,42.7129892 C52.2353871,42.8740753 52.6209247,43.0305806 53.0079892,43.1809785 C53.1209785,43.2252581 53.2332043,43.2710645 53.346957,43.3138172 C53.8103656,43.4894086 54.2783548,43.6558387 54.747871,43.8161613 C52.7331505,42.180871 50.8924946,40.3165484 49.2610215,38.2552581 C49.1793333,38.2506774 49.0976452,38.2445699 49.015957,38.2415161 C48.4762043,38.2155591 47.9364516,38.1972366 47.3989892,38.191129 C47.3279892,38.1903656 47.2577527,38.1926559 47.1867527,38.1918925 C46.7118925,38.1888387 46.2393226,38.1949462 45.7667527,38.2071613 C45.5766559,38.2125054 45.3865591,38.2201398 45.1972258,38.2277742 C44.8277204,38.2422796 44.4589785,38.262129 44.091,38.2857957 C44.0062581,38.2911398 43.9222796,38.2964839 43.8375376,38.3025914 C43.8925054,38.3407634 43.9467097,38.3812258 44.0032043,38.4201613 Z" id="Shape" fill="#009693"></path>
                    <path d="M29.858172,22.3802688 C30.1070538,22.862 30.3612796,23.339914 30.6261935,23.8094301 C30.6636022,23.8758495 30.7040645,23.9407419 30.7422366,24.0079247 C30.975086,24.4163656 31.2148065,24.8202258 31.459871,25.2195054 C31.5575914,25.3790645 31.6576022,25.5363333 31.7576129,25.6943656 C31.9583978,26.011957 32.1637634,26.3272581 32.3714194,26.6387419 C32.4149355,26.7043978 32.4592151,26.7700538 32.5034946,26.8357097 C32.5096022,26.7578387 32.5187634,26.6799677 32.524871,26.6020968 C32.5638065,26.1035699 32.5951075,25.6035161 32.6172473,25.1042258 C32.6248817,24.9355054 32.627172,24.7660215 32.6325161,24.5965376 C32.6447312,24.2316129 32.653129,23.8666882 32.6554194,23.5017634 C32.6569462,23.3017419 32.6569462,23.1017204 32.6554194,22.9016989 C32.653129,22.5321935 32.6454946,22.1619247 32.634043,21.7924194 C32.6286989,21.6305699 32.6264086,21.4694839 32.6195376,21.3076344 C32.5981613,20.7915484 32.5676237,20.2762258 32.5271613,19.7616667 C32.5164731,19.6242473 32.5019677,19.4875914 32.4897527,19.350172 C32.4546344,18.9463118 32.4149355,18.5432151 32.3683656,18.1401183 C32.3492796,17.9744516 32.3294301,17.8095484 32.3088172,17.6446452 C32.2538495,17.2133011 32.1935376,16.781957 32.1263548,16.3513763 C32.111086,16.2528925 32.0973441,16.1536452 32.0813118,16.0551613 C32.0034409,15.5780108 31.9141183,15.1023871 31.8202151,14.6275269 C31.4110108,17.1911613 30.717043,19.7173871 29.7467097,22.1619247 C29.7856452,22.2344516 29.8207634,22.3077419 29.858172,22.3802688 Z" id="Shape" fill="#009693"></path>
                </g>
                <g id="Group" transform="translate(81.000000, 24.000000)" fill="#2E2F34">
                    <path d="M68.110822,0.34808 C57.7314045,0.34808 49.31789,8.72024 49.31789,19.04864 C49.31789,29.37704 57.7314045,37.7492 68.110822,37.7492 C78.4894757,37.7492 86.903754,29.37628 86.903754,19.04864 C86.903754,8.721 78.4894757,0.34808 68.110822,0.34808 Z M68.110822,30.66372 C61.6647379,30.66372 56.4391327,25.4638 56.4391327,19.04864 C56.4391327,12.63424 61.6647379,7.43432 68.110822,7.43432 C74.5569061,7.43432 79.7832751,12.63424 79.7832751,19.04864 C79.7825113,25.4638 74.5569061,30.66372 68.110822,30.66372 Z" id="Shape"></path>
                    <rect id="Rectangle-path" x="0.272660194" y="1.18712" width="7.92623948" height="35.62196"></rect>
                    <path d="M132.209644,9.55852 L120.995443,9.55852 L120.995443,36.77792 C124.4331,36.77792 128.771987,36.77792 132.209644,36.77792 C141.784065,36.77792 145.809049,30.08916 145.809049,22.97328 C145.808285,15.8574 141.627495,9.55852 132.209644,9.55852 Z M132.209644,31.17824 L127.013825,31.17824 L127.013825,15.04192 L132.209644,15.04192 C137.914887,15.04192 139.789903,18.96808 139.789903,22.89576 C139.789903,26.82344 138.150123,31.17824 132.209644,31.17824 Z" id="Shape"></path>
                    <path d="M165.400104,20.05716 L157.429566,9.59728 C155.123029,9.59728 152.739353,9.59728 150.434343,9.59728 L150.434343,36.81668 L156.530628,36.81668 L156.530628,17.803 L164.696686,28.45744 L165.791146,28.45744 L174.230628,17.88052 L174.230628,36.81744 L180.326913,36.81744 L180.326913,9.59804 L173.41112,9.59804 L165.400104,20.05716 Z" id="Shape"></path>
                    <rect id="Rectangle-path" x="198.602783" y="9.55852" width="6.05656958" height="27.2194"></rect>
                    <polygon id="Shape" points="229.401165 9.55852 229.401165 18.696 229.792207 27.25056 215.998045 9.55852 210.762511 9.55852 210.762511 36.77792 216.936699 36.77792 216.936699 28.30012 216.700699 19.35796 230.300104 36.77792 235.537165 36.77792 235.537165 9.55852"></polygon>
                    <path d="M99.172699,9.55776 L86.903754,36.77716 L93.4682201,36.77716 L95.4616181,32.11 L109.490252,32.11 L111.48365,36.77716 L118.087068,36.77716 L105.816595,9.55776 L99.172699,9.55776 Z M102.984595,26.74592 L102.984595,26.714 L97.7803754,26.714 L102.495029,15.70236 L107.185243,26.74592 L102.984595,26.74592 Z" id="Shape"></path>
                    <path d="M32.9315469,7.43432 C36.2630421,7.43432 39.2615405,8.83044 41.3878317,11.058 L46.4286084,6.04276 C43.0123366,2.53308 38.2297087,0.34808 32.9315469,0.34808 C22.5528932,0.34808 14.1386149,8.72024 14.1386149,19.04864 C14.1386149,29.37704 22.5528932,37.7492 32.9315469,37.7492 C38.2297087,37.7492 43.0123366,35.5642 46.4286084,32.05452 L41.3878317,27.03852 C39.2607767,29.26684 36.2630421,30.66296 32.9315469,30.66296 C26.4854628,30.66296 21.2590939,25.46304 21.2590939,19.04788 C21.2598576,12.63424 26.4854628,7.43432 32.9315469,7.43432 Z" id="Shape"></path>
                    <ellipse id="Oval" cx="189.447663" cy="33.78808" rx="3.00460841" ry="2.98984"></ellipse>
                </g>
            </g>
        </g>
    </g>
</svg>