<?xml version="1.0" encoding="UTF-8"?>
<svg width="146px" height="113px" viewBox="0 0 146 113" version="1.1" xmlns="http://www.w3.org/2000/svg" xmlns:xlink="http://www.w3.org/1999/xlink">
    <!-- Generator: sketchtool 50.2 (55047) - http://www.bohemiancoding.com/sketch -->
    <title>A40C6959-3FFA-4FFF-9C90-B9905F3846A1</title>
    <desc>Created with sketchtool.</desc>
    <defs></defs>
    <g id="Symbols" stroke="none" stroke-width="1" fill="none" fill-rule="evenodd">
        <g id="img_1" transform="translate(2.000000, 0.000000)">
            <g id="1">
                <path d="M23.6786802,7.61942857 C23.1846994,6.66292837 22.1948899,6.0616168 21.1143909,6.0616168 C20.0338918,6.0616168 19.0440824,6.66292837 18.5501015,7.61942857 L4.62401015,34.5528889 C4.19809519,35.3768595 4.19809519,36.3548231 4.62401015,37.1787937 L18.5501015,64.1158413 C19.0440824,65.0723415 20.0338918,65.673653 21.1143909,65.673653 C22.1948899,65.673653 23.1846994,65.0723415 23.6786802,64.1158413 L37.6047716,37.1787937 C38.0306865,36.3548231 38.0306865,35.3768595 37.6047716,34.5528889 L23.6786802,7.61942857 Z" id="Shape" fill="#EAEAEB" fill-rule="nonzero"></path>
                <ellipse id="Oval" fill="#00FCDD" fill-rule="nonzero" cx="6.5377665" cy="22.3560635" rx="6.48730964" ry="6.45714286"></ellipse>
                <path d="M72.0812183,84.3733333 L55.142132,108.659365 C54.5841321,109.458209 54.5192828,110.499798 54.9739218,111.361104 C55.4285609,112.22241 56.3270846,112.760202 57.3045685,112.756063 L91.1827411,112.756063 C92.160225,112.760202 93.0587488,112.22241 93.5133878,111.361104 C93.9680269,110.499798 93.9031776,109.458209 93.3451777,108.659365 L76.4060914,84.3733333 C75.9177078,83.6628552 75.1085393,83.2380343 74.2436548,83.2380343 C73.3787703,83.2380343 72.5696018,83.6628552 72.0812183,84.3733333 Z" id="Shape" fill="#EAEAEB" fill-rule="nonzero"></path>
                <ellipse id="Oval" fill="#EAEAEB" fill-rule="nonzero" cx="95.5292386" cy="19.1274921" rx="19.1015228" ry="19.0126984"></ellipse>
                <ellipse id="Oval" stroke="#003CE8" stroke-width="2.87999997" fill="#00FCDD" fill-rule="nonzero" stroke-linecap="round" stroke-linejoin="round" cx="109.945482" cy="41.7274921" rx="25.9492386" ry="25.8285714"></ellipse>
                <path d="M109.768883,20.2754286 C121.75349,20.2754286 131.468934,29.9456942 131.468934,41.8745714" id="Shape" stroke="#FFFFFF" stroke-width="2.87999997" stroke-linecap="round" stroke-linejoin="round"></path>
                <path d="M19.4258883,7.61942857 C18.9319075,6.66292837 17.942098,6.0616168 16.861599,6.0616168 C15.7810999,6.0616168 14.7912905,6.66292837 14.2973096,7.61942857 L0.360406091,34.5528889 C-0.0655088683,35.3768595 -0.0655088683,36.3548231 0.360406091,37.1787937 L14.2864975,64.1158413 C14.7804783,65.0723415 15.7702878,65.673653 16.8507868,65.673653 C17.9312858,65.673653 18.9210953,65.0723415 19.4150761,64.1158413 L33.3411675,37.1787937 C33.7670825,36.3548231 33.7670825,35.3768595 33.3411675,34.5528889 L19.4258883,7.61942857 Z" id="Shape" stroke="#003CE8" stroke-width="2.87999997" stroke-linecap="round" stroke-linejoin="round"></path>
                <rect id="Rectangle-path" fill="#003CE8" fill-rule="nonzero" x="12.2754315" y="71.8608254" width="108.121827" height="5.02222222" rx="2.15999997"></rect>
                <path d="M109.750863,36.6406984 C110.368126,36.6421492 110.925353,36.2729724 111.162244,35.7056236 C111.399134,35.1382749 111.268932,34.4847327 110.83246,34.05029 C110.395987,33.6158473 109.739392,33.4862507 109.169393,33.7220394 C108.599393,33.9578281 108.228492,34.5124641 108.229949,35.1268571 C108.229949,35.9629286 108.910885,36.6406984 109.750863,36.6406984 Z" id="Shape" fill="#003CE8" fill-rule="nonzero"></path>
                <path d="M104.00599,33.2004762 C104.77033,33.2004762 105.389949,32.5837378 105.389949,31.8229524 C105.389949,31.062167 104.77033,30.4454286 104.00599,30.4454286 C103.24165,30.4454286 102.62203,31.062167 102.62203,31.8229524 C102.62107,32.1885866 102.766571,32.5395209 103.026322,32.7980642 C103.286074,33.0566075 103.638647,33.2014321 104.00599,33.2004762 Z" id="Shape" fill="#003CE8" fill-rule="nonzero"></path>
                <path d="M115.502944,33.2004762 C116.063029,33.201928 116.568776,32.8672271 116.784123,32.3525983 C116.999469,31.8379696 116.881955,31.2448846 116.48643,30.8501714 C116.090906,30.4554582 115.495358,30.3369441 114.977766,30.5499467 C114.460173,30.7629493 114.122591,31.26547 114.122589,31.8229524 C114.122586,32.582339 114.740012,33.1984986 115.502944,33.2004762 Z" id="Shape" fill="#003CE8" fill-rule="nonzero"></path>
                <ellipse id="Oval" fill="#003CE8" fill-rule="nonzero" cx="109.758071" cy="28.5226349" rx="1.25060914" ry="1.24479365"></ellipse>
                <path d="M104.813299,36.9814921 L104.777259,36.9635556 C104.542683,36.8410171 104.281722,36.7770035 104.016802,36.7770159 C103.133169,36.7644487 102.379113,37.4103124 102.25985,38.2818793 C102.140587,39.1534463 102.693639,39.9765115 103.548462,40.1996227 C104.403285,40.4227339 105.290941,39.9756977 105.616703,39.1580277 C105.942465,38.3403576 105.603844,37.4093021 104.827716,36.9886667 L104.813299,36.9814921 Z" id="Shape" fill="#003CE8" fill-rule="nonzero"></path>
                <path d="M103.27797,43.7399683 C102.548987,44.159033 102.299236,45.0868987 102.720088,45.8125894 C103.14094,46.5382801 104.073082,46.7870866 104.802262,46.3683612 C105.531441,45.9496359 105.781628,45.0218865 105.361117,44.296 C105.159054,43.9471996 104.826004,43.6926308 104.435296,43.5883434 C104.044589,43.484056 103.628258,43.5386008 103.27797,43.7399683 Z" id="Shape" fill="#003CE8" fill-rule="nonzero"></path>
                <ellipse id="Oval" fill="#003CE8" fill-rule="nonzero" transform="translate(104.041010, 51.657659) rotate(-36.190000) translate(-104.041010, -51.657659) " cx="104.04101" cy="51.657659" rx="1.38395939" ry="1.37752381"></ellipse>
                <path d="M98.8810152,33.7565079 C98.3839989,33.5469632 97.8124239,33.6172578 97.3815968,33.9409126 C96.9507698,34.2645674 96.7261436,34.7924115 96.7923329,35.325611 C96.8585221,35.8588106 97.205471,36.31636 97.7024873,36.5259048 C98.4708079,36.8498329 99.3574773,36.492478 99.6829188,35.7277302 C100.00836,34.9629823 99.6493358,34.0804361 98.8810152,33.7565079 Z" id="Shape" fill="#003CE8" fill-rule="nonzero"></path>
                <path d="M97.6015736,40.5544444 C96.9425776,40.9349698 96.7179224,41.7749654 97.0996278,42.4312417 C97.4813332,43.0875181 98.3250491,43.3118902 98.9847373,42.9325549 C99.6444255,42.5532197 99.8706107,41.7136309 99.4901015,41.0566667 C99.3069324,40.7404179 99.0048537,40.5097227 98.6505382,40.4154984 C98.2962227,40.3212742 97.9188004,40.3712676 97.6015736,40.5544444 Z" id="Shape" fill="#003CE8" fill-rule="nonzero"></path>
                <path d="M97.6700508,47.2734603 C97.231986,47.5251944 96.9894082,48.0148004 97.0554333,48.5139711 C97.1214585,49.0131418 97.4830837,49.4235715 97.9716803,49.5538737 C98.460277,49.6841759 98.9796217,49.508689 99.2875401,49.109244 C99.5954584,48.709799 99.6313094,48.1650618 99.3783756,47.7290476 C99.0330172,47.1337094 98.268189,46.92974 97.6700508,47.2734603 Z" id="Shape" fill="#003CE8" fill-rule="nonzero"></path>
                <path d="M110.698731,40.1419048 C109.979157,39.7139174 109.060859,39.8179957 108.456376,40.3960493 C107.851893,40.9741029 107.710657,41.8832331 108.111499,42.616017 C108.512341,43.3488008 109.356169,43.7240891 110.172008,43.532418 C110.987847,43.340747 111.574016,42.629499 111.60335,41.7956508 C111.640131,41.1185141 111.290103,40.4786224 110.698731,40.1419048 Z" id="Shape" fill="#003CE8" fill-rule="nonzero"></path>
                <path d="M116.367919,36.9707302 C115.65756,36.547342 114.743489,36.6997644 114.210548,37.3304743 C113.677607,37.9611843 113.6834,38.8836659 114.224219,39.507696 C114.765039,40.1317262 115.680952,40.2727644 116.385939,39.8405714 L116.411168,39.8190476 C116.900172,39.5073969 117.190239,38.9642554 117.176242,38.3864676 C117.162246,37.8086798 116.846217,37.2800844 116.34269,36.992254 L116.367919,36.9707302 Z" id="Shape" fill="#003CE8" fill-rule="nonzero"></path>
                <path d="M122.040711,33.7959683 C121.379716,33.3932549 120.520984,33.5426081 120.036361,34.1445706 C119.551739,34.7465331 119.592442,35.6132761 120.131365,36.1676183 C120.670288,36.7219605 121.539273,36.790932 122.159645,36.3286032 C122.336821,36.2040944 122.484443,36.0424647 122.592132,35.8550794 C123.009106,35.1346427 122.762627,34.2142447 122.040711,33.7959683 Z" id="Shape" fill="#003CE8" fill-rule="nonzero"></path>
                <path d="M110.619442,46.8788571 C110.094413,46.5783031 109.446828,46.5852195 108.9284,46.8969178 C108.409972,47.2086162 108.102475,47.7759311 108.125431,48.3783492 L108.125431,48.4285714 C108.185584,49.214596 108.793654,49.8496766 109.579545,49.9472763 C110.365436,50.044876 111.111642,49.5779827 111.36399,48.8307675 C111.616339,48.0835523 111.304989,47.2628168 110.619442,46.8680952 L110.619442,46.8788571 Z" id="Shape" fill="#003CE8" fill-rule="nonzero"></path>
                <path d="M116.295838,43.7005079 C115.761728,43.3931287 115.094144,43.4364732 114.604678,43.8103105 C114.115212,44.1841478 113.900371,44.8147693 114.060431,45.4078349 C114.220491,46.0009005 114.723893,46.4394768 115.335677,46.5188601 C115.947461,46.5982434 116.547002,46.3027818 116.854467,45.770381 C117.273316,45.0451092 117.023437,44.1192403 116.295838,43.7005079 Z" id="Shape" fill="#003CE8" fill-rule="nonzero"></path>
                <path d="M121.972234,40.5365079 C121.487748,40.2568229 120.881666,40.2953586 120.436872,40.6341288 C119.992077,40.972899 119.796267,41.5451103 119.940834,42.0836882 C120.085401,42.6222662 120.541842,43.0210223 121.097117,43.0938408 C121.652392,43.1666593 122.19702,42.899183 122.476802,42.416254 C122.85795,41.7583573 122.632251,40.9175243 121.972234,40.5365079 Z" id="Shape" fill="#003CE8" fill-rule="nonzero"></path>
                <path d="M110.540152,53.6193968 C109.819325,53.2074381 108.899545,53.452748 108.482234,54.168254 C108.316179,54.4506939 108.248995,54.7800024 108.291218,55.1045397 C108.312342,55.3191687 108.378655,55.5269609 108.485838,55.714381 C108.816615,56.2530561 109.448517,56.5308541 110.071332,56.4113987 C110.694147,56.2919433 111.177093,55.8003183 111.283082,55.1778718 C111.389071,54.5554253 111.095848,53.9328617 110.54736,53.6158095 L110.540152,53.6193968 Z" id="Shape" fill="#003CE8" fill-rule="nonzero"></path>
                <ellipse id="Oval" fill="#003CE8" fill-rule="nonzero" transform="translate(115.529228, 51.618531) rotate(-53.810000) translate(-115.529228, -51.618531) " cx="115.529228" cy="51.6185307" rx="1.38395939" ry="1.37752381"></ellipse>
                <ellipse id="Oval" fill="#003CE8" fill-rule="nonzero" transform="translate(121.282735, 48.308326) rotate(-2.020000) translate(-121.282735, -48.308326) " cx="121.282735" cy="48.3083264" rx="1.25060914" ry="1.24479365"></ellipse>
                <ellipse id="Oval" fill="#00FCDD" fill-rule="nonzero" cx="133.732284" cy="13.0290794" rx="3.60406091" ry="3.58730159"></ellipse>
                <path d="M64.2676142,80.4273016 L47.3285279,104.713333 C46.770528,105.512177 46.7056787,106.553766 47.1603178,107.415072 C47.6149568,108.276378 48.5134806,108.81417 49.4909645,108.810032 L83.3979695,108.810032 C84.3754535,108.81417 85.2739772,108.276378 85.7286162,107.415072 C86.1832553,106.553766 86.118406,105.512177 85.5604061,104.713333 L68.6213198,80.4273016 C68.134899,79.7045597 67.318454,79.270808 66.444467,79.270808 C65.5704801,79.270808 64.754035,79.7045597 64.2676142,80.4273016 Z" id="Shape" stroke="#003CE8" stroke-width="2.87999997" fill="#FFFFFF" fill-rule="nonzero" stroke-linecap="round" stroke-linejoin="round"></path>
                <path d="M139.477157,29.5127302 C139.877208,30.4597778 140.226802,31.4175873 140.525939,32.3825714" id="Shape" stroke="#003CE8" stroke-width="2.87999997" stroke-linecap="round" stroke-linejoin="round"></path>
                <path d="M141.556701,36.8200635 C143.054457,46.1968256 140.304358,55.7524554 134.045838,62.9176825" id="Shape" stroke="#003CE8" stroke-width="2.87999997" stroke-linecap="round" stroke-linejoin="round" stroke-dasharray="5.558399959182736"></path>
                <path d="M132.478071,64.5714286 C131.757259,65.2888889 131.000406,65.9704762 130.207513,66.6161905" id="Shape" stroke="#003CE8" stroke-width="2.87999997" stroke-linecap="round" stroke-linejoin="round"></path>
            </g>
        </g>
    </g>
</svg>