<?xml version="1.0" encoding="UTF-8"?>
<svg width="475px" height="467px" viewBox="0 0 475 467" version="1.1" xmlns="http://www.w3.org/2000/svg" xmlns:xlink="http://www.w3.org/1999/xlink">
    <!-- Generator: sketchtool 50.2 (55047) - http://www.bohemiancoding.com/sketch -->
    <title>60DBD846-333B-4FE3-9E0E-0DFA0D3A5C74</title>
    <desc>Created with sketchtool.</desc>
    <defs></defs>
    <g id="Symbols" stroke="none" stroke-width="1" fill="none" fill-rule="evenodd">
        <g id="diagram_img" transform="translate(2.000000, 1.000000)">
            <g id="diagram">
                <g id="Layer_2" transform="translate(0.000000, 21.882353)">
                    <ellipse id="Oval" fill="#EAEAEB" fill-rule="nonzero" cx="306.784794" cy="170.095784" rx="11.7665464" ry="11.7587255"></ellipse>
                    <ellipse id="Oval" fill="#EAEAEB" fill-rule="nonzero" cx="164.777268" cy="188.458725" rx="8.32082474" ry="8.31529412"></ellipse>
                    <ellipse id="Oval" fill="#EAEAEB" fill-rule="nonzero" cx="149.717062" cy="53.7576471" rx="8.32082474" ry="8.31529412"></ellipse>
                    <ellipse id="Oval" fill="#EAEAEB" fill-rule="nonzero" cx="267.574124" cy="413.008137" rx="8.32082474" ry="8.31529412"></ellipse>
                    <ellipse id="Oval" fill="#EAEAEB" fill-rule="nonzero" cx="378.475876" cy="368.912157" rx="30.3637113" ry="30.3435294"></ellipse>
                    <ellipse id="Oval" fill="#EAEAEB" fill-rule="nonzero" cx="360.435258" cy="205.241275" rx="22.1402062" ry="22.1254902"></ellipse>
                    <ellipse id="Oval" fill="#EAEAEB" fill-rule="nonzero" cx="92.6969072" cy="301.444608" rx="22.1402062" ry="22.1254902"></ellipse>
                    <ellipse id="Oval" stroke="#003CE8" stroke-width="2.43199986" stroke-linecap="round" stroke-linejoin="round" cx="221.535876" cy="221.583137" rx="71.8188144" ry="71.7710784"></ellipse>
                    <ellipse id="Oval" stroke="#003CE8" stroke-width="2.43199986" stroke-linecap="round" stroke-linejoin="round" cx="221.535876" cy="221.583137" rx="140.550773" ry="140.457353"></ellipse>
                    <ellipse id="Oval" stroke="#003CE8" stroke-width="2.43199986" stroke-linecap="round" stroke-linejoin="round" cx="221.535876" cy="221.583137" rx="216.241082" ry="216.097353"></ellipse>
                    <path d="M221.535876,442.892745 C343.843092,442.892745 442.99268,343.809059 442.99268,221.583137 C442.99268,99.3572159 343.843092,0.273529412 221.535876,0.273529412 C99.2286606,0.273529412 0.0790721649,99.3572159 0.0790721649,221.583137 C0.0790721649,343.809059 99.2286606,442.892745 221.535876,442.892745 Z" id="Oval" stroke="#003CE8" stroke-width="2.43199986" stroke-linecap="round" stroke-linejoin="round" stroke-dasharray="5.167999989509582"></path>
                </g>
                <g id="Layer_3" transform="translate(32.845361, 0.000000)">
                    <path d="M188.690515,202.958824 L187.613918,241.231667 L80.8087113,114.493333" id="Shape" stroke="#003CE8" stroke-width="2.43199986" stroke-linecap="round" stroke-linejoin="round" stroke-dasharray="5.167999989509582"></path>
                    <path d="M244.837835,157.613725 L188.714845,243.258824" id="Shape" stroke="#003CE8" stroke-width="2.43199986" stroke-linecap="round" stroke-linejoin="round" stroke-dasharray="5.167999989509582"></path>
                    <path d="M234.86866,322.959216 L187.613918,241.231667 L347.278866,265.308333" id="Shape" stroke="#003CE8" stroke-width="2.43199986" stroke-linecap="round" stroke-linejoin="round" stroke-dasharray="5.167999989509582"></path>
                    <path d="M111.908402,376.631765 L188.672268,243.061275 L97.9035052,248.790196" id="Shape" stroke="#003CE8" stroke-width="2.43199986" stroke-linecap="round" stroke-linejoin="round" stroke-dasharray="5.167999989509582"></path>
                    <ellipse id="Oval" stroke="#003CE8" stroke-width="2.43199986" fill="#00FCDD" fill-rule="nonzero" stroke-linecap="round" stroke-linejoin="round" cx="305.750773" cy="85.5843137" rx="8.47896907" ry="8.47333333"></ellipse>
                    <path d="M305.686907,83.9157843 C305.962366,83.9157843 306.18567,83.692629 306.18567,83.4173529 C306.18567,83.1420769 305.962366,82.9189216 305.686907,82.9189216 C305.411448,82.9189216 305.188144,83.1420769 305.188144,83.4173529 C305.189805,83.6919388 305.412139,83.9141251 305.686907,83.9157843 Z" id="Shape" fill="#003CE8" fill-rule="nonzero"></path>
                    <path d="M303.819588,82.7851961 C304.003415,82.7864249 304.16977,82.6765462 304.240687,82.5070569 C304.311604,82.3375677 304.273029,82.1420568 304.14304,82.0121546 C304.013052,81.8822525 303.817411,81.8437027 303.647809,81.9145725 C303.478207,81.9854423 303.368255,82.1516869 303.369485,82.3353922 C303.371143,82.5831224 303.571693,82.783539 303.819588,82.7851961 Z" id="Shape" fill="#003CE8" fill-rule="nonzero"></path>
                    <path d="M307.566392,82.7851961 C307.818336,82.7851961 308.022577,82.5810906 308.022577,82.3293137 C308.022577,82.0775369 307.818336,81.8734314 307.566392,81.8734314 C307.314447,81.8734314 307.110206,82.0775369 307.110206,82.3293137 C307.110206,82.5810906 307.314447,82.7851961 307.566392,82.7851961 Z" id="Shape" fill="#003CE8" fill-rule="nonzero"></path>
                    <ellipse id="Oval" fill="#003CE8" fill-rule="nonzero" cx="305.686907" cy="81.2503922" rx="1" ry="1"></ellipse>
                    <path d="M304.07201,84.0251961 C303.994249,83.9875574 303.909031,83.9678249 303.822629,83.967451 C303.575933,83.9709195 303.362044,84.1388721 303.300317,84.3775865 C303.23859,84.616301 303.344281,84.866781 303.55841,84.9892519 C303.77254,85.1117227 304.042189,85.0759167 304.216885,84.9018145 C304.391581,84.7277124 304.42815,84.4583421 304.306186,84.2440196 C304.250344,84.1504651 304.16916,84.0746036 304.07201,84.0251961 Z" id="Shape" fill="#003CE8" fill-rule="nonzero"></path>
                    <path d="M303.570206,86.2438235 C303.395484,86.3446176 303.29873,86.5406724 303.325065,86.7405575 C303.351401,86.9404425 303.495638,87.1047884 303.690513,87.1569522 C303.885387,87.2091161 304.092516,87.1388236 304.215304,86.9788558 C304.338093,86.8188881 304.352356,86.6007523 304.251443,86.4261765 C304.185871,86.3111102 304.076931,86.2270675 303.948938,86.1928064 C303.820945,86.1585453 303.684553,86.1769179 303.570206,86.2438235 Z" id="Shape" fill="#003CE8" fill-rule="nonzero"></path>
                    <ellipse id="Oval" fill="#003CE8" fill-rule="nonzero" transform="translate(303.820062, 88.845148) rotate(-36.190000) translate(-303.820062, -88.845148) " cx="303.820062" cy="88.8451482" rx="1" ry="1"></ellipse>
                    <path d="M302.134742,82.9705882 C302.069722,82.9412105 301.999292,82.9256849 301.927938,82.925 C301.659672,82.9214406 301.432205,83.121281 301.401368,83.3876152 C301.370531,83.6539494 301.546323,83.9004183 301.808314,83.958172 C302.070305,84.0159258 302.333544,83.8662375 302.417691,83.6116552 C302.501839,83.3570729 302.379611,83.080145 302.134742,82.9705882 Z" id="Shape" fill="#003CE8" fill-rule="nonzero"></path>
                    <path d="M301.715052,85.1983333 C301.553436,85.2876062 301.462195,85.4659528 301.484414,85.6491502 C301.506634,85.8323477 301.63787,85.9837462 301.816147,86.031849 C301.994424,86.0799519 302.184077,86.0151357 302.295543,85.8680094 C302.40701,85.7208832 302.41799,85.5208805 302.323299,85.362451 C302.197995,85.1528016 301.928916,85.0801988 301.715052,85.1983333 Z" id="Shape" fill="#003CE8" fill-rule="nonzero"></path>
                    <path d="M301.73634,87.4017647 C301.592265,87.4846777 301.512449,87.6462378 301.534185,87.810958 C301.555921,87.9756782 301.674917,88.1110387 301.835575,88.153794 C301.996232,88.1965494 302.166833,88.1382586 302.267666,88.0061574 C302.368499,87.8740561 302.379658,87.6942244 302.295928,87.5506863 C302.18216,87.3556538 301.932102,87.2891066 301.73634,87.4017647 Z" id="Shape" fill="#003CE8" fill-rule="nonzero"></path>
                    <path d="M305.994072,85.0615686 C305.719653,84.9634861 305.41418,85.0737109 305.265764,85.3243664 C305.117349,85.575022 305.167706,85.8956569 305.385825,86.0888235 C305.569917,86.2067043 305.804316,86.2125604 305.994072,86.1040196 C306.177284,85.9941692 306.289386,85.7963098 306.289386,85.5827941 C306.289386,85.3692784 306.177284,85.171419 305.994072,85.0615686 Z" id="Shape" fill="#003CE8" fill-rule="nonzero"></path>
                    <path d="M307.849227,84.0221569 C307.670547,83.9196139 307.449247,83.926672 307.277474,84.0403922 C307.1167,84.1374436 307.018594,84.3116094 307.018969,84.4993137 C307.018969,84.7997675 307.262697,85.0433333 307.563351,85.0433333 C307.670476,85.0454777 307.775987,85.0170088 307.867474,84.9612745 C308.026422,84.8586515 308.120638,84.6809028 308.116296,84.4918431 C308.111954,84.3027835 308.009677,84.1295414 307.846186,84.0343137 L307.849227,84.0221569 Z" id="Shape" fill="#003CE8" fill-rule="nonzero"></path>
                    <path d="M309.70134,82.9705882 C309.520718,82.8663729 309.294279,82.885474 309.133693,83.0184719 C308.973107,83.1514699 308.912287,83.3702777 308.981226,83.5669901 C309.050165,83.7637025 309.234304,83.8967772 309.442835,83.9005882 C309.55245,83.9012495 309.659267,83.8660234 309.746959,83.8002941 C309.803625,83.7577267 309.852061,83.7052033 309.889897,83.6452941 C310.02424,83.406942 309.939826,83.1048864 309.70134,82.9705882 Z" id="Shape" fill="#003CE8" fill-rule="nonzero"></path>
                    <path d="M305.969742,87.2741176 C305.798087,87.1756261 305.586463,87.1780059 305.417069,87.2803327 C305.247675,87.3826595 305.147208,87.5688066 305.154691,87.7664706 L305.154691,87.7847059 C305.159695,87.8712922 305.184677,87.9555476 305.22768,88.0308824 C305.346011,88.2266212 305.573689,88.3281515 305.798498,88.2854314 C306.023308,88.2427113 306.197805,88.0647562 306.235985,87.8392761 C306.274166,87.6137959 306.167971,87.3883748 305.969742,87.2741176 Z" id="Shape" fill="#003CE8" fill-rule="nonzero"></path>
                    <path d="M307.824897,86.2286275 C307.650205,86.1277814 307.431924,86.1420355 307.27185,86.2647424 C307.111776,86.3874492 307.041437,86.5944404 307.093635,86.7891854 C307.145834,86.9839303 307.310289,87.128072 307.510307,87.1543897 C307.710325,87.1807074 307.90651,87.0840176 308.007371,86.9094118 C308.143275,86.6708254 308.061941,86.3673834 307.824897,86.2286275 Z" id="Shape" fill="#003CE8" fill-rule="nonzero"></path>
                    <path d="M309.680052,85.1861765 C309.521517,85.0915485 309.321381,85.1025216 309.174157,85.2139138 C309.026933,85.3253061 308.962073,85.5148328 309.010208,85.6929914 C309.058343,85.87115 309.209842,86.0022987 309.393162,86.0245036 C309.576481,86.0467085 309.754946,85.9555273 309.844278,85.7940196 C309.962491,85.5802969 309.88984,85.3113975 309.680052,85.1861765 Z" id="Shape" fill="#003CE8" fill-rule="nonzero"></path>
                    <path d="M305.948454,89.4836275 C305.834841,89.4178329 305.699646,89.4000842 305.572883,89.4343217 C305.44612,89.4685592 305.338278,89.5519497 305.273299,89.6659804 C305.219129,89.757506 305.19668,89.8643319 305.209433,89.969902 C305.237558,90.2012381 305.423222,90.381708 305.655402,90.4033954 C305.887582,90.4250828 306.103497,90.2821233 306.174035,90.060003 C306.244572,89.8378828 306.15066,89.5966635 305.948454,89.4805882 L305.948454,89.4836275 Z" id="Shape" fill="#003CE8" fill-rule="nonzero"></path>
                    <ellipse id="Oval" fill="#003CE8" fill-rule="nonzero" transform="translate(307.573322, 88.825486) rotate(-53.810000) translate(-307.573322, -88.825486) " cx="307.573322" cy="88.8254858" rx="1" ry="1"></ellipse>
                    <ellipse id="Oval" fill="#003CE8" fill-rule="nonzero" transform="translate(309.457519, 87.720093) rotate(-2.020000) translate(-309.457519, -87.720093) " cx="309.457519" cy="87.7200931" rx="1" ry="1"></ellipse>
                    <ellipse id="Oval" stroke="#003CE8" stroke-width="2.43199986" fill="#00FCDD" fill-rule="nonzero" stroke-linecap="round" stroke-linejoin="round" cx="8.48809278" cy="28.9333333" rx="8.47896907" ry="8.47333333"></ellipse>
                    <path d="M8.4242268,27.2648039 C8.62622975,27.2660349 8.8090281,27.1453795 8.88718627,26.9592293 C8.96534444,26.7730791 8.92342636,26.5581983 8.78102353,26.4150171 C8.63862071,26.2718358 8.4238574,26.2286322 8.23710884,26.3055984 C8.05036028,26.3825646 7.92850891,26.5645001 7.92850515,26.7663725 C7.92769533,26.8982845 7.97956527,27.0250716 8.07261903,27.118634 C8.16567279,27.2121965 8.29222462,27.2648064 8.4242268,27.2648039 Z" id="Shape" fill="#003CE8" fill-rule="nonzero"></path>
                    <path d="M6.54778351,26.1372549 C6.79972784,26.1372549 7.00396907,25.9331494 7.00396907,25.6813725 C7.00396907,25.4295957 6.79972784,25.2254902 6.54778351,25.2254902 C6.29583917,25.2254902 6.09159794,25.4295957 6.09159794,25.6813725 C6.09159794,25.9331494 6.29583917,26.1372549 6.54778351,26.1372549 Z" id="Shape" fill="#003CE8" fill-rule="nonzero"></path>
                    <path d="M10.3037113,26.1372549 C10.4875388,26.1384837 10.653894,26.028605 10.7248109,25.8591158 C10.7957278,25.6896265 10.7571524,25.4941156 10.6271639,25.3642134 C10.4971753,25.2343113 10.3015344,25.1957615 10.1319324,25.2666313 C9.96233038,25.3375011 9.85237859,25.5037457 9.85360825,25.687451 C9.85526646,25.9351812 10.0558164,26.1355978 10.3037113,26.1372549 Z" id="Shape" fill="#003CE8" fill-rule="nonzero"></path>
                    <ellipse id="Oval" fill="#003CE8" fill-rule="nonzero" cx="8.42726804" cy="24.5994118" rx="1" ry="1"></ellipse>
                    <path d="M6.81237113,27.3772549 C6.73558608,27.3366091 6.64987847,27.3157187 6.56298969,27.3164706 C6.31675158,27.3205232 6.10353332,27.4883962 6.04196471,27.7266889 C5.9803961,27.9649816 6.0856353,28.2150263 6.29912962,28.337704 C6.51262394,28.4603816 6.78181115,28.4254889 6.95692161,28.2524394 C7.13203206,28.0793899 7.16995364,27.8107883 7.04958763,27.5960784 C6.9949356,27.5004781 6.91209455,27.4240603 6.81237113,27.3772549 Z" id="Shape" fill="#003CE8" fill-rule="nonzero"></path>
                    <path d="M6.31056701,29.5928431 C6.13498768,29.6929015 6.03719481,29.8889629 6.0629383,30.089305 C6.0886818,30.2896471 6.23287132,30.4546557 6.42805146,30.5071356 C6.62323161,30.5596155 6.8308088,30.4891898 6.95367333,30.3288054 C7.07653786,30.1684209 7.09039533,29.949791 6.98876289,29.7751961 C6.85109644,29.5386982 6.54839837,29.4573089 6.31056701,29.5928431 Z" id="Shape" fill="#003CE8" fill-rule="nonzero"></path>
                    <ellipse id="Oval" fill="#003CE8" fill-rule="nonzero" transform="translate(6.558995, 32.190972) rotate(-36.190000) translate(-6.558995, -32.190972) " cx="6.55899453" cy="32.1909715" rx="1" ry="1"></ellipse>
                    <path d="M4.86597938,26.3196078 C4.80249881,26.288873 4.73275091,26.2732682 4.66221649,26.2740196 C4.43750366,26.2772916 4.24273486,26.4303433 4.18655518,26.6478002 C4.1303755,26.8652571 4.22666247,27.0934028 4.42170573,27.204974 C4.61674899,27.3165452 4.8623688,27.2839816 5.02155461,27.1254477 C5.18074041,26.9669137 5.21417002,26.7215706 5.10319588,26.5262745 C5.04921359,26.4330291 4.96577572,26.3603368 4.86597938,26.3196078 Z" id="Shape" fill="#003CE8" fill-rule="nonzero"></path>
                    <path d="M4.45541237,28.5473529 C4.29358109,28.6360232 4.20173133,28.8139163 4.22319833,28.9971013 C4.24466532,29.1802863 4.37515941,29.3321581 4.55311274,29.3810628 C4.73106608,29.4299674 4.92091898,29.3661325 5.03309778,29.2196756 C5.14527658,29.0732188 5.15736506,28.8734059 5.06365979,28.7145098 C4.93937246,28.5037557 4.67005963,28.4297439 4.45541237,28.5473529 Z" id="Shape" fill="#003CE8" fill-rule="nonzero"></path>
                    <path d="M4.47670103,30.7538235 C4.34674927,30.8246045 4.26541201,30.9602288 4.26421703,31.1081258 C4.26302206,31.2560229 4.34215724,31.392942 4.47094834,31.4658108 C4.59973945,31.5386796 4.75793931,31.5360425 4.8842268,31.4589216 C5.01417857,31.3881406 5.09551583,31.2525163 5.0967108,31.1046193 C5.09790578,30.9567222 5.0187706,30.8198031 4.88997949,30.7469343 C4.76118839,30.6740655 4.60298853,30.6767026 4.47670103,30.7538235 Z" id="Shape" fill="#003CE8" fill-rule="nonzero"></path>
                    <path d="M8.73443299,28.4136275 C8.54727537,28.3056264 8.31682646,28.3049815 8.12906657,28.4119336 C7.94130668,28.5188856 7.82443713,28.7173703 7.82206186,28.9333333 C7.82336503,29.1498401 7.9398111,29.3493106 8.12776567,29.4569996 C8.31572024,29.5646886 8.54680675,29.5643377 8.73443299,29.4560784 C8.91764447,29.346228 9.02974687,29.1483686 9.02974687,28.9348529 C9.02974687,28.7213372 8.91764447,28.5234779 8.73443299,28.4136275 Z" id="Shape" fill="#003CE8" fill-rule="nonzero"></path>
                    <path d="M10.5865464,27.3711765 C10.3545759,27.2268405 10.0519157,27.2732758 9.87395539,27.4805049 C9.69599505,27.6877339 9.69599505,27.9937366 9.87395539,28.2009657 C10.0519157,28.4081948 10.3545759,28.4546301 10.5865464,28.3102941 C10.7485002,28.2090864 10.845094,28.0300754 10.8407255,27.8392401 C10.8363571,27.6484047 10.7316732,27.4739951 10.5652577,27.3802941 L10.5865464,27.3711765 Z" id="Shape" fill="#003CE8" fill-rule="nonzero"></path>
                    <path d="M12.441701,26.3317647 C12.2858235,26.2453283 12.0960102,26.2468895 11.9415775,26.3358782 C11.7871448,26.4248669 11.6907042,26.5882537 11.6874742,26.7663725 C11.6874742,27.0399701 11.9094164,27.2617647 12.1831959,27.2617647 C12.3637746,27.2589465 12.5297933,27.1621666 12.621134,27.0064706 C12.7569975,26.7705034 12.6768657,26.4691909 12.441701,26.3317647 Z" id="Shape" fill="#003CE8" fill-rule="nonzero"></path>
                    <path d="M8.71010309,30.6231373 C8.44878554,30.4739545 8.11596857,30.5635517 7.965,30.8237255 C7.91146459,30.9156324 7.88707539,31.0216019 7.89505155,31.1276471 L7.89505155,31.1428431 C7.91382741,31.4012338 8.11233209,31.610546 8.36951565,31.6431393 C8.62669921,31.6757326 8.87120285,31.5225635 8.95392605,31.277036 C9.03664926,31.0315085 8.93463944,30.7617471 8.71010309,30.6322549 L8.71010309,30.6231373 Z" id="Shape" fill="#003CE8" fill-rule="nonzero"></path>
                    <path d="M10.5622165,29.5806863 C10.324931,29.4446743 10.0222471,29.5264486 9.88586047,29.7634133 C9.74947386,30.0003779 9.83093979,30.3029584 10.0678985,30.4395382 C10.3048572,30.5761179 10.6077363,30.4950688 10.7446907,30.2584314 C10.8106689,30.1444307 10.8285091,30.0088683 10.7942697,29.8816963 C10.7600303,29.7545243 10.6765294,29.6462104 10.5622165,29.5806863 Z" id="Shape" fill="#003CE8" fill-rule="nonzero"></path>
                    <path d="M12.4173711,28.5351961 C12.2583694,28.4415531 12.0584236,28.4536335 11.9118693,28.5657378 C11.7653151,28.677842 11.7014377,28.8675687 11.7503748,29.0454038 C11.799312,29.2232388 11.9512848,29.3536462 12.1345917,29.3750989 C12.3178985,29.3965516 12.49591,29.3047629 12.5846392,29.1430392 C12.7023264,28.9285346 12.6282654,28.6594008 12.4173711,28.5351961 Z" id="Shape" fill="#003CE8" fill-rule="nonzero"></path>
                    <path d="M8.68273196,32.8235294 C8.56948871,32.7574842 8.43457281,32.7392733 8.3078541,32.7729284 C8.18113539,32.8065835 8.07306789,32.8893282 8.00757732,33.0028431 C7.92045541,33.160825 7.92045541,33.3524102 8.00757732,33.5103922 C8.12691032,33.7141441 8.37417107,33.8045686 8.59691789,33.725917 C8.81966471,33.6472655 8.95519378,33.4216784 8.91994845,33.1882353 C8.90226578,33.036296 8.81450047,32.9013622 8.68273196,32.8235294 Z" id="Shape" fill="#003CE8" fill-rule="nonzero"></path>
                    <ellipse id="Oval" fill="#003CE8" fill-rule="nonzero" transform="translate(10.313517, 32.178574) rotate(-53.810000) translate(-10.313517, -32.178574) " cx="10.3135171" cy="32.1785743" rx="1" ry="1"></ellipse>
                    <ellipse id="Oval" fill="#003CE8" fill-rule="nonzero" transform="translate(12.193956, 31.089969) rotate(-2.020000) translate(-12.193956, -31.089969) " cx="12.1939563" cy="31.0899692" rx="1" ry="1"></ellipse>
                    <ellipse id="Oval" stroke="#003CE8" stroke-width="2.43199986" fill="#00FCDD" fill-rule="nonzero" stroke-linecap="round" stroke-linejoin="round" cx="70.9459794" cy="209.739314" rx="8.47896907" ry="8.47333333"></ellipse>
                    <path d="M70.8821134,208.070784 C71.1575725,208.070784 71.3808763,207.847629 71.3808763,207.572353 C71.3808763,207.297077 71.1575725,207.073922 70.8821134,207.073922 C70.6066543,207.073922 70.3833505,207.297077 70.3833505,207.572353 C70.3833505,207.704545 70.4358986,207.831323 70.5294348,207.924797 C70.622971,208.018271 70.7498333,208.070784 70.8821134,208.070784 Z" id="Shape" fill="#003CE8" fill-rule="nonzero"></path>
                    <path d="M69.0056701,206.940196 C69.2576144,206.940196 69.4618557,206.736091 69.4618557,206.484314 C69.4618557,206.232537 69.2576144,206.028431 69.0056701,206.028431 C68.7537258,206.028431 68.5494845,206.232537 68.5494845,206.484314 C68.5494845,206.736091 68.7537258,206.940196 69.0056701,206.940196 Z" id="Shape" fill="#003CE8" fill-rule="nonzero"></path>
                    <path d="M72.7615979,206.940196 C72.9454254,206.941425 73.1117805,206.831546 73.1826975,206.662057 C73.2536144,206.492568 73.215039,206.297057 73.0850505,206.167155 C72.9550619,206.037252 72.759421,205.998703 72.589819,206.069572 C72.420217,206.140442 72.3102652,206.306687 72.3114948,206.490392 C72.3131531,206.738122 72.513703,206.938539 72.7615979,206.940196 Z" id="Shape" fill="#003CE8" fill-rule="nonzero"></path>
                    <ellipse id="Oval" fill="#003CE8" fill-rule="nonzero" cx="70.8851546" cy="205.405392" rx="1" ry="1"></ellipse>
                    <path d="M69.2702577,208.186275 C69.1934727,208.145629 69.1077651,208.124738 69.0208763,208.12549 C68.7724667,208.128173 68.556638,208.296796 68.4940923,208.537058 C68.4315465,208.77732 68.537785,209.029673 68.753394,209.15299 C68.969003,209.276307 69.2405459,209.240024 69.4161624,209.064433 C69.5917789,208.888841 69.6279443,208.61746 69.504433,208.402059 C69.4507201,208.307552 69.3688655,208.232125 69.2702577,208.186275 Z" id="Shape" fill="#003CE8" fill-rule="nonzero"></path>
                    <path d="M68.7684536,210.398824 C68.5316588,210.535687 68.4505557,210.838365 68.5872264,211.075166 C68.723897,211.311967 69.0266787,211.393379 69.263801,211.257083 C69.5009232,211.120787 69.5827519,210.818304 69.4466495,210.581176 C69.3810818,210.466939 69.2726959,210.383494 69.1454393,210.349278 C69.0181827,210.315061 68.8825301,210.332889 68.7684536,210.398824 Z" id="Shape" fill="#003CE8" fill-rule="nonzero"></path>
                    <ellipse id="Oval" fill="#003CE8" fill-rule="nonzero" transform="translate(69.016891, 212.998871) rotate(-36.190000) translate(-69.016891, -212.998871) " cx="69.0168905" cy="212.998871" rx="1" ry="1"></ellipse>
                    <path d="M67.3299485,207.122549 C67.1769169,207.05182 66.9983202,207.064207 66.8565329,207.155384 C66.7147456,207.24656 66.6294607,207.403862 66.6304639,207.572353 C66.6279691,207.773208 66.7485631,207.955184 66.9345876,208.031275 C67.129031,208.10765 67.350535,208.053164 67.4872876,207.89532 C67.6240402,207.737475 67.6463018,207.5106 67.5428351,207.329216 C67.4934678,207.241124 67.4194925,207.16931 67.3299485,207.122549 Z" id="Shape" fill="#003CE8" fill-rule="nonzero"></path>
                    <path d="M66.9072165,209.353333 C66.7477399,209.442794 66.6582838,209.619791 66.6808846,209.801153 C66.7034854,209.982515 66.8336493,210.13218 67.010211,210.17982 C67.1867726,210.22746 67.3746263,210.163602 67.4854973,210.018254 C67.5963684,209.872906 67.6082125,209.674967 67.5154639,209.517451 C67.3901596,209.307802 67.1210814,209.235199 66.9072165,209.353333 Z" id="Shape" fill="#003CE8" fill-rule="nonzero"></path>
                    <path d="M66.9345876,211.556765 C66.7918114,211.639117 66.7127455,211.799319 66.7342668,211.962651 C66.7557881,212.125983 66.8736572,212.260271 67.0328991,212.302881 C67.192141,212.345491 67.3613866,212.28803 67.4616987,212.157299 C67.5620107,212.026567 67.5736288,211.848317 67.491134,211.705686 C67.3774658,211.512461 67.129665,211.446154 66.9345876,211.556765 Z" id="Shape" fill="#003CE8" fill-rule="nonzero"></path>
                    <path d="M71.1923196,209.216569 C71.0046934,209.108309 70.7736068,209.107958 70.5856523,209.215647 C70.3976977,209.323336 70.2812516,209.522807 70.2799485,209.739314 C70.279561,209.945313 70.3867863,210.136577 70.5627835,210.243824 C70.7462926,210.406339 71.0095036,210.442851 71.2303681,210.336427 C71.4512325,210.230003 71.5865563,210.001458 71.5735909,209.756766 C71.5606256,209.512074 71.4019067,209.299088 71.1710309,209.216569 L71.1923196,209.216569 Z" id="Shape" fill="#003CE8" fill-rule="nonzero"></path>
                    <path d="M73.044433,208.186275 C72.8460845,208.072259 72.5977004,208.093559 72.4216881,208.239676 C72.2456759,208.385792 72.1791744,208.625896 72.2549567,208.84166 C72.3307389,209.057423 72.5328146,209.203321 72.7615979,209.207451 C72.8636536,209.207392 72.9636836,209.178981 73.0505155,209.125392 C73.1248014,209.079441 73.1864677,209.015727 73.2299485,208.94 C73.3066835,208.815801 73.3302568,208.665996 73.2953701,208.524256 C73.2604833,208.382516 73.1700633,208.260731 73.044433,208.186275 Z" id="Shape" fill="#003CE8" fill-rule="nonzero"></path>
                    <path d="M74.8965464,207.137745 C74.7401533,207.050376 74.5491385,207.05239 74.3946246,207.143036 C74.2401106,207.233683 74.1452491,207.39938 74.1453608,207.578431 C74.1441948,207.766019 74.2497996,207.93797 74.4176984,208.021863 C74.5855971,208.105757 74.7866118,208.087014 74.9360825,207.973529 C74.994902,207.933396 75.0437876,207.880385 75.0790206,207.818529 C75.1468178,207.704458 75.1656776,207.567871 75.131327,207.439714 C75.0969763,207.311557 75.012323,207.202678 74.8965464,207.137745 Z" id="Shape" fill="#003CE8" fill-rule="nonzero"></path>
                    <path d="M71.1649485,211.429118 C70.9932932,211.330626 70.7816689,211.333006 70.6122749,211.435333 C70.4428809,211.53766 70.3424137,211.723807 70.3498969,211.921471 L70.3498969,211.936667 C70.3523158,212.023269 70.3763609,212.107893 70.4198454,212.182843 C70.4923033,212.307926 70.6115899,212.399054 70.75138,212.436117 C70.8911702,212.473179 71.0399726,212.45313 71.1649485,212.380392 C71.3343849,212.281106 71.438478,212.099521 71.438478,211.903235 C71.438478,211.706949 71.3343849,211.525364 71.1649485,211.426078 L71.1649485,211.429118 Z" id="Shape" fill="#003CE8" fill-rule="nonzero"></path>
                    <path d="M73.0201031,210.386667 C72.7851267,210.273083 72.5022595,210.359761 72.3713838,210.585451 C72.2405081,210.811141 72.305895,211.0995 72.5213402,211.246765 C72.6757655,211.35232 72.8763158,211.362632 73.0407661,211.273472 C73.2052164,211.184312 73.3059049,211.010679 73.3015496,210.823761 C73.2971943,210.636842 73.1885278,210.46808 73.0201031,210.386667 Z" id="Shape" fill="#003CE8" fill-rule="nonzero"></path>
                    <path d="M74.8752577,209.341176 C74.7167229,209.246548 74.5165871,209.257522 74.369363,209.368914 C74.2221389,209.480306 74.1572796,209.669833 74.2054144,209.847991 C74.2535493,210.02615 74.4050485,210.157299 74.5883678,210.179504 C74.7716871,210.201708 74.9501523,210.110527 75.0394845,209.94902 C75.1594161,209.735508 75.0864252,209.465351 74.8752577,209.341176 Z" id="Shape" fill="#003CE8" fill-rule="nonzero"></path>
                    <path d="M71.1406186,213.638627 C71.0270055,213.572833 70.8918108,213.555084 70.7650478,213.589322 C70.6382849,213.623559 70.5304432,213.70695 70.4654639,213.82098 C70.4112937,213.912506 70.3888454,214.019332 70.4015979,214.124902 C70.4098422,214.195234 70.4315233,214.263329 70.4654639,214.32549 C70.5732808,214.504039 70.7809288,214.596637 70.985914,214.557579 C71.1908993,214.51852 71.3498838,214.356063 71.3843936,214.150395 C71.4189035,213.944727 71.3216427,213.739331 71.1406186,213.635588 L71.1406186,213.638627 Z" id="Shape" fill="#003CE8" fill-rule="nonzero"></path>
                    <ellipse id="Oval" fill="#003CE8" fill-rule="nonzero" transform="translate(72.772570, 212.980548) rotate(-53.810000) translate(-72.772570, -212.980548) " cx="72.77257" cy="212.980548" rx="1" ry="1"></ellipse>
                    <ellipse id="Oval" fill="#003CE8" fill-rule="nonzero" transform="translate(74.661569, 211.890392) rotate(-2.020000) translate(-74.661569, -211.890392) " cx="74.661569" cy="211.890392" rx="1" ry="1"></ellipse>
                    <ellipse id="Oval" stroke="#003CE8" stroke-width="2.43199986" fill="#EAEAEB" fill-rule="nonzero" stroke-linecap="round" stroke-linejoin="round" cx="175.701392" cy="138.749314" rx="5.61716495" ry="5.61343137"></ellipse>
                    <ellipse id="Oval" stroke="#003CE8" stroke-width="2.43199986" fill="#00FCDD" fill-rule="nonzero" stroke-linecap="round" stroke-linejoin="round" cx="389.588557" cy="218.212647" rx="8.47896907" ry="8.47333333"></ellipse>
                    <path d="M389.524691,216.544118 C389.726694,216.545349 389.909492,216.424693 389.98765,216.238543 C390.065808,216.052393 390.02389,215.837512 389.881487,215.694331 C389.739085,215.55115 389.524321,215.507946 389.337573,215.584912 C389.150824,215.661878 389.028973,215.843814 389.028969,216.045686 C389.028964,216.31978 389.25042,216.542446 389.524691,216.544118 Z" id="Shape" fill="#003CE8" fill-rule="nonzero"></path>
                    <path d="M387.648247,215.413529 C387.900192,215.413529 388.104433,215.209424 388.104433,214.957647 C388.104433,214.70587 387.900192,214.501765 387.648247,214.501765 C387.396303,214.501765 387.192062,214.70587 387.192062,214.957647 C387.192062,215.209424 387.396303,215.413529 387.648247,215.413529 Z" id="Shape" fill="#003CE8" fill-rule="nonzero"></path>
                    <path d="M391.407216,215.413529 C391.591044,215.414758 391.757399,215.30488 391.828316,215.13539 C391.899233,214.965901 391.860658,214.77039 391.730669,214.640488 C391.60068,214.510586 391.40504,214.472036 391.235438,214.542906 C391.065836,214.613776 390.955884,214.78002 390.957113,214.963725 C390.958772,215.211456 391.159322,215.411872 391.407216,215.413529 Z" id="Shape" fill="#003CE8" fill-rule="nonzero"></path>
                    <ellipse id="Oval" fill="#003CE8" fill-rule="nonzero" cx="389.527732" cy="213.878725" rx="1" ry="1"></ellipse>
                    <path d="M387.912835,216.656569 C387.83605,216.615923 387.750342,216.595032 387.663454,216.595784 C387.417066,216.600604 387.204274,216.769353 387.143597,217.008043 C387.08292,217.246732 387.189319,217.496514 387.403531,217.618266 C387.617743,217.740018 387.886956,217.703723 388.061224,217.529596 C388.235493,217.355469 388.271853,217.086441 388.150052,216.872353 C388.094169,216.778486 388.01159,216.703367 387.912835,216.656569 Z" id="Shape" fill="#003CE8" fill-rule="nonzero"></path>
                    <path d="M387.411031,218.872157 C387.235452,218.972215 387.137659,219.168277 387.163402,219.368619 C387.189146,219.568961 387.333335,219.733969 387.528515,219.786449 C387.723696,219.838929 387.931273,219.768504 388.054137,219.608119 C388.177002,219.447735 388.190859,219.229105 388.089227,219.05451 C388.023659,218.940273 387.915273,218.856828 387.788017,218.822611 C387.66076,218.788394 387.525107,218.806223 387.411031,218.872157 Z" id="Shape" fill="#003CE8" fill-rule="nonzero"></path>
                    <ellipse id="Oval" fill="#003CE8" fill-rule="nonzero" transform="translate(387.660911, 221.477468) rotate(-36.190000) translate(-387.660911, -221.477468) " cx="387.660911" cy="221.477468" rx="1" ry="1"></ellipse>
                    <path d="M385.972526,215.595882 C385.819494,215.525154 385.640898,215.537541 385.49911,215.628717 C385.357323,215.719893 385.272038,215.877196 385.273041,216.045686 C385.270546,216.246541 385.39114,216.428517 385.577165,216.504608 C385.771608,216.580983 385.993112,216.526497 386.129865,216.368653 C386.266617,216.210809 386.288879,215.983933 386.185412,215.802549 C386.136045,215.714457 386.06207,215.642643 385.972526,215.595882 Z" id="Shape" fill="#003CE8" fill-rule="nonzero"></path>
                    <path d="M385.555876,217.826667 C385.3964,217.916127 385.306944,218.093125 385.329544,218.274486 C385.352145,218.455848 385.482309,218.605514 385.658871,218.653153 C385.835432,218.700793 386.023286,218.636936 386.134157,218.491587 C386.245028,218.346239 386.256872,218.1483 386.164124,217.990784 C386.038819,217.781135 385.769741,217.708532 385.555876,217.826667 Z" id="Shape" fill="#003CE8" fill-rule="nonzero"></path>
                    <path d="M385.577165,220.039216 C385.450584,220.111965 385.372456,220.246673 385.37221,220.392597 C385.371964,220.53852 385.449638,220.67349 385.575973,220.746665 C385.702308,220.81984 385.85811,220.820102 385.984691,220.747353 C386.180367,220.634893 386.247767,220.385204 386.135232,220.189657 C386.022697,219.99411 385.772842,219.926755 385.577165,220.039216 Z" id="Shape" fill="#003CE8" fill-rule="nonzero"></path>
                    <path d="M389.834897,217.689902 C389.647271,217.581643 389.416184,217.581292 389.22823,217.688981 C389.040275,217.79667 388.923829,217.99614 388.922526,218.212647 C388.922138,218.418646 389.029364,218.60991 389.205361,218.717157 C389.385131,218.834407 389.614442,218.844827 389.804119,218.744365 C389.993796,218.643904 390.113903,218.448415 390.117732,218.233922 C390.133329,218.013858 390.024047,217.803659 389.834897,217.689902 Z" id="Shape" fill="#003CE8" fill-rule="nonzero"></path>
                    <path d="M391.68701,216.65049 C391.488662,216.536475 391.240278,216.557774 391.064265,216.703891 C390.888253,216.850008 390.821752,217.090112 390.897534,217.305875 C390.973316,217.521639 391.175392,217.667536 391.404175,217.671667 C391.511384,217.674504 391.617088,217.645983 391.708299,217.589608 C391.782585,217.543657 391.844251,217.479942 391.887732,217.404216 C391.963205,217.278156 391.984455,217.126951 391.946651,216.984992 C391.908846,216.843033 391.8152,216.722386 391.68701,216.65049 Z" id="Shape" fill="#003CE8" fill-rule="nonzero"></path>
                    <path d="M393.536082,215.611078 C393.35546,215.506863 393.129021,215.525964 392.968436,215.658962 C392.80785,215.79196 392.747029,216.010768 392.815968,216.20748 C392.884907,216.404193 393.069046,216.537267 393.277577,216.541078 C393.387019,216.540657 393.493504,216.505541 393.581701,216.440784 C393.717843,216.342814 393.795162,216.182678 393.787182,216.015212 C393.779203,215.847747 393.687007,215.695678 393.542165,215.611078 L393.536082,215.611078 Z" id="Shape" fill="#003CE8" fill-rule="nonzero"></path>
                    <path d="M389.810567,219.902451 C389.550042,219.752753 389.217467,219.840928 389.065464,220.1 C389.0128,220.192249 388.988473,220.297949 388.995515,220.403922 L388.995515,220.419118 C388.999367,220.505494 389.023317,220.589784 389.065464,220.665294 C389.184391,220.859432 389.411186,220.95969 389.63493,220.917034 C389.858674,220.874378 390.032607,220.697723 390.071663,220.473466 C390.110718,220.249209 390.006735,220.024218 389.810567,219.908529 L389.810567,219.902451 Z" id="Shape" fill="#003CE8" fill-rule="nonzero"></path>
                    <path d="M391.66268,218.86 C391.425395,218.723988 391.122711,218.805762 390.986324,219.042727 C390.849938,219.279692 390.931404,219.582272 391.168362,219.718852 C391.405321,219.855432 391.7082,219.774382 391.845155,219.537745 C391.911968,219.423938 391.930276,219.288094 391.895971,219.160677 C391.861665,219.033261 391.777619,218.924937 391.66268,218.86 Z" id="Shape" fill="#003CE8" fill-rule="nonzero"></path>
                    <path d="M393.517835,217.81451 C393.359758,217.722805 393.161883,217.735739 393.017106,217.847239 C392.872329,217.95874 392.809402,218.146663 392.857868,218.322786 C392.906334,218.498908 393.056567,218.628252 393.238038,218.650094 C393.419509,218.671936 393.596177,218.581939 393.685103,218.422353 C393.80279,218.207848 393.728729,217.938715 393.517835,217.81451 Z" id="Shape" fill="#003CE8" fill-rule="nonzero"></path>
                    <path d="M389.783196,222.111961 C389.669583,222.046166 389.534388,222.028418 389.407625,222.062655 C389.280862,222.096893 389.173021,222.180283 389.108041,222.294314 C389.054708,222.386118 389.033319,222.492994 389.047216,222.598235 C389.052097,222.669249 389.074002,222.738048 389.111082,222.798824 C389.220393,222.972746 389.425757,223.061228 389.627346,223.021257 C389.828936,222.981286 389.984939,222.821154 390.019524,222.6187 C390.054108,222.416247 389.960099,222.213462 389.783196,222.108922 L389.783196,222.111961 Z" id="Shape" fill="#003CE8" fill-rule="nonzero"></path>
                    <ellipse id="Oval" fill="#003CE8" fill-rule="nonzero" transform="translate(391.410444, 221.450713) rotate(-53.810000) translate(-391.410444, -221.450713) " cx="391.410444" cy="221.450713" rx="1" ry="1"></ellipse>
                    <ellipse id="Oval" fill="#003CE8" fill-rule="nonzero" transform="translate(393.307685, 220.342821) rotate(-2.020000) translate(-393.307685, -220.342821) " cx="393.307685" cy="220.342821" rx="1" ry="1"></ellipse>
                    <path d="M209.979175,169.050294 C209.979175,180.799881 200.447918,190.324804 188.690515,190.324804 C176.933113,190.324804 167.401856,180.799881 167.401856,169.050294 C167.401856,157.300707 176.933113,147.775784 188.690515,147.775784 C194.342071,147.75795 199.7673,149.993637 203.763574,153.987255 C207.759847,157.980872 209.997022,163.402495 209.979175,169.050294 Z" id="Shape" stroke="#003CE8" stroke-width="2.43199986" fill="#FFFFFF" fill-rule="nonzero" stroke-linecap="round" stroke-linejoin="round"></path>
                    <ellipse id="Oval" stroke="#003CE8" stroke-width="2.43199986" fill="#00FCDD" fill-rule="nonzero" stroke-linecap="round" stroke-linejoin="round" cx="188.690515" cy="165.792255" rx="7.8342268" ry="7.82901961"></ellipse>
                    <path d="M203.592577,184.243333 C195.31462,192.351961 182.066411,192.351961 173.788454,184.243333 C176.708041,178.091961 182.288711,173.931275 188.690515,173.931275 C195.09232,173.931275 200.67299,178.098039 203.592577,184.243333 Z" id="Shape" stroke="#003CE8" stroke-width="2.43199986" fill="#00FCDD" fill-rule="nonzero" stroke-linecap="round" stroke-linejoin="round"></path>
                    <path d="M301.547784,120.726765 C301.547784,138.183294 287.387058,152.334608 269.918918,152.334608 C252.450777,152.334608 238.290052,138.183294 238.290052,120.726765 C238.290052,103.270235 252.450777,89.1189216 269.918918,89.1189216 C278.314103,89.0970556 286.371748,92.4201359 292.308061,98.3525029 C298.244373,104.28487 301.569664,112.337159 301.547784,120.726765 Z" id="Shape" stroke="#003CE8" stroke-width="2.43199986" fill="#FFFFFF" fill-rule="nonzero" stroke-linecap="round" stroke-linejoin="round"></path>
                    <ellipse id="Oval" stroke="#003CE8" stroke-width="2.43199986" fill="#EAEAEB" fill-rule="nonzero" stroke-linecap="round" stroke-linejoin="round" cx="269.906753" cy="115.885294" rx="11.6418557" ry="11.6341176"></ellipse>
                    <path d="M292.056082,143.308137 C279.755179,155.367162 260.058327,155.367162 247.757423,143.308137 C252.097268,134.166176 260.390722,127.981373 269.906753,127.981373 C279.422784,127.981373 287.716237,134.166176 292.056082,143.308137 Z" id="Shape" stroke="#003CE8" stroke-width="2.43199986" fill="#EAEAEB" fill-rule="nonzero" stroke-linecap="round" stroke-linejoin="round"></path>
                    <path d="M287.448608,359.17451 C287.459362,365.234878 285.717875,371.169306 282.433608,376.26402 C281.506815,377.709051 280.461061,379.074336 279.307216,380.345686 C278.875361,380.828922 278.422216,381.3 277.956907,381.755882 C267.201469,392.288476 250.506743,393.782795 238.049505,385.327932 C225.592267,376.873069 220.827225,360.813772 226.659055,346.939471 C232.490884,333.06517 247.302271,325.223561 262.064486,328.194734 C276.826701,331.165907 287.445808,344.12588 287.448608,359.17451 Z" id="Shape" stroke="#003CE8" stroke-width="2.43199986" fill="#FFFFFF" fill-rule="nonzero" stroke-linecap="round" stroke-linejoin="round"></path>
                    <ellipse id="Oval" fill="#EAEAEB" fill-rule="nonzero" cx="262.233711" cy="350.819706" rx="10.4983505" ry="10.4913725"></ellipse>
                    <path d="M281.673299,374.492157 C280.746506,375.937188 279.700752,377.302474 278.546907,378.573824 C267.293149,386.404152 252.057248,385.127892 242.264948,375.534608 C246.175979,367.292255 253.654381,361.715294 262.233711,361.715294 C270.44201,361.724412 277.64366,366.833333 281.673299,374.492157 Z" id="Shape" fill="#EAEAEB" fill-rule="nonzero"></path>
                    <ellipse id="Oval" stroke="#003CE8" stroke-width="2.43199986" fill="#FFFFFF" fill-rule="nonzero" stroke-linecap="round" stroke-linejoin="round" cx="255.810619" cy="354.333039" rx="11.6418557" ry="11.6341176"></ellipse>
                    <path d="M277.969072,381.755882 C265.668539,393.81292 245.973987,393.81292 233.673454,381.755882 C238.013299,372.613922 246.306753,366.429118 255.822784,366.429118 C265.338814,366.429118 273.620103,372.607843 277.969072,381.755882 Z" id="Shape" stroke="#003CE8" stroke-width="2.43199986" fill="#FFFFFF" fill-rule="nonzero" stroke-linecap="round" stroke-linejoin="round"></path>
                    <path d="M82.9771134,251.726078 C82.9771134,269.182608 68.8163878,283.333922 51.3482474,283.333922 C33.8801071,283.333922 19.7193814,269.182608 19.7193814,251.726078 C19.7193814,234.269549 33.8801071,220.118235 51.3482474,220.118235 C59.7441776,220.093927 67.8032441,223.416223 73.7400881,229.349121 C79.6769322,235.282019 83.0014378,243.335729 82.9771134,251.726078 Z" id="Shape" stroke="#003CE8" stroke-width="2.43199986" fill="#FFFFFF" fill-rule="nonzero" stroke-linecap="round" stroke-linejoin="round"></path>
                    <ellipse id="Oval" fill="#00FCDD" fill-rule="nonzero" cx="55.8979381" cy="243.845392" rx="11.6418557" ry="11.6341176"></ellipse>
                    <ellipse id="Oval" stroke="#003CE8" stroke-width="2.43199986" stroke-linecap="round" stroke-linejoin="round" cx="51.3360825" cy="246.884608" rx="11.6418557" ry="11.6341176"></ellipse>
                    <path d="M73.4854124,274.307451 C61.1848788,286.364489 41.4903273,286.364489 29.1897938,274.307451 C33.5265979,265.16549 41.8230928,258.980686 51.3360825,258.980686 C60.8490722,258.980686 69.145567,265.16549 73.4854124,274.307451 Z" id="Shape" stroke="#003CE8" stroke-width="2.43199986" fill="#FFFFFF" fill-rule="nonzero" stroke-linecap="round" stroke-linejoin="round"></path>
                    <path d="M125.384124,424.052647 C125.384124,446.209012 107.410895,464.170294 85.2397938,464.170294 C63.0686926,464.170294 45.0954639,446.209012 45.0954639,424.052647 C45.0954639,401.896282 63.0686926,383.935 85.2397938,383.935 C95.8966442,383.90258 106.126371,388.118837 113.661937,395.649395 C121.197504,403.179952 125.416565,413.40288 125.384124,424.052647 Z" id="Shape" stroke="#003CE8" stroke-width="2.43199986" fill="#FFFFFF" fill-rule="nonzero" stroke-linecap="round" stroke-linejoin="round"></path>
                    <ellipse id="Oval" stroke="#003CE8" stroke-width="2.43199986" fill="#00FCDD" fill-rule="nonzero" stroke-linecap="round" stroke-linejoin="round" cx="85.2306701" cy="417.907353" rx="14.7743299" ry="14.7645098"></ellipse>
                    <path d="M113.337784,452.709412 C97.7260667,468.0099 72.7322323,468.0099 57.1205155,452.709412 C62.6281959,441.108725 73.1539175,433.258431 85.2306701,433.258431 C97.3074227,433.258431 107.833144,441.108725 113.337784,452.709412 Z" id="Shape" stroke="#003CE8" stroke-width="2.43199986" fill="#00FCDD" fill-rule="nonzero" stroke-linecap="round" stroke-linejoin="round"></path>
                    <path d="M85.2306701,72.0901961 C85.2432625,80.5070003 82.5962585,88.7128958 77.6671134,95.5377451 C76.3224622,97.3973256 74.822858,99.1399397 73.1843299,100.746961 C59.5332729,114.115942 38.3432806,116.012932 22.5318148,105.281523 C6.72034892,94.5501136 0.672536402,74.1665365 8.07513585,56.556661 C15.4777353,38.9467856 34.2777215,28.9945068 53.0145852,32.7667537 C71.7514489,36.5390007 85.228738,52.9895844 85.2306701,72.0901961 Z" id="Shape" stroke="#003CE8" stroke-width="2.43199986" fill="#FFFFFF" fill-rule="nonzero" stroke-linecap="round" stroke-linejoin="round"></path>
                    <ellipse id="Oval" fill="#EAEAEB" fill-rule="nonzero" cx="50.201701" cy="64.1882353" rx="14.7743299" ry="14.7645098"></ellipse>
                    <path d="M75.8423711,94.55 C74.49772,96.4095805 72.9981158,98.1521946 71.3595876,99.7592157 C65.8100799,105.203343 58.7960192,108.917121 51.1718557,110.448137 C50.8494845,110.448137 50.5271134,110.448137 50.201701,110.448137 C39.689302,110.459929 29.5938615,106.340164 22.0945876,98.9781373 C27.602268,87.3744118 38.1279897,79.5271569 50.201701,79.5271569 C60.6635567,79.5393137 69.9636598,85.4293137 75.8423711,94.55 Z" id="Shape" fill="#EAEAEB" fill-rule="nonzero"></path>
                    <ellipse id="Oval" stroke="#003CE8" stroke-width="2.43199986" stroke-linecap="round" stroke-linejoin="round" cx="45.0741753" cy="65.944902" rx="14.7743299" ry="14.7645098"></ellipse>
                    <path d="M73.1843299,100.746961 C57.5726131,116.047449 32.5787787,116.047449 16.9670619,100.746961 C22.4747423,89.1462745 33.0004639,81.2959804 45.0741753,81.2959804 C57.1478866,81.2959804 67.6766495,89.1462745 73.1843299,100.746961 Z" id="Shape" stroke="#003CE8" stroke-width="2.43199986" stroke-linecap="round" stroke-linejoin="round"></path>
                    <path d="M438.877887,273.067451 C438.887086,279.835006 437.17724,286.494165 433.908505,292.421176 C433.324588,293.472745 432.697079,294.495948 432.025979,295.490784 C430.510216,297.739034 428.769802,299.827569 426.831546,301.724216 C426.113814,302.423235 425.374794,303.097941 424.605361,303.742255 L424.371186,303.936765 C409.902132,315.937048 389.036732,316.293243 374.165979,304.793822 C359.295226,293.2944 354.403915,273.02077 362.396769,256.012498 C370.389623,239.004227 389.12486,229.818883 407.476494,233.911217 C425.828128,238.00355 438.878619,254.276972 438.877887,273.067451 Z" id="Shape" stroke="#003CE8" stroke-width="2.43199986" fill="#FFFFFF" fill-rule="nonzero" stroke-linecap="round" stroke-linejoin="round"></path>
                    <ellipse id="Oval" fill="#00FCDD" fill-rule="nonzero" cx="407.188196" cy="265.308333" rx="13.7068557" ry="13.6977451"></ellipse>
                    <path d="M431.484639,293.746275 C430.943299,294.722876 430.360395,295.672124 429.735928,296.59402 C428.330295,298.677154 426.716209,300.611955 424.918608,302.368529 C424.252577,303.015882 423.568299,303.641961 422.853608,304.240686 C408.793981,310.740742 392.177096,307.875914 381.109588,297.043824 C386.218866,286.278922 395.984278,279 407.188196,279 C417.199948,279 426.07732,284.826176 431.484639,293.746275 Z" id="Shape" fill="#00FCDD" fill-rule="nonzero"></path>
                    <ellipse id="Oval" stroke="#003CE8" stroke-width="2.43199986" fill="#FFFFFF" fill-rule="nonzero" stroke-linecap="round" stroke-linejoin="round" cx="398.721392" cy="266.922157" rx="14.7743299" ry="14.7645098"></ellipse>
                    <path d="M426.831546,301.724216 C411.21983,317.024704 386.225995,317.024704 370.614278,301.724216 C376.121959,290.12049 386.64768,282.273235 398.721392,282.273235 C410.795103,282.273235 421.323866,290.12049 426.831546,301.724216 Z" id="Shape" stroke="#003CE8" stroke-width="2.43199986" fill="#FFFFFF" fill-rule="nonzero" stroke-linecap="round" stroke-linejoin="round"></path>
                    <path d="M187.613918,288.491471 L187.613918,243.258824" id="Shape" stroke="#003CE8" stroke-width="2.43199986" stroke-linecap="round" stroke-linejoin="round" stroke-dasharray="5.167999989509582"></path>
                    <ellipse id="Oval" stroke="#003CE8" stroke-width="2.43199986" fill="#00FCDD" fill-rule="nonzero" stroke-linecap="round" stroke-linejoin="round" cx="188.690515" cy="243.46549" rx="35.4760309" ry="35.452451"></ellipse>
                    <path d="M188.669227,236.794412 C189.453054,236.795641 190.160385,236.324735 190.461196,235.601407 C190.762007,234.878079 190.597014,234.044882 190.043199,233.490565 C189.489384,232.936248 188.655893,232.770056 187.931612,233.06953 C187.207331,233.369004 186.735001,234.075124 186.735,234.858431 C186.734999,235.926458 187.600491,236.792735 188.669227,236.794412 Z" id="Shape" fill="#003CE8" fill-rule="nonzero"></path>
                    <path d="M181.370258,232.402745 C182.081788,232.403974 182.723883,231.976427 182.996742,231.319731 C183.269601,230.663034 183.119402,229.906724 182.616273,229.40393 C182.113145,228.901136 181.356332,228.751036 180.699199,229.023714 C180.042065,229.296392 179.614234,229.938061 179.615464,230.649118 C179.615464,231.617619 180.401112,232.402745 181.370258,232.402745 Z" id="Shape" fill="#003CE8" fill-rule="nonzero"></path>
                    <path d="M195.97732,232.402745 C196.688574,232.402744 197.329736,231.974416 197.601636,231.317622 C197.873537,230.660827 197.722585,229.905016 197.219217,229.402853 C196.715849,228.900689 195.959275,228.751147 195.302515,229.024004 C194.645756,229.29686 194.218254,229.938337 194.219485,230.649118 C194.219484,231.114736 194.404781,231.561239 194.734527,231.890195 C195.064272,232.219152 195.511393,232.403552 195.97732,232.402745 Z" id="Shape" fill="#003CE8" fill-rule="nonzero"></path>
                    <ellipse id="Oval" fill="#003CE8" fill-rule="nonzero" cx="188.675309" cy="226.436765" rx="1.59056701" ry="1.5895098"></ellipse>
                    <path d="M182.398196,237.22902 L182.349536,237.201667 L182.331289,237.201667 C181.168954,236.591909 179.732052,237.032967 179.112644,238.189632 C178.493235,239.346297 178.923119,240.785714 180.07558,241.413911 C181.22804,242.042108 182.671794,241.623997 183.309575,240.477346 C183.947356,239.330696 183.540489,237.884614 182.398196,237.238137 L182.398196,237.22902 Z" id="Shape" fill="#003CE8" fill-rule="nonzero"></path>
                    <path d="M180.445722,245.845196 C179.521979,246.37999 179.206472,247.561562 179.740785,248.485174 C180.275098,249.408786 181.45717,249.725153 182.38188,249.192032 C183.306589,248.65891 183.624237,247.47791 183.091598,246.553333 C182.556485,245.627831 181.372069,245.310837 180.445722,245.845196 Z" id="Shape" fill="#003CE8" fill-rule="nonzero"></path>
                    <ellipse id="Oval" fill="#003CE8" fill-rule="nonzero" transform="translate(181.415865, 255.949718) rotate(-36.190000) translate(-181.415865, -255.949718) " cx="181.415865" cy="255.949718" rx="1.75479381" ry="1.75362745"></ellipse>
                    <path d="M174.871134,233.107843 C174.621468,232.992034 174.34958,232.931885 174.07433,232.931569 C173.025174,232.913901 172.1331,233.693106 172.010242,234.734501 C171.887383,235.775896 172.573664,236.74106 173.598166,236.967708 C174.622667,237.194355 175.652459,236.608832 175.980907,235.612919 C176.309355,234.617006 175.829725,233.534343 174.871134,233.107843 Z" id="Shape" fill="#003CE8" fill-rule="nonzero"></path>
                    <path d="M173.234948,241.784804 C172.620163,242.139412 172.279711,242.829234 172.37238,243.532533 C172.465049,244.235833 172.972585,244.814069 173.658271,244.997551 C174.343957,245.181032 175.072722,244.933616 175.504667,244.370697 C175.936612,243.807779 175.986651,243.040246 175.631443,242.426078 C175.146682,241.587907 174.073963,241.30086 173.234948,241.784804 Z" id="Shape" fill="#003CE8" fill-rule="nonzero"></path>
                    <path d="M173.317062,250.352353 C172.759651,250.673737 172.450949,251.299112 172.534983,251.936709 C172.619016,252.574305 173.079224,253.098475 173.700895,253.264666 C174.322567,253.430857 174.983193,253.206319 175.374557,252.69581 C175.765921,252.185301 175.810898,251.489424 175.488505,250.932843 C175.04887,250.173854 174.077183,249.914094 173.317062,250.352353 Z" id="Shape" fill="#003CE8" fill-rule="nonzero"></path>
                    <path d="M189.870515,241.25598 C188.957417,240.711196 187.79265,240.843063 187.024646,241.578172 C186.256641,242.313281 186.074624,243.47051 186.579923,244.405627 C187.085222,245.340744 188.153339,245.82335 189.189651,245.584775 C190.225962,245.346201 190.975135,244.445228 191.020103,243.383431 C191.070723,242.514002 190.625754,241.690535 189.870515,241.25598 Z" id="Shape" fill="#003CE8" fill-rule="nonzero"></path>
                    <path d="M197.072165,237.210784 C196.168902,236.658326 194.997463,236.846523 194.312979,237.654059 C193.628495,238.461595 193.635416,239.647266 194.32928,240.446767 C195.023145,241.246268 196.196701,241.420794 197.093454,240.857843 L197.142113,240.827451 C197.770385,240.434068 198.146045,239.740102 198.131718,238.999328 C198.117391,238.258554 197.715178,237.579612 197.072165,237.210784 Z" id="Shape" fill="#003CE8" fill-rule="nonzero"></path>
                    <path d="M204.279897,233.165588 C203.57595,232.752527 202.688726,232.82314 202.059075,233.342339 C201.429424,233.861539 201.191583,234.718635 201.463734,235.487748 C201.735884,236.256861 202.460005,236.77402 203.276289,236.782255 C204.154032,236.786022 204.925698,236.202225 205.160257,235.356956 C205.394815,234.511687 205.034223,233.614111 204.279897,233.165588 Z" id="Shape" fill="#003CE8" fill-rule="nonzero"></path>
                    <path d="M189.773196,249.850882 C189.105967,249.465809 188.281919,249.474079 187.622562,249.872465 C186.963206,250.270851 186.573015,250.99623 186.604227,251.765588 L186.604227,251.838529 C186.618615,252.175568 186.714626,252.504085 186.884021,252.795882 C187.345193,253.555518 188.230194,253.948746 189.103505,253.782055 C189.976816,253.615363 190.654495,252.923861 190.803051,252.047845 C190.951606,251.171828 190.539747,250.295808 189.770155,249.850882 L189.773196,249.850882 Z" id="Shape" fill="#003CE8" fill-rule="nonzero"></path>
                    <path d="M196.983969,245.793529 C196.305907,245.400774 195.457843,245.454983 194.835379,245.93087 C194.212915,246.406756 193.938693,247.210558 194.140631,247.967321 C194.342568,248.724084 194.980879,249.284705 195.757805,249.387669 C196.534732,249.490633 197.2972,249.115652 197.689536,248.437647 C198.222968,247.512473 197.907546,246.330426 196.983969,245.793529 Z" id="Shape" fill="#003CE8" fill-rule="nonzero"></path>
                    <path d="M204.191701,241.739216 C203.351904,241.255839 202.278999,241.544314 201.795288,242.383546 C201.311577,243.222778 201.600228,244.294974 202.440011,244.778376 C203.279794,245.261778 204.352707,244.973335 204.836443,244.134118 C205.069576,243.731284 205.132616,243.252267 205.011638,242.802893 C204.890661,242.353519 204.595621,241.970773 204.191701,241.739216 Z" id="Shape" fill="#003CE8" fill-rule="nonzero"></path>
                    <path d="M189.672835,258.445784 C188.883949,257.97791 187.876206,258.116884 187.243607,258.78079 C186.611008,259.444695 186.521416,260.457362 187.027641,261.221887 C187.533865,261.986411 188.501575,262.299924 189.360369,261.977628 C190.219162,261.655332 190.741153,260.782751 190.61866,259.874216 C190.544578,259.276343 190.194523,258.747672 189.672835,258.445784 Z" id="Shape" fill="#003CE8" fill-rule="nonzero"></path>
                    <ellipse id="Oval" fill="#003CE8" fill-rule="nonzero" transform="translate(196.674614, 255.014814) rotate(-53.930590) translate(-196.674614, -255.014814) " cx="196.674614" cy="255.014814" rx="1.75847502" ry="1.75730621"></ellipse>
                    <ellipse id="Oval" fill="#003CE8" fill-rule="nonzero" transform="translate(204.743746, 250.577012) rotate(-2.290610) translate(-204.743746, -250.577012) " cx="204.743746" cy="250.577012" rx="1.59183896" ry="1.5907809"></ellipse>
                    <path d="M208.282165,320.184412 C208.282165,331.933999 198.750907,341.458922 186.993505,341.458922 C175.236103,341.458922 165.704845,331.933999 165.704845,320.184412 C165.704845,308.434824 175.236103,298.909902 186.993505,298.909902 C192.645061,298.892068 198.07029,301.127755 202.066563,305.121372 C206.062837,309.114989 208.300011,314.536612 208.282165,320.184412 Z" id="Shape" stroke="#003CE8" stroke-width="2.43199986" fill="#FFFFFF" fill-rule="nonzero" stroke-linecap="round" stroke-linejoin="round"></path>
                    <ellipse id="Oval" stroke="#003CE8" stroke-width="2.43199986" fill="#FFFFFF" fill-rule="nonzero" stroke-linecap="round" stroke-linejoin="round" cx="186.993505" cy="316.926373" rx="7.8342268" ry="7.82901961"></ellipse>
                    <path d="M201.895567,335.377451 C193.61761,343.486079 180.369401,343.486079 172.091443,335.377451 C175.011031,329.226078 180.591701,325.065392 186.993505,325.065392 C193.395309,325.065392 198.975979,329.226078 201.895567,335.377451 Z" id="Shape" stroke="#003CE8" stroke-width="2.43199986" fill="#FFFFFF" fill-rule="nonzero" stroke-linecap="round" stroke-linejoin="round"></path>
                    <path d="M275.098144,56.0887255 C274.874567,55.6543059 274.426746,55.3812295 273.937912,55.3812295 C273.449079,55.3812295 273.001257,55.6543059 272.77768,56.0887255 L266.473196,68.3337255 C266.278448,68.7080793 266.278448,69.1537834 266.473196,69.5281373 L272.77768,81.7731373 C273.001257,82.2075568 273.449079,82.4806333 273.937912,82.4806333 C274.426746,82.4806333 274.874567,82.2075568 275.098144,81.7731373 L281.40567,69.5281373 C281.597378,69.1530467 281.597378,68.7088161 281.40567,68.3337255 L275.098144,56.0887255 Z" id="Shape" fill="#00FCDD" fill-rule="nonzero"></path>
                    <path d="M271.135412,56.0887255 C270.910881,55.6545614 270.462704,55.381875 269.97366,55.381875 C269.484616,55.381875 269.036439,55.6545614 268.811907,56.0887255 L262.507423,68.3337255 C262.315715,68.7088161 262.315715,69.1530467 262.507423,69.5281373 L268.811907,81.7731373 C269.036439,82.2073014 269.484616,82.4799877 269.97366,82.4799877 C270.462704,82.4799877 270.910881,82.2073014 271.135412,81.7731373 L277.439897,69.5281373 C277.631605,69.1530467 277.631605,68.7088161 277.439897,68.3337255 L271.135412,56.0887255 Z" id="Shape" stroke="#003CE8" stroke-width="2.43199986" stroke-linecap="round" stroke-linejoin="round"></path>
                    <path d="M424.036649,200.731078 C423.813073,200.296659 423.365251,200.023582 422.876418,200.023582 C422.387584,200.023582 421.939762,200.296659 421.716186,200.731078 L415.411701,212.976078 C415.216953,213.350432 415.216953,213.796136 415.411701,214.17049 L421.716186,226.421569 C421.939762,226.855988 422.387584,227.129065 422.876418,227.129065 C423.365251,227.129065 423.813073,226.855988 424.036649,226.421569 L430.335052,214.17049 C430.526759,213.7954 430.526759,213.351169 430.335052,212.976078 L424.036649,200.731078 Z" id="Shape" fill="#00FCDD" fill-rule="nonzero"></path>
                    <path d="M420.073918,200.731078 C419.849386,200.296914 419.401209,200.024228 418.912165,200.024228 C418.423121,200.024228 417.974944,200.296914 417.750412,200.731078 L411.445928,212.976078 C411.25422,213.351169 411.25422,213.7954 411.445928,214.17049 L417.750412,226.421569 C417.974944,226.855733 418.423121,227.128419 418.912165,227.128419 C419.401209,227.128419 419.849386,226.855733 420.073918,226.421569 L426.381443,214.17049 C426.576191,213.796136 426.576191,213.350432 426.381443,212.976078 L420.073918,200.731078 Z" id="Shape" stroke="#003CE8" stroke-width="2.43199986" stroke-linecap="round" stroke-linejoin="round"></path>
                    <path d="M44.8856186,0.978627451 C44.6620417,0.544207906 44.21422,0.27113142 43.7253866,0.27113142 C43.2365532,0.27113142 42.7887315,0.544207906 42.5651546,0.978627451 L36.2606701,13.2236275 C36.0659223,13.5979813 36.0659223,14.0436854 36.2606701,14.4180392 L42.5773196,26.66 C42.8008965,27.0944195 43.2487182,27.367496 43.7375515,27.367496 C44.2263849,27.367496 44.6742066,27.0944195 44.8977835,26.66 L51.2053093,14.4180392 C51.3970169,14.0429486 51.3970169,13.598718 51.2053093,13.2236275 L44.8856186,0.978627451 Z" id="Shape" fill="#EAEAEB" fill-rule="nonzero"></path>
                    <path d="M40.9228866,0.978627451 C40.6993097,0.544207906 40.251488,0.27113142 39.7626546,0.27113142 C39.2738212,0.27113142 38.8259996,0.544207906 38.6024227,0.978627451 L32.2948969,13.2236275 C32.1031893,13.598718 32.1031893,14.0429486 32.2948969,14.4180392 L38.6024227,26.66 C38.8259996,27.0944195 39.2738212,27.367496 39.7626546,27.367496 C40.251488,27.367496 40.6993097,27.0944195 40.9228866,26.66 L47.2273711,14.4180392 C47.4221189,14.0436854 47.4221189,13.5979813 47.2273711,13.2236275 L40.9228866,0.978627451 Z" id="Shape" stroke="#003CE8" stroke-width="2.43199986" stroke-linecap="round" stroke-linejoin="round"></path>
                    <path d="M40.6674227,195.80451 C40.4886406,195.457249 40.1306312,195.238974 39.7398454,195.238974 C39.3490595,195.238974 38.9910501,195.457249 38.812268,195.80451 L33.7820619,205.575588 C33.6267876,205.87477 33.6267876,206.23072 33.7820619,206.529902 L38.812268,216.30098 C38.9910501,216.648241 39.3490595,216.866517 39.7398454,216.866517 C40.1306312,216.866517 40.4886406,216.648241 40.6674227,216.30098 L45.6976289,206.529902 C45.8529032,206.23072 45.8529032,205.87477 45.6976289,205.575588 L40.6674227,195.80451 Z" id="Shape" fill="#EAEAEB" fill-rule="nonzero"></path>
                    <path d="M37.5014948,195.80451 C37.3236738,195.456988 36.9660176,195.238316 36.5754381,195.238316 C36.1848586,195.238316 35.8272025,195.456988 35.6493814,195.80451 L30.616134,205.575588 C30.463874,205.875497 30.463874,206.229993 30.616134,206.529902 L35.6493814,216.30098 C35.8272025,216.648502 36.1848586,216.867174 36.5754381,216.867174 C36.9660176,216.867174 37.3236738,216.648502 37.5014948,216.30098 L42.5347423,206.529902 C42.6900166,206.23072 42.6900166,205.87477 42.5347423,205.575588 L37.5014948,195.80451 Z" id="Shape" stroke="#003CE8" stroke-width="2.43199986" stroke-linecap="round" stroke-linejoin="round"></path>
                    <path d="M88.3753093,350.84402 C88.1507774,350.409855 87.7026005,350.137169 87.2135567,350.137169 C86.7245129,350.137169 86.276336,350.409855 86.0518041,350.84402 L79.7473196,363.08902 C79.555612,363.46411 79.555612,363.908341 79.7473196,364.283431 L86.0670103,376.528431 C86.2915422,376.962595 86.7397191,377.235282 87.2287629,377.235282 C87.7178067,377.235282 88.1659836,376.962595 88.3905155,376.528431 L94.695,364.283431 C94.8867076,363.908341 94.8867076,363.46411 94.695,363.08902 L88.3753093,350.84402 Z" id="Shape" fill="#00FCDD" fill-rule="nonzero"></path>
                    <path d="M84.4095361,350.84402 C84.1859592,350.4096 83.7381375,350.136524 83.2493041,350.136524 C82.7604707,350.136524 82.312649,350.4096 82.0890722,350.84402 L75.7845876,363.08902 C75.5898398,363.463373 75.5898398,363.909078 75.7845876,364.283431 L82.0890722,376.528431 C82.312649,376.962851 82.7604707,377.235927 83.2493041,377.235927 C83.7381375,377.235927 84.1859592,376.962851 84.4095361,376.528431 L90.7170619,364.283431 C90.9087695,363.908341 90.9087695,363.46411 90.7170619,363.08902 L84.4095361,350.84402 Z" id="Shape" stroke="#003CE8" stroke-width="2.43199986" stroke-linecap="round" stroke-linejoin="round"></path>
                    <path d="M199.201031,130.196961 C199.124424,129.94909 198.916754,129.764002 198.661604,129.716193 C198.406454,129.668385 198.145794,129.765719 197.984536,129.96902 L193.459175,135.795196 C193.320841,135.97259 193.277713,136.206232 193.343608,136.421275 L195.454227,143.487451 C195.530833,143.735322 195.738504,143.920409 195.993654,143.968218 C196.248804,144.016027 196.509464,143.918693 196.670722,143.715392 L201.196082,137.892255 C201.333985,137.713494 201.377026,137.47919 201.311649,137.263137 L199.201031,130.196961 Z" id="Shape" stroke="#003CE8" stroke-width="2.43199986" fill="#EAEAEB" fill-rule="nonzero" stroke-linecap="round" stroke-linejoin="round"></path>
                    <path d="M255.254072,301.815392 C255.071391,301.461776 254.706473,301.239638 254.308247,301.239638 C253.910022,301.239638 253.545104,301.461776 253.362423,301.815392 L248.222732,311.796176 C248.064739,312.101135 248.064739,312.463767 248.222732,312.768725 L253.362423,322.74951 C253.545104,323.103126 253.910022,323.325264 254.308247,323.325264 C254.706473,323.325264 255.071391,323.103126 255.254072,322.74951 L260.393763,312.768725 C260.551756,312.463767 260.551756,312.101135 260.393763,311.796176 L255.254072,301.815392 Z" id="Shape" stroke="#003CE8" stroke-width="2.43199986" fill="#00FCDD" fill-rule="nonzero" stroke-linecap="round" stroke-linejoin="round"></path>
                    <path d="M74.1453608,127.507255 L79.4948969,114.073922 C79.7459185,113.580084 80.1983436,113.218828 80.7357216,113.083137 L95.0295361,110.834118 L74.1453608,127.507255 Z" id="Shape" stroke="#003CE8" stroke-width="2.43199986" fill="#003CE8" fill-rule="nonzero" stroke-linecap="round" stroke-linejoin="round"></path>
                    <path d="M101.987887,261.953039 L94.4851546,249.586471 C94.2421207,249.08974 94.2265882,248.512096 94.4425773,248.003039 L101.267113,235.238333 L101.987887,261.953039 Z" id="Shape" stroke="#003CE8" stroke-width="2.43199986" fill="#003CE8" fill-rule="nonzero" stroke-linecap="round" stroke-linejoin="round"></path>
                    <path d="M229.874948,156.902549 L244.33299,157.48 C244.882588,157.551034 245.374214,157.857126 245.680258,158.318824 L252.553454,171.04402 L229.874948,156.902549 Z" id="Shape" stroke="#003CE8" stroke-width="2.43199986" fill="#003CE8" fill-rule="nonzero" stroke-linecap="round" stroke-linejoin="round"></path>
                    <path d="M342.300361,250.972353 L347.613402,264.411765 C347.768575,264.943453 347.686541,265.5162 347.388351,265.983039 L338.520103,277.407451 L342.300361,250.972353 Z" id="Shape" stroke="#003CE8" stroke-width="2.43199986" fill="#003CE8" fill-rule="nonzero" stroke-linecap="round" stroke-linejoin="round"></path>
                    <path d="M242.848866,311.167059 L235.327887,323.521471 C234.998719,323.966224 234.492903,324.246676 233.941082,324.290392 L219.470876,324.123235 L242.848866,311.167059 Z" id="Shape" stroke="#003CE8" stroke-width="2.43199986" fill="#003CE8" fill-rule="nonzero" stroke-linecap="round" stroke-linejoin="round"></path>
                    <path d="M125.931546,379.901961 L111.46134,380.026569 C110.909591,379.980529 110.404866,379.69785 110.077577,379.251569 L102.593093,366.875882 L125.931546,379.901961 Z" id="Shape" stroke="#003CE8" stroke-width="2.43199986" fill="#003CE8" fill-rule="nonzero" stroke-linecap="round" stroke-linejoin="round"></path>
                    <path d="M175.312113,202.457353 L188.018402,195.537059 C188.525605,195.316441 189.103611,195.326419 189.602887,195.564412 L202.038505,202.958824 L175.312113,202.457353 Z" id="Shape" stroke="#003CE8" stroke-width="2.43199986" fill="#003CE8" fill-rule="nonzero" stroke-linecap="round" stroke-linejoin="round"></path>
                    <path d="M174.624794,286.500784 L187.093866,293.831373 C187.593584,294.068392 188.171586,294.077262 188.678351,293.855686 L201.348144,286.86549 L174.624794,286.500784 Z" id="Shape" stroke="#003CE8" stroke-width="2.43199986" fill="#003CE8" fill-rule="nonzero" stroke-linecap="round" stroke-linejoin="round"></path>
                </g>
            </g>
        </g>
    </g>
</svg>