<?xml version="1.0" encoding="UTF-8"?>
<svg width="155px" height="161px" viewBox="0 0 155 161" version="1.1" xmlns="http://www.w3.org/2000/svg" xmlns:xlink="http://www.w3.org/1999/xlink">
    <!-- Generator: sketchtool 50.2 (55047) - http://www.bohemiancoding.com/sketch -->
    <title>C6C8F171-41CC-4538-8FD1-30D900345609</title>
    <desc>Created with sketchtool.</desc>
    <defs></defs>
    <g id="Symbols" stroke="none" stroke-width="1" fill="none" fill-rule="evenodd">
        <g id="img_4" transform="translate(2.000000, 2.000000)">
            <g id="4">
                <path d="M134.192262,116.345642 C134.192262,117.497936 134.134738,118.639427 134.026881,119.766514 C132.18251,138.699266 115.596124,152.701943 96.6538066,151.317878 C77.7114888,149.933813 63.3297429,133.668376 64.2483111,114.667979 C65.1668793,95.6675807 81.0503602,80.8699329 100.037573,81.3253569 C119.024786,81.7807809 134.182834,97.3229856 134.192262,116.345642 Z" id="Shape" fill="#EAEAEB" fill-rule="nonzero"></path>
                <path d="M145.128976,116.345642 C145.128976,117.497936 145.071452,118.639427 144.963595,119.766514 C143.119225,138.699266 126.532839,152.701943 107.590521,151.317878 C88.6482031,149.933813 74.2664572,133.668376 75.1850254,114.667979 C76.1035936,95.6675807 91.9870745,80.8699329 110.974287,81.3253569 C129.9615,81.7807809 145.119548,97.3229856 145.128976,116.345642 Z" id="Shape" stroke="#003CE8" stroke-width="2.87999997" fill="#FFFFFF" fill-rule="nonzero" stroke-linecap="round" stroke-linejoin="round"></path>
                <path d="M140.954905,23.1322936 L140.954905,36.8157798 L0.0215714289,36.8157798 L0.0215714289,23.1322936 C0.0215714289,20.7458154 1.95314294,18.8111927 4.33585714,18.8111927 L136.640619,18.8111927 C139.023333,18.8111927 140.954905,20.7458154 140.954905,23.1322936 Z" id="Shape" stroke="#003CE8" stroke-width="2.87999997" stroke-linecap="round" stroke-linejoin="round"></path>
                <path d="M141.314429,23.1322936 L141.314429,100.227936 C133.862531,85.9693107 117.660003,78.6416762 102.053152,82.4719238 C86.4463004,86.3021714 75.4615144,100.302141 75.4352857,116.396055 L4.33585714,116.396055 C1.95314294,116.396055 0.0215714289,114.461432 0.0215714289,112.074954 L0.0215714289,23.1322936 C0.0215714289,20.7458154 1.95314294,18.8111927 4.33585714,18.8111927 L74.4717619,18.8111927 C76.2411979,23.1629596 80.465425,26.0082408 85.1568095,26.0082408 C89.8481941,26.0082408 94.0724211,23.1629596 95.8418571,18.8111927 L137.075643,18.8111927 C139.428821,18.8524446 141.314789,20.7750374 141.314429,23.1322936 Z" id="Shape" stroke="#003CE8" stroke-width="2.87999997" stroke-linecap="round" stroke-linejoin="round"></path>
                <path d="M37.7715714,85.4281651 C49.883702,85.4281651 59.7025238,75.5938327 59.7025238,63.4625688 C59.7025238,51.3313049 49.883702,41.4969725 37.7715714,41.4969725 C25.6594409,41.4969725 15.840619,51.3313049 15.840619,63.4625688 C15.840619,75.5938327 25.6594409,85.4281651 37.7715714,85.4281651 Z" id="Oval" stroke="#003CE8" stroke-width="2.87999997" stroke-linecap="round" stroke-linejoin="round" stroke-dasharray="6.120000009536739"></path>
                <path d="M46.2563333,54.95 C54.9855714,45.8648853 68.3994048,31.6304587 76.9237143,22.5597477" id="Shape" stroke="#003CE8" stroke-width="2.87999997" stroke-linecap="round" stroke-linejoin="round"></path>
                <path d="M28.6073095,70.4231422 L11.386119,83.4584633" id="Shape" stroke="#003CE8" stroke-width="2.87999997" stroke-linecap="round" stroke-linejoin="round"></path>
                <polyline id="Shape" stroke="#003CE8" stroke-width="2.87999997" stroke-linecap="round" stroke-linejoin="round" points="94.3282619 21.3066284 120.951 40.0061927 136.942619 18.7643807 150.971238 0.12603211"></polyline>
                <path d="M139.390976,117.008211 C139.390976,117.894037 139.344238,118.772661 139.257952,119.636881 L110.754905,119.636881 L110.754905,90.1705734 C126.570357,90.1705734 139.390976,102.186835 139.390976,117.008211 Z" id="Shape" fill="#00FCDD" fill-rule="nonzero"></path>
                <path d="M150.162312,116.345642 C150.166126,127.090819 145.906044,137.396999 138.32004,144.994986 C130.734035,152.592974 120.44411,156.859786 109.715881,156.855963 C108.378452,156.855963 107.059,156.787546 105.761119,156.661514" id="Shape" stroke="#003CE8" stroke-width="2.87999997" stroke-linecap="round" stroke-linejoin="round" stroke-dasharray="6.120000009536739"></path>
                <ellipse id="Oval" fill="#00FCDD" fill-rule="nonzero" cx="36.3334762" cy="66.7033945" rx="11.5047619" ry="11.5229358"></ellipse>
                <path d="M49.2907143,63.4769725 C49.2898228,68.9727813 45.4139746,73.7030653 40.0324613,74.7762194 C34.650948,75.8493736 29.2617433,72.9666795 27.159248,67.8903175 C25.0567528,62.8139555 26.826208,56.9569586 31.3859523,53.8996873 C35.9456966,50.8424161 42.0265003,51.4358786 45.9111905,55.3172936 C48.0752396,57.4795181 49.2912109,60.4154156 49.2907143,63.4769725 Z" id="Shape" stroke="#003CE8" stroke-width="2.87999997" stroke-linecap="round" stroke-linejoin="round"></path>
                <path d="M96.5932619,14.4396789 C96.5932619,20.8036206 91.4424046,25.9626147 85.0885,25.9626147 C78.7345954,25.9626147 73.5837381,20.8036206 73.5837381,14.4396789 C73.5837381,8.07573719 78.7345954,2.91674312 85.0885,2.91674312 C88.1415088,2.9109935 91.0711266,4.12316717 93.2299336,6.28538443 C95.3887406,8.4476017 96.5990025,11.3818473 96.5932619,14.4396789 Z" id="Shape" stroke="#003CE8" stroke-width="2.87999997" fill="#FFFFFF" fill-rule="nonzero" stroke-linecap="round" stroke-linejoin="round"></path>
                <path d="M70.0711905,87.3726606 L64.0311905,80.5633257 C63.5114964,79.9776078 63.5546268,79.0832389 64.1282619,78.5504128 L66.3105714,76.5266972 C66.8433561,76.0325929 67.0922046,75.3031751 66.9727162,74.5858373 C66.8532278,73.8684996 66.3814363,73.2594998 65.7173571,72.9653899 L44.9189048,65.5871101 C44.4001857,65.404027 43.8226374,65.5332933 43.4310719,65.9201154 C43.0395065,66.3069375 42.9025061,66.8835639 43.0781429,67.4055734 L49.9738095,87.8119725 C50.2614899,88.442041 50.8334044,88.8957101 51.51165,89.0318586 C52.1898956,89.1680071 52.8921893,88.970118 53.4000714,88.4997477 L56.3877143,85.7270413 C56.6714483,85.4638516 57.0490587,85.3262091 57.4353187,85.34518 C57.8215786,85.3641509 58.1839319,85.5381361 58.4405952,85.827867 L64.3547619,92.4787615 C65.1460571,93.3706342 66.5093624,93.4512398 67.3999286,92.6588073 L69.9165952,90.4262385 C70.341727,90.0420456 70.5969051,89.5043211 70.6259032,88.9315479 C70.6549013,88.3587747 70.4553398,87.797955 70.0711905,87.3726606 Z" id="Shape" fill="#003CE8" fill-rule="nonzero"></path>
                <rect id="Rectangle-path" fill="#003CE8" fill-rule="nonzero" transform="translate(123.697762, 119.640482) rotate(90.000000) translate(-123.697762, -119.640482) " x="121.181095" y="103.436353" width="5.03333333" height="32.4082569" rx="2.36159997"></rect>
                <rect id="Rectangle-path" fill="#003CE8" fill-rule="nonzero" transform="translate(110.032262, 105.956995) rotate(-180.000000) translate(-110.032262, -105.956995) " x="107.515595" y="89.752867" width="5.03333333" height="32.4082569" rx="2.36159997"></rect>
                <ellipse id="Oval" stroke="#003CE8" stroke-width="2.87999997" fill="#FFFFFF" fill-rule="nonzero" stroke-linecap="round" stroke-linejoin="round" cx="120.821571" cy="40.0566055" rx="11.5047619" ry="11.5229358"></ellipse>
                <path d="M120.951,32.4514679 C125.12075,32.4514679 128.501,35.8370578 128.501,40.0133945" id="Shape" stroke="#00FCDD" stroke-width="2.87999997" stroke-linecap="round" stroke-linejoin="round"></path>
                <path d="M85.0885,6.88495413 C87.0908845,6.88495413 89.0112565,7.68165482 90.4271562,9.09979115 C91.8430559,10.5179275 92.6385,12.4413331 92.6385,14.4468807" id="Shape" stroke="#00FCDD" stroke-width="2.87999997" stroke-linecap="round" stroke-linejoin="round"></path>
                <ellipse id="Oval" fill="#003CE8" fill-rule="nonzero" cx="9.00966667" cy="27.8134862" rx="2.87619048" ry="2.88073394"></ellipse>
                <ellipse id="Oval" fill="#003CE8" fill-rule="nonzero" cx="19.4358571" cy="27.8134862" rx="2.87619048" ry="2.88073394"></ellipse>
                <ellipse id="Oval" fill="#003CE8" fill-rule="nonzero" cx="29.8620476" cy="27.8134862" rx="2.87619048" ry="2.88073394"></ellipse>
            </g>
        </g>
    </g>
</svg>