<?xml version="1.0" encoding="UTF-8"?>
<svg width="171px" height="168px" viewBox="0 0 171 168" version="1.1" xmlns="http://www.w3.org/2000/svg" xmlns:xlink="http://www.w3.org/1999/xlink">
    <!-- Generator: sketchtool 50.2 (55047) - http://www.bohemiancoding.com/sketch -->
    <title>706FCCF8-5410-4A0D-B324-C292B93B2DFF</title>
    <desc>Created with sketchtool.</desc>
    <defs></defs>
    <g id="Symbols" stroke="none" stroke-width="1" fill="none" fill-rule="evenodd">
        <g id="day_3_img" transform="translate(1.000000, 1.000000)">
            <g id="30">
                <ellipse id="Oval" fill="#EAEAEB" fill-rule="nonzero" cx="14.4660326" cy="113.359505" rx="14.3787772" ry="14.2983769"></ellipse>
                <path d="M87.8271875,80.6641265 L164.832405,105.55271 C178.644022,63.2489684 155.376671,17.8284457 112.848832,4.0872077 C104.341427,1.34718019 96.775462,0.148418157 87.8202989,0.148418157 L87.8271875,80.6641265 Z" id="Shape" stroke="#FFFFFF" stroke-width="1.83600008" fill="#EAEAEB" fill-rule="nonzero" stroke-linecap="round" stroke-linejoin="round"></path>
                <path d="M87.8271875,86.5917194 L135.420435,151.731307 C149.886467,141.278102 159.30087,128.390839 164.832405,111.473453 L87.8271875,86.5917194 Z" id="Shape" stroke="#FFFFFF" stroke-width="1.83600008" fill="#00FCDD" fill-rule="nonzero" stroke-linecap="round" stroke-linejoin="round"></path>
                <path d="M81.2394022,85.4157909 L81.2394022,4.90008253 C36.5209918,4.90008253 0.270951087,40.9474278 0.270951087,85.4157909 C0.270951087,129.884154 36.5209918,165.933783 81.2394022,165.933783 C99.1267663,165.933783 114.362024,161.010867 128.832649,150.555378 L81.2394022,85.4157909 Z" id="Shape" stroke="#FFFFFF" stroke-width="1.83600008" stroke-linecap="round" stroke-linejoin="round" stroke-dasharray="3.901500360131251"></path>
            </g>
        </g>
    </g>
</svg>