<?xml version="1.0" encoding="UTF-8"?>
<svg width="168px" height="171px" viewBox="0 0 168 171" version="1.1" xmlns="http://www.w3.org/2000/svg" xmlns:xlink="http://www.w3.org/1999/xlink">
    <!-- Generator: sketchtool 50.2 (55047) - http://www.bohemiancoding.com/sketch -->
    <title>2FA41B47-CC3D-4EC7-84C4-10F3A5957B15</title>
    <desc>Created with sketchtool.</desc>
    <defs></defs>
    <g id="Symbols" stroke="none" stroke-width="1" fill="none" fill-rule="evenodd">
        <g id="day_1_img" transform="translate(1.000000, 1.000000)">
            <g id="10">
                <ellipse id="Oval" fill="#EAEAEB" fill-rule="nonzero" cx="19.5462707" cy="40.4088618" rx="15.3962707" ry="15.377168"></ellipse>
                <path d="M84.0982597,80.783374 L131.621492,15.4550271 C117.162983,4.96924119 101.959309,0.0343495935 84.0982597,0.0343495935 L84.0982597,80.783374 Z" id="Shape" stroke="#FFFFFF" stroke-width="1.83599989" fill="#EAEAEB" fill-rule="nonzero" stroke-linecap="round" stroke-linejoin="round"></path>
                <path d="M88.9131768,80.442168 L165.807403,55.4814634 C160.288591,38.5219241 150.885746,25.599607 136.436409,15.1138211 L88.9131768,80.442168 Z" id="Shape" stroke="#FFFFFF" stroke-width="1.83599989" fill="#00FCDD" fill-rule="nonzero" stroke-linecap="round" stroke-linejoin="round"></path>
                <path d="M80.8883149,88.1135772 L80.8883149,7.36226287 C36.2379834,7.36226287 0.0389779006,43.5094851 0.0389779006,88.1135772 C0.0389779006,132.717669 36.2379834,168.862602 80.8883149,168.862602 C125.538646,168.862602 161.739945,132.710799 161.739945,88.1135772 C161.739945,79.1941328 160.543094,71.6418022 157.782541,63.1528726 L80.8883149,88.1135772 Z" id="Shape" stroke="#FFFFFF" stroke-width="1.83599989" stroke-linecap="round" stroke-linejoin="round" stroke-dasharray="3.90149993097782"></path>
            </g>
        </g>
    </g>
</svg>